<svg width="21" height="19" viewBox="0 0 21 19" fill="none" xmlns="http://www.w3.org/2000/svg">
<path d="M14.5024 0C12.7624 0 11.0924 0.81 10.0024 2.09C8.91244 0.81 7.24244 0 5.50244 0C2.42244 0 0.00244141 2.42 0.00244141 5.5C0.00244141 9.28 3.40244 12.36 8.55244 17.04L10.0024 18.35L11.4524 17.03C16.6024 12.36 20.0024 9.28 20.0024 5.5C20.0024 2.42 17.5824 0 14.5024 0ZM10.1024 15.55L10.0024 15.65L9.90244 15.55C5.14244 11.24 2.00244 8.39 2.00244 5.5C2.00244 3.5 3.50244 2 5.50244 2C7.04244 2 8.54244 2.99 9.07244 4.36H10.9424C11.4624 2.99 12.9624 2 14.5024 2C16.5024 2 18.0024 3.5 18.0024 5.5C18.0024 8.39 14.8624 11.24 10.1024 15.55Z" fill="#BDBDBD"/>
</svg>
