<svg width="17" height="16" viewBox="0 0 17 16" fill="none" xmlns="http://www.w3.org/2000/svg">
<path d="M8.00244 1.9C9.16244 1.9 10.1024 2.84 10.1024 4C10.1024 5.16 9.16244 6.1 8.00244 6.1C6.84244 6.1 5.90244 5.16 5.90244 4C5.90244 2.84 6.84244 1.9 8.00244 1.9ZM8.00244 10.9C10.9724 10.9 14.1024 12.36 14.1024 13V14.1H1.90244V13C1.90244 12.36 5.03244 10.9 8.00244 10.9ZM8.00244 0C5.79244 0 4.00244 1.79 4.00244 4C4.00244 6.21 5.79244 8 8.00244 8C10.2124 8 12.0024 6.21 12.0024 4C12.0024 1.79 10.2124 0 8.00244 0ZM8.00244 9C5.33244 9 0.00244141 10.34 0.00244141 13V16H16.0024V13C16.0024 10.34 10.6724 9 8.00244 9Z" fill="#BDBDBD"/>
</svg>
