<svg width="41" height="41" viewBox="0 0 41 41" fill="none" xmlns="http://www.w3.org/2000/svg">
<path d="M26.4792 27.7941H25.1296L24.6513 27.3329C25.7189 26.0926 26.4992 24.6316 26.9362 23.0545C27.3733 21.4775 27.4564 19.8233 27.1796 18.2104C26.3767 13.4612 22.4133 9.66871 17.63 9.08788C15.9484 8.87513 14.2403 9.0499 12.6366 9.59882C11.0329 10.1477 9.57599 11.0562 8.3774 12.2548C7.17881 13.4534 6.2703 14.9103 5.72138 16.514C5.17246 18.1178 4.99769 19.8258 5.21043 21.5075C5.79127 26.2908 9.58377 30.2541 14.3329 31.057C15.9459 31.3339 17.6 31.2508 19.1771 30.8137C20.7542 30.3766 22.2151 29.5963 23.4554 28.5287L23.9167 29.007V30.3566L31.1771 37.617C31.8775 38.3175 33.0221 38.3175 33.7225 37.617C34.4229 36.9166 34.4229 35.772 33.7225 35.0716L26.4792 27.7941ZM16.2292 27.7941C11.9754 27.7941 8.54168 24.3604 8.54168 20.1066C8.54168 15.8529 11.9754 12.4191 16.2292 12.4191C20.4829 12.4191 23.9167 15.8529 23.9167 20.1066C23.9167 24.3604 20.4829 27.7941 16.2292 27.7941Z" fill="#FA3022"/>
</svg>
