<svg width="41" height="41" viewBox="0 0 41 41" fill="none" xmlns="http://www.w3.org/2000/svg">
<path d="M30.282 22.2425L23.9167 27.3333H15.3751V25.625H22.3195C22.474 25.6249 22.6256 25.5829 22.7581 25.5035C22.8906 25.4241 22.9991 25.3102 23.072 25.174C23.145 25.0378 23.1796 24.8843 23.1722 24.73C23.1648 24.5757 23.1157 24.4263 23.0301 24.2976L21.5131 22.0221C21.2019 21.5537 20.7796 21.1696 20.2839 20.904C19.7882 20.6384 19.2345 20.4996 18.6722 20.5H5.12508C4.672 20.5 4.23748 20.68 3.91711 21.0004C3.59673 21.3207 3.41675 21.7553 3.41675 22.2083V32.4583C3.41675 33.3645 3.77672 34.2335 4.41747 34.8743C5.05822 35.515 5.92726 35.875 6.83341 35.875H23.3C24.0305 35.8752 24.7526 35.7192 25.4179 35.4175C26.0832 35.1158 26.6763 34.6753 27.1575 34.1257L37.5834 22.2083L35.1029 21.3815C34.2914 21.111 33.425 21.0481 32.5829 21.1985C31.7408 21.3489 30.9497 21.7078 30.282 22.2425ZM26.3135 20.5C27.6728 20.5 28.9763 19.96 29.9375 18.9989C30.8986 18.0378 31.4385 16.7342 31.4385 15.375C31.4385 10.7488 26.3135 5.125 26.3135 5.125C26.3135 5.125 21.1885 10.713 21.1885 15.375C21.1885 16.7342 21.7285 18.0378 22.6896 18.9989C23.6507 19.96 24.9543 20.5 26.3135 20.5Z" fill="#FA3022"/>
</svg>
