<svg width="24" height="24" viewBox="0 0 24 24" fill="none" xmlns="http://www.w3.org/2000/svg">
<path d="M16.5078 8.29876C14.1453 5.40188 13.1009 2.93813 12.5028 1.46813C12.3134 1.00501 11.6853 1.00501 11.4978 1.46813C10.8997 2.93813 9.85531 5.40188 7.49281 8.29876C6.01344 10.1138 4.55469 12.7706 4.55469 15.3881C4.55469 19.8544 7.77781 22.8788 12.0003 22.8788C16.2228 22.8788 19.4459 19.8525 19.4459 15.3881C19.4459 12.6675 17.9872 10.1138 16.5078 8.29876Z" fill="#E5322E"/>
<path d="M14.0592 14.97C15.2498 12.705 15.0811 10.4888 16.0223 10.8881C17.3011 11.4338 18.7167 14.2369 18.1861 16.7775C17.8073 18.5888 16.5848 19.6856 15.0267 19.1625C13.7686 18.7406 12.9867 17.01 14.0592 14.97Z" fill="#FF6050"/>
<path d="M12.0664 14.1309H14.334V15.4141H12.0664V17.6699H10.7832V15.4141H8.51562V14.1309H10.7832V11.8457H12.0664V14.1309Z" fill="white"/>
</svg>
