<svg width="20" height="20" viewBox="0 0 20 20" fill="none" xmlns="http://www.w3.org/2000/svg">
<path d="M13.7563 6.9156C11.7876 4.50154 10.9173 2.44841 10.4188 1.22341C10.261 0.837476 9.7376 0.837476 9.58135 1.22341C9.08291 2.44841 8.2126 4.50154 6.24385 6.9156C5.01103 8.4281 3.79541 10.6422 3.79541 12.8234C3.79541 16.5453 6.48135 19.0656 10.0001 19.0656C13.5188 19.0656 16.2048 16.5437 16.2048 12.8234C16.2048 10.5562 14.9892 8.4281 13.7563 6.9156Z" fill="#E5322E"/>
<path d="M11.7157 12.475C12.7079 10.5875 12.5672 8.74061 13.3516 9.07342C14.4172 9.52811 15.5969 11.864 15.1547 13.9812C14.8391 15.4906 13.8204 16.4047 12.5219 15.9687C11.4735 15.6172 10.8219 14.175 11.7157 12.475Z" fill="#FF6050"/>
</svg>
