<svg width="21" height="20" viewBox="0 0 21 20" fill="none" xmlns="http://www.w3.org/2000/svg">
<g clip-path="url(#clip0_189_1689)">
<path d="M8.08097 15.8334H7.66431C4.33097 15.8334 2.66431 15.0001 2.66431 10.8334V6.66675C2.66431 3.33341 4.33097 1.66675 7.66431 1.66675H14.331C17.6643 1.66675 19.331 3.33341 19.331 6.66675V10.8334C19.331 14.1667 17.6643 15.8334 14.331 15.8334H13.9143C13.656 15.8334 13.406 15.9584 13.2476 16.1667L11.9976 17.8334C11.4476 18.5667 10.5476 18.5667 9.99764 17.8334L8.74764 16.1667C8.61431 15.9834 8.30597 15.8334 8.08097 15.8334Z" stroke="black" stroke-width="1.5" stroke-miterlimit="10" stroke-linecap="round" stroke-linejoin="round"/>
<path d="M6.83081 6.66675H15.1641M6.83081 10.8334H11.8308" stroke="black" stroke-width="1.5" stroke-linecap="round" stroke-linejoin="round"/>
</g>
<defs>
<clipPath id="clip0_189_1689">
<rect width="20" height="20" fill="white" transform="translate(0.997559)"/>
</clipPath>
</defs>
</svg>
