<svg width="22" height="20" viewBox="0 0 22 20" fill="none" xmlns="http://www.w3.org/2000/svg">
<path d="M13.7476 12.9956C14.7136 12.9956 15.4976 13.7796 15.4976 14.7456L15.4966 15.7076C15.6136 17.8976 13.9856 19.0046 11.0646 19.0046C8.15456 19.0046 6.49756 17.9146 6.49756 15.7456V14.7456C6.49756 13.7796 7.28156 12.9956 8.24756 12.9956H13.7476ZM13.7476 14.4956H8.24756C8.18125 14.4956 8.11767 14.5219 8.07078 14.5688C8.0239 14.6157 7.99756 14.6793 7.99756 14.7456V15.7456C7.99756 16.9216 8.88456 17.5046 11.0646 17.5046C13.2326 17.5046 14.0596 16.9406 13.9976 15.7476V14.7456C13.9976 14.6793 13.9712 14.6157 13.9243 14.5688C13.8775 14.5219 13.8139 14.4956 13.7476 14.4956ZM2.74756 7.99561H7.12356C6.99756 8.48514 6.96533 8.99409 7.02856 9.49561H2.74756C2.68125 9.49561 2.61767 9.52194 2.57078 9.56883C2.5239 9.61571 2.49756 9.6793 2.49756 9.74561V10.7456C2.49756 11.9216 3.38456 12.5046 5.56456 12.5046C6.02656 12.5046 6.42756 12.4786 6.77156 12.4276C6.19939 12.7901 5.78157 13.3515 5.59856 14.0036L5.56456 14.0046C2.65456 14.0046 0.997559 12.9146 0.997559 10.7456V9.74561C0.997559 8.77961 1.78156 7.99561 2.74756 7.99561ZM19.2476 7.99561C20.2136 7.99561 20.9976 8.77961 20.9976 9.74561L20.9966 10.7076C21.1136 12.8976 19.4856 14.0046 16.5646 14.0046L16.3956 14.0026C16.207 13.3326 15.7718 12.7589 15.1776 12.3966C15.5646 12.4686 16.0246 12.5046 16.5646 12.5046C18.7326 12.5046 19.5596 11.9406 19.4976 10.7476V9.74561C19.4976 9.6793 19.4712 9.61571 19.4243 9.56883C19.3775 9.52194 19.3139 9.49561 19.2476 9.49561H14.9676C15.0294 8.994 14.9969 8.48524 14.8716 7.99561H19.2476ZM10.9976 5.99561C11.3915 5.99561 11.7816 6.0732 12.1456 6.22397C12.5096 6.37473 12.8403 6.59571 13.1189 6.87428C13.3975 7.15286 13.6184 7.48358 13.7692 7.84756C13.92 8.21153 13.9976 8.60164 13.9976 8.99561C13.9976 9.38957 13.92 9.77968 13.7692 10.1437C13.6184 10.5076 13.3975 10.8384 13.1189 11.1169C12.8403 11.3955 12.5096 11.6165 12.1456 11.7672C11.7816 11.918 11.3915 11.9956 10.9976 11.9956C10.2019 11.9956 9.43885 11.6795 8.87624 11.1169C8.31363 10.5543 7.99756 9.79125 7.99756 8.99561C7.99756 8.19996 8.31363 7.43689 8.87624 6.87428C9.43885 6.31168 10.2019 5.99561 10.9976 5.99561ZM10.9976 7.49561C10.8006 7.49561 10.6055 7.5344 10.4235 7.60979C10.2415 7.68517 10.0762 7.79566 9.9369 7.93495C9.79761 8.07423 9.68712 8.23959 9.61174 8.42158C9.53636 8.60357 9.49756 8.79862 9.49756 8.99561C9.49756 9.19259 9.53636 9.38764 9.61174 9.56963C9.68712 9.75162 9.79761 9.91698 9.9369 10.0563C10.0762 10.1956 10.2415 10.306 10.4235 10.3814C10.6055 10.4568 10.8006 10.4956 10.9976 10.4956C11.3954 10.4956 11.7769 10.3376 12.0582 10.0563C12.3395 9.77496 12.4976 9.39343 12.4976 8.99561C12.4976 8.59778 12.3395 8.21625 12.0582 7.93495C11.7769 7.65364 11.3954 7.49561 10.9976 7.49561ZM5.49756 0.995605C6.29321 0.995605 7.05627 1.31168 7.61888 1.87429C8.18149 2.43689 8.49756 3.19996 8.49756 3.99561C8.49756 4.79125 8.18149 5.55432 7.61888 6.11693C7.05627 6.67954 6.29321 6.99561 5.49756 6.99561C4.70191 6.99561 3.93885 6.67954 3.37624 6.11693C2.81363 5.55432 2.49756 4.79125 2.49756 3.99561C2.49756 3.19996 2.81363 2.43689 3.37624 1.87429C3.93885 1.31168 4.70191 0.995605 5.49756 0.995605ZM16.4976 0.995605C17.2932 0.995605 18.0563 1.31168 18.6189 1.87429C19.1815 2.43689 19.4976 3.19996 19.4976 3.99561C19.4976 4.79125 19.1815 5.55432 18.6189 6.11693C18.0563 6.67954 17.2932 6.99561 16.4976 6.99561C15.7019 6.99561 14.9388 6.67954 14.3762 6.11693C13.8136 5.55432 13.4976 4.79125 13.4976 3.99561C13.4976 3.19996 13.8136 2.43689 14.3762 1.87429C14.9388 1.31168 15.7019 0.995605 16.4976 0.995605ZM5.49756 2.49561C5.09973 2.49561 4.7182 2.65364 4.4369 2.93495C4.15559 3.21625 3.99756 3.59778 3.99756 3.99561C3.99756 4.39343 4.15559 4.77496 4.4369 5.05627C4.7182 5.33757 5.09973 5.49561 5.49756 5.49561C5.89538 5.49561 6.27691 5.33757 6.55822 5.05627C6.83952 4.77496 6.99756 4.39343 6.99756 3.99561C6.99756 3.59778 6.83952 3.21625 6.55822 2.93495C6.27691 2.65364 5.89538 2.49561 5.49756 2.49561ZM16.4976 2.49561C16.0997 2.49561 15.7182 2.65364 15.4369 2.93495C15.1556 3.21625 14.9976 3.59778 14.9976 3.99561C14.9976 4.39343 15.1556 4.77496 15.4369 5.05627C15.7182 5.33757 16.0997 5.49561 16.4976 5.49561C16.8954 5.49561 17.2769 5.33757 17.5582 5.05627C17.8395 4.77496 17.9976 4.39343 17.9976 3.99561C17.9976 3.59778 17.8395 3.21625 17.5582 2.93495C17.2769 2.65364 16.8954 2.49561 16.4976 2.49561Z" fill="black"/>
</svg>
