<svg width="22" height="20" viewBox="0 0 22 20" fill="none" xmlns="http://www.w3.org/2000/svg">
<path d="M13.7476 12.9955C14.7136 12.9955 15.4976 13.7795 15.4976 14.7455L15.4966 15.7075C15.6136 17.8975 13.9856 19.0045 11.0646 19.0045C8.15456 19.0045 6.49756 17.9145 6.49756 15.7455V14.7455C6.49756 13.7795 7.28156 12.9955 8.24756 12.9955H13.7476ZM13.7476 14.4955H8.24756C8.18125 14.4955 8.11767 14.5218 8.07078 14.5687C8.0239 14.6156 7.99756 14.6792 7.99756 14.7455V15.7455C7.99756 16.9215 8.88456 17.5045 11.0646 17.5045C13.2326 17.5045 14.0596 16.9405 13.9976 15.7475V14.7455C13.9976 14.6792 13.9712 14.6156 13.9243 14.5687C13.8775 14.5218 13.8139 14.4955 13.7476 14.4955ZM2.74756 7.99548H7.12356C6.99756 8.48502 6.96533 8.99397 7.02856 9.49548H2.74756C2.68125 9.49548 2.61767 9.52182 2.57078 9.56871C2.5239 9.61559 2.49756 9.67918 2.49756 9.74548V10.7455C2.49756 11.9215 3.38456 12.5045 5.56456 12.5045C6.02656 12.5045 6.42756 12.4785 6.77156 12.4275C6.19939 12.79 5.78157 13.3513 5.59856 14.0035L5.56456 14.0045C2.65456 14.0045 0.997559 12.9145 0.997559 10.7455V9.74548C0.997559 8.77948 1.78156 7.99548 2.74756 7.99548ZM19.2476 7.99548C20.2136 7.99548 20.9976 8.77948 20.9976 9.74548L20.9966 10.7075C21.1136 12.8975 19.4856 14.0045 16.5646 14.0045L16.3956 14.0025C16.207 13.3325 15.7718 12.7587 15.1776 12.3965C15.5646 12.4685 16.0246 12.5045 16.5646 12.5045C18.7326 12.5045 19.5596 11.9405 19.4976 10.7475V9.74548C19.4976 9.67918 19.4712 9.61559 19.4243 9.56871C19.3775 9.52182 19.3139 9.49548 19.2476 9.49548H14.9676C15.0294 8.99387 14.9969 8.48511 14.8716 7.99548H19.2476ZM10.9976 5.99548C11.3915 5.99548 11.7816 6.07308 12.1456 6.22384C12.5096 6.37461 12.8403 6.59559 13.1189 6.87416C13.3975 7.15274 13.6184 7.48346 13.7692 7.84743C13.92 8.21141 13.9976 8.60152 13.9976 8.99548C13.9976 9.38945 13.92 9.77956 13.7692 10.1435C13.6184 10.5075 13.3975 10.8382 13.1189 11.1168C12.8403 11.3954 12.5096 11.6164 12.1456 11.7671C11.7816 11.9179 11.3915 11.9955 10.9976 11.9955C10.2019 11.9955 9.43885 11.6794 8.87624 11.1168C8.31363 10.5542 7.99756 9.79113 7.99756 8.99548C7.99756 8.19983 8.31363 7.43677 8.87624 6.87416C9.43885 6.31155 10.2019 5.99548 10.9976 5.99548ZM10.9976 7.49548C10.8006 7.49548 10.6055 7.53428 10.4235 7.60966C10.2415 7.68505 10.0762 7.79554 9.9369 7.93482C9.79761 8.07411 9.68712 8.23947 9.61174 8.42146C9.53636 8.60345 9.49756 8.7985 9.49756 8.99548C9.49756 9.19247 9.53636 9.38752 9.61174 9.56951C9.68712 9.7515 9.79761 9.91686 9.9369 10.0561C10.0762 10.1954 10.2415 10.3059 10.4235 10.3813C10.6055 10.4567 10.8006 10.4955 10.9976 10.4955C11.3954 10.4955 11.7769 10.3374 12.0582 10.0561C12.3395 9.77484 12.4976 9.39331 12.4976 8.99548C12.4976 8.59766 12.3395 8.21613 12.0582 7.93482C11.7769 7.65352 11.3954 7.49548 10.9976 7.49548ZM5.49756 0.995483C6.29321 0.995483 7.05627 1.31155 7.61888 1.87416C8.18149 2.43677 8.49756 3.19983 8.49756 3.99548C8.49756 4.79113 8.18149 5.55419 7.61888 6.1168C7.05627 6.67941 6.29321 6.99548 5.49756 6.99548C4.70191 6.99548 3.93885 6.67941 3.37624 6.1168C2.81363 5.55419 2.49756 4.79113 2.49756 3.99548C2.49756 3.19983 2.81363 2.43677 3.37624 1.87416C3.93885 1.31155 4.70191 0.995483 5.49756 0.995483ZM16.4976 0.995483C17.2932 0.995483 18.0563 1.31155 18.6189 1.87416C19.1815 2.43677 19.4976 3.19983 19.4976 3.99548C19.4976 4.79113 19.1815 5.55419 18.6189 6.1168C18.0563 6.67941 17.2932 6.99548 16.4976 6.99548C15.7019 6.99548 14.9388 6.67941 14.3762 6.1168C13.8136 5.55419 13.4976 4.79113 13.4976 3.99548C13.4976 3.19983 13.8136 2.43677 14.3762 1.87416C14.9388 1.31155 15.7019 0.995483 16.4976 0.995483ZM5.49756 2.49548C5.09973 2.49548 4.7182 2.65352 4.4369 2.93482C4.15559 3.21613 3.99756 3.59766 3.99756 3.99548C3.99756 4.39331 4.15559 4.77484 4.4369 5.05614C4.7182 5.33745 5.09973 5.49548 5.49756 5.49548C5.89538 5.49548 6.27691 5.33745 6.55822 5.05614C6.83952 4.77484 6.99756 4.39331 6.99756 3.99548C6.99756 3.59766 6.83952 3.21613 6.55822 2.93482C6.27691 2.65352 5.89538 2.49548 5.49756 2.49548ZM16.4976 2.49548C16.0997 2.49548 15.7182 2.65352 15.4369 2.93482C15.1556 3.21613 14.9976 3.59766 14.9976 3.99548C14.9976 4.39331 15.1556 4.77484 15.4369 5.05614C15.7182 5.33745 16.0997 5.49548 16.4976 5.49548C16.8954 5.49548 17.2769 5.33745 17.5582 5.05614C17.8395 4.77484 17.9976 4.39331 17.9976 3.99548C17.9976 3.59766 17.8395 3.21613 17.5582 2.93482C17.2769 2.65352 16.8954 2.49548 16.4976 2.49548Z" fill="#BDBDBD"/>
</svg>
