<svg width="41" height="41" viewBox="0 0 41 41" fill="none" xmlns="http://www.w3.org/2000/svg">
<path d="M7.6875 7.6875C7.6875 6.32827 8.22745 5.0247 9.18858 4.06358C10.1497 3.10245 11.4533 2.5625 12.8125 2.5625C14.1717 2.5625 15.4753 3.10245 16.4364 4.06358C17.3975 5.0247 17.9375 6.32827 17.9375 7.6875C17.9375 9.04673 17.3975 10.3503 16.4364 11.3114C15.4753 12.2725 14.1717 12.8125 12.8125 12.8125C11.4533 12.8125 10.1497 12.2725 9.18858 11.3114C8.22745 10.3503 7.6875 9.04673 7.6875 7.6875ZM25.0587 11.7465L25.1663 11.8285C26.2536 12.6344 27.6155 12.9776 28.9548 12.7831C30.2941 12.5885 31.5021 11.8722 32.3152 10.7903C33.1283 9.70836 33.4804 8.34876 33.2947 7.00818C33.1091 5.6676 32.4007 4.45488 31.3242 3.63468C30.2477 2.81448 28.8904 2.45338 27.5486 2.63019C26.2069 2.80701 24.9895 3.50738 24.1622 4.57846C23.3349 5.64954 22.9649 7.00437 23.1328 8.34728C23.3008 9.69019 23.9931 10.9122 25.0587 11.7465ZM16.0618 15.375C16.3836 14.7655 16.8251 14.2273 17.3598 13.7924C17.8945 13.3575 18.5114 13.0349 19.1736 12.8439C19.8359 12.653 20.5298 12.5975 21.214 12.681C21.8981 12.7644 22.5584 12.985 23.1554 13.3295C23.7523 13.674 24.2736 14.1354 24.6881 14.686C25.1026 15.2366 25.4018 15.8652 25.5678 16.5342C25.7338 17.2031 25.7631 17.8987 25.6541 18.5792C25.545 19.2597 25.2998 19.9113 24.9331 20.4949C24.2277 21.6176 23.1146 22.4232 21.8277 22.7425C20.5408 23.0618 19.1803 22.8699 18.0319 22.2071C16.8835 21.5443 16.0366 20.4623 15.6693 19.1883C15.3019 17.9143 15.4426 16.5475 16.0618 15.375ZM6.40625 15.375H13.2481C12.7927 16.6756 12.6937 18.0744 12.9613 19.4262C13.229 20.778 13.8536 22.0336 14.7702 23.0625H14.0938C12.7726 23.0623 11.4837 23.4704 10.4035 24.231C9.32319 24.9915 8.50437 26.0673 8.05906 27.3111C7.19892 26.9656 6.39356 26.4969 5.66825 25.9197C3.74125 24.3694 2.5625 22.0785 2.5625 19.2188C2.5625 18.1993 2.96747 17.2217 3.68831 16.5008C4.40915 15.78 5.38682 15.375 6.40625 15.375ZM26.9062 23.0625C28.227 23.0625 29.5155 23.4707 30.5954 24.2312C31.6752 24.9918 32.4935 26.0675 32.9384 27.3111C33.8096 26.9549 34.6168 26.4911 35.3318 25.9197C37.2588 24.3694 38.4375 22.0785 38.4375 19.2188C38.4375 18.1993 38.0325 17.2217 37.3117 16.5008C36.5908 15.78 35.6132 15.375 34.5938 15.375H27.7519C28.0337 16.1771 28.1875 17.0406 28.1875 17.9375C28.1899 19.8289 27.4925 21.6544 26.2298 23.0625H26.9062ZM30.4604 28.003C30.6475 28.454 30.75 28.9511 30.75 29.4688C30.75 32.3285 29.5738 34.6194 27.6443 36.1697C25.7454 37.6944 23.1983 38.4375 20.5 38.4375C17.8017 38.4375 15.2546 37.6944 13.3557 36.1697C11.4287 34.6194 10.25 32.3285 10.25 29.4688C10.2486 28.9636 10.3471 28.4632 10.5398 27.9962C10.7325 27.5293 11.0156 27.105 11.3728 26.7478C11.73 26.3906 12.1543 26.1075 12.6212 25.9148C13.0882 25.7221 13.5886 25.6236 14.0938 25.625H26.9062C27.6676 25.6248 28.4118 25.8507 29.0446 26.2741C29.6773 26.6975 30.1701 27.2992 30.4604 28.003Z" fill="#FA3022"/>
</svg>
