<svg width="12" height="12" viewBox="0 0 12 12" fill="none" xmlns="http://www.w3.org/2000/svg">
<path d="M6.00008 0.666626C6.70733 0.666626 7.3856 0.947577 7.8857 1.44767C8.3858 1.94777 8.66675 2.62605 8.66675 3.33329C8.66675 4.04054 8.3858 4.71881 7.8857 5.21891C7.3856 5.71901 6.70733 5.99996 6.00008 5.99996C5.29284 5.99996 4.61456 5.71901 4.11446 5.21891C3.61437 4.71881 3.33341 4.04054 3.33341 3.33329C3.33341 2.62605 3.61437 1.94777 4.11446 1.44767C4.61456 0.947577 5.29284 0.666626 6.00008 0.666626ZM6.00008 7.33329C8.94675 7.33329 11.3334 8.52663 11.3334 9.99996V11.3333H0.666748V9.99996C0.666748 8.52663 3.05341 7.33329 6.00008 7.33329Z" fill="#525252"/>
</svg>
