<svg width="9" height="12" viewBox="0 0 9 12" fill="none" xmlns="http://www.w3.org/2000/svg">
<path d="M4.5 0C2.0149 0 0 1.92424 0 4.29752C0 6.22314 2.96106 10.3168 4.07885 11.7948C4.18269 11.9311 4.34135 12 4.5 12C4.65865 12 4.81731 11.9311 4.92115 11.7948C6.03894 10.3168 9 6.22314 9 4.29752C9 1.92424 6.9851 0 4.5 0ZM4.5 5.84022C3.57548 5.84022 2.82692 5.12534 2.82692 4.24242C2.82692 3.3595 3.57548 2.64463 4.5 2.64463C5.42452 2.64463 6.17308 3.3595 6.17308 4.24242C6.17308 5.12534 5.42452 5.84022 4.5 5.84022Z" fill="#525252"/>
</svg>
