<svg width="18" height="18" viewBox="0 0 18 18" fill="none" xmlns="http://www.w3.org/2000/svg">
<g clip-path="url(#clip0_220_1217)">
<path d="M2.56181 3.06057L2.56052 3.06132C1.93444 3.42889 1.41585 3.9544 1.05663 4.5853L1.055 4.58813C0.686224 5.22605 0.494612 5.95092 0.499996 6.68775V6.69139C0.499996 7.23734 0.603239 7.76834 0.810671 8.28642C1.0162 8.79897 1.32285 9.26489 1.71233 9.65637L1.71369 9.65775L9.00002 17.0385L16.2858 9.65937C16.2859 9.65926 16.286 9.65916 16.2861 9.65906C17.0649 8.86787 17.5009 7.80196 17.5 6.69181V6.69139C17.5 5.92612 17.3149 5.22748 16.9449 4.5868L16.9449 4.58681L16.9434 4.58425C16.5843 3.95385 16.0661 3.4287 15.4405 3.06128L15.4405 3.06128L15.4382 3.05993C14.8125 2.68795 14.0969 2.49435 13.369 2.50014L13.3649 2.50014C12.8217 2.50004 12.284 2.60831 11.7832 2.81862C11.2824 3.02892 10.8285 3.33704 10.4483 3.72492L10.4471 3.72608L9.3559 4.83196L9.00018 5.19244L8.64428 4.83214L7.5519 3.72627L7.55037 3.7247C7.16642 3.33258 6.70682 3.02255 6.19945 2.81341L6.19769 2.81268C5.70218 2.60622 5.17066 2.49999 4.63387 2.50014C3.88132 2.50014 3.19318 2.68734 2.56181 3.06057Z" stroke="#525252"/>
</g>
<defs>
<clipPath id="clip0_220_1217">
<rect width="18" height="18" fill="white" transform="matrix(-1 0 0 1 18 0)"/>
</clipPath>
</defs>
</svg>
