<svg width="18" height="18" viewBox="0 0 18 18" fill="none" xmlns="http://www.w3.org/2000/svg">
<g clip-path="url(#clip0_222_2259)">
<path d="M4.63387 2.00014C3.7935 2.00014 3.01725 2.21052 2.30737 2.63014C1.6058 3.04203 1.02467 3.63092 0.622122 4.33789C0.208757 5.05295 -0.00602531 5.86547 -3.8147e-06 6.69139C-3.8147e-06 7.30227 0.115871 7.89627 0.346495 8.47227C0.577009 9.04723 0.920975 9.56988 1.35787 10.009L9 17.7501L16.6421 10.0101C17.5132 9.12528 18.001 7.93309 18 6.69139C18 5.84089 17.793 5.05564 17.3779 4.33677C16.9755 3.63035 16.3948 3.04188 15.6937 2.63014C14.9896 2.21152 14.1842 1.99364 13.365 2.00014C12.7553 2.00002 12.1517 2.12155 11.5896 2.35761C11.0274 2.59367 10.5181 2.93951 10.0912 3.37489L9 4.48077L7.90762 3.37489C7.4763 2.93439 6.95998 2.58609 6.39 2.35114C5.83286 2.119 5.23519 1.9997 4.63162 2.00014H4.63387Z" fill="#FF3022"/>
</g>
<defs>
<clipPath id="clip0_222_2259">
<rect width="18" height="18" fill="white" transform="matrix(-1 0 0 1 18 0)"/>
</clipPath>
</defs>
</svg>
