<svg width="88" height="58" viewBox="0 0 88 58" fill="none" xmlns="http://www.w3.org/2000/svg">
<path d="M27.9521 45.6025H23.6553V53H16.2822V45.6025H1.04785V40.3535L16.6973 17.3066H23.6553V39.7432H27.9521V45.6025ZM16.2822 39.7432V33.6885C16.2822 33.1188 16.2904 32.4434 16.3066 31.6621C16.3392 30.8809 16.3717 30.0996 16.4043 29.3184C16.4368 28.5371 16.4694 27.8454 16.502 27.2432C16.5508 26.6247 16.5833 26.1934 16.5996 25.9492H16.4043C16.0951 26.6165 15.7695 27.2676 15.4277 27.9023C15.0859 28.5208 14.6872 29.1719 14.2314 29.8555L7.68848 39.7432H16.2822Z" fill="white"/>
<path d="M43.043 32.4609C43.8438 32.4609 44.4824 32.7363 44.959 33.2871C45.4355 33.8379 45.6738 34.666 45.6738 35.7715C45.6738 36.502 45.5645 37.1152 45.3457 37.6113C45.127 38.1074 44.8184 38.4824 44.4199 38.7363C44.0254 38.9902 43.5586 39.1172 43.0195 39.1172C42.6797 39.1172 42.3809 39.0723 42.123 38.9824C41.8652 38.8926 41.6445 38.7715 41.4609 38.6191C41.2773 38.4668 41.125 38.3008 41.0039 38.1211H40.9336C40.9453 38.2734 40.959 38.457 40.9746 38.6719C40.9941 38.8867 41.0039 39.0742 41.0039 39.2344V41.8711H40.0254V32.5781H40.8281L40.957 33.5273H41.0039C41.1289 33.332 41.2812 33.1543 41.4609 32.9941C41.6406 32.8301 41.8594 32.7012 42.1172 32.6074C42.3789 32.5098 42.6875 32.4609 43.043 32.4609ZM42.873 33.2812C42.4277 33.2812 42.0684 33.3672 41.7949 33.5391C41.5254 33.7109 41.3281 33.9688 41.2031 34.3125C41.0781 34.6523 41.0117 35.0801 41.0039 35.5957V35.7832C41.0039 36.3262 41.0625 36.7852 41.1797 37.1602C41.3008 37.5352 41.498 37.8203 41.7715 38.0156C42.0488 38.2109 42.4199 38.3086 42.8848 38.3086C43.2832 38.3086 43.6152 38.2012 43.8809 37.9863C44.1465 37.7715 44.3438 37.4727 44.4727 37.0898C44.6055 36.7031 44.6719 36.2598 44.6719 35.7598C44.6719 35.002 44.5234 34.4004 44.2266 33.9551C43.9336 33.5059 43.4824 33.2812 42.873 33.2812ZM52.9102 35.7773C52.9102 36.3047 52.8418 36.7754 52.7051 37.1895C52.5684 37.6035 52.3711 37.9531 52.1133 38.2383C51.8555 38.5234 51.543 38.7422 51.1758 38.8945C50.8125 39.043 50.4004 39.1172 49.9395 39.1172C49.5098 39.1172 49.1152 39.043 48.7559 38.8945C48.4004 38.7422 48.0918 38.5234 47.8301 38.2383C47.5723 37.9531 47.3711 37.6035 47.2266 37.1895C47.0859 36.7754 47.0156 36.3047 47.0156 35.7773C47.0156 35.0742 47.1348 34.4766 47.373 33.9844C47.6113 33.4883 47.9512 33.1113 48.3926 32.8535C48.8379 32.5918 49.3672 32.4609 49.9805 32.4609C50.5664 32.4609 51.0781 32.5918 51.5156 32.8535C51.957 33.1152 52.2988 33.4941 52.541 33.9902C52.7871 34.4824 52.9102 35.0781 52.9102 35.7773ZM48.0234 35.7773C48.0234 36.293 48.0918 36.7402 48.2285 37.1191C48.3652 37.498 48.5762 37.791 48.8613 37.998C49.1465 38.2051 49.5137 38.3086 49.9629 38.3086C50.4082 38.3086 50.7734 38.2051 51.0586 37.998C51.3477 37.791 51.5605 37.498 51.6973 37.1191C51.834 36.7402 51.9023 36.293 51.9023 35.7773C51.9023 35.2656 51.834 34.8242 51.6973 34.4531C51.5605 34.0781 51.3496 33.7891 51.0645 33.5859C50.7793 33.3828 50.4102 33.2812 49.957 33.2812C49.2891 33.2812 48.7988 33.502 48.4863 33.9434C48.1777 34.3848 48.0234 34.9961 48.0234 35.7773ZM58.7461 37.2422C58.7461 37.6523 58.6426 37.998 58.4355 38.2793C58.2324 38.5566 57.9395 38.7656 57.5566 38.9062C57.1777 39.0469 56.7246 39.1172 56.1973 39.1172C55.748 39.1172 55.3594 39.082 55.0312 39.0117C54.7031 38.9414 54.416 38.8418 54.1699 38.7129V37.8164C54.4316 37.9453 54.7441 38.0625 55.1074 38.168C55.4707 38.2734 55.8418 38.3262 56.2207 38.3262C56.7754 38.3262 57.1777 38.2363 57.4277 38.0566C57.6777 37.877 57.8027 37.6328 57.8027 37.3242C57.8027 37.1484 57.752 36.9941 57.6504 36.8613C57.5527 36.7246 57.3867 36.5938 57.1523 36.4688C56.918 36.3398 56.5938 36.1992 56.1797 36.0469C55.7695 35.8906 55.4141 35.7363 55.1133 35.584C54.8164 35.4277 54.5859 35.2383 54.4219 35.0156C54.2617 34.793 54.1816 34.5039 54.1816 34.1484C54.1816 33.6055 54.4004 33.1895 54.8379 32.9004C55.2793 32.6074 55.8574 32.4609 56.5723 32.4609C56.959 32.4609 57.3203 32.5 57.6562 32.5781C57.9961 32.6523 58.3125 32.7539 58.6055 32.8828L58.2773 33.6621C58.0117 33.5488 57.7285 33.4531 57.4277 33.375C57.127 33.2969 56.8203 33.2578 56.5078 33.2578C56.0586 33.2578 55.7129 33.332 55.4707 33.4805C55.2324 33.6289 55.1133 33.832 55.1133 34.0898C55.1133 34.2891 55.168 34.4531 55.2773 34.582C55.3906 34.7109 55.5703 34.832 55.8164 34.9453C56.0625 35.0586 56.3867 35.1914 56.7891 35.3438C57.1914 35.4922 57.5391 35.6465 57.832 35.8066C58.125 35.9629 58.3496 36.1543 58.5059 36.3809C58.666 36.6035 58.7461 36.8906 58.7461 37.2422ZM61.2832 32.5781V39H60.3105V32.5781H61.2832ZM60.8086 30.1758C60.9688 30.1758 61.1055 30.2285 61.2188 30.334C61.3359 30.4355 61.3945 30.5957 61.3945 30.8145C61.3945 31.0293 61.3359 31.1895 61.2188 31.2949C61.1055 31.4004 60.9688 31.4531 60.8086 31.4531C60.6406 31.4531 60.5 31.4004 60.3867 31.2949C60.2773 31.1895 60.2227 31.0293 60.2227 30.8145C60.2227 30.5957 60.2773 30.4355 60.3867 30.334C60.5 30.2285 60.6406 30.1758 60.8086 30.1758ZM65.4199 38.3203C65.5801 38.3203 65.7441 38.3066 65.9121 38.2793C66.0801 38.252 66.2168 38.2188 66.3223 38.1797V38.9355C66.209 38.9863 66.0508 39.0293 65.8477 39.0645C65.6484 39.0996 65.4531 39.1172 65.2617 39.1172C64.9219 39.1172 64.6133 39.0586 64.3359 38.9414C64.0586 38.8203 63.8359 38.6172 63.668 38.332C63.5039 38.0469 63.4219 37.6523 63.4219 37.1484V33.3398H62.5078V32.8652L63.4277 32.4844L63.8145 31.0898H64.4004V32.5781H66.2812V33.3398H64.4004V37.1191C64.4004 37.5215 64.4922 37.8223 64.6758 38.0215C64.8633 38.2207 65.1113 38.3203 65.4199 38.3203ZM68.5957 32.5781V39H67.623V32.5781H68.5957ZM68.1211 30.1758C68.2812 30.1758 68.418 30.2285 68.5312 30.334C68.6484 30.4355 68.707 30.5957 68.707 30.8145C68.707 31.0293 68.6484 31.1895 68.5312 31.2949C68.418 31.4004 68.2812 31.4531 68.1211 31.4531C67.9531 31.4531 67.8125 31.4004 67.6992 31.2949C67.5898 31.1895 67.5352 31.0293 67.5352 30.8145C67.5352 30.5957 67.5898 30.4355 67.6992 30.334C67.8125 30.2285 67.9531 30.1758 68.1211 30.1758ZM76.1953 35.7773C76.1953 36.3047 76.127 36.7754 75.9902 37.1895C75.8535 37.6035 75.6562 37.9531 75.3984 38.2383C75.1406 38.5234 74.8281 38.7422 74.4609 38.8945C74.0977 39.043 73.6855 39.1172 73.2246 39.1172C72.7949 39.1172 72.4004 39.043 72.041 38.8945C71.6855 38.7422 71.377 38.5234 71.1152 38.2383C70.8574 37.9531 70.6562 37.6035 70.5117 37.1895C70.3711 36.7754 70.3008 36.3047 70.3008 35.7773C70.3008 35.0742 70.4199 34.4766 70.6582 33.9844C70.8965 33.4883 71.2363 33.1113 71.6777 32.8535C72.123 32.5918 72.6523 32.4609 73.2656 32.4609C73.8516 32.4609 74.3633 32.5918 74.8008 32.8535C75.2422 33.1152 75.584 33.4941 75.8262 33.9902C76.0723 34.4824 76.1953 35.0781 76.1953 35.7773ZM71.3086 35.7773C71.3086 36.293 71.377 36.7402 71.5137 37.1191C71.6504 37.498 71.8613 37.791 72.1465 37.998C72.4316 38.2051 72.7988 38.3086 73.248 38.3086C73.6934 38.3086 74.0586 38.2051 74.3438 37.998C74.6328 37.791 74.8457 37.498 74.9824 37.1191C75.1191 36.7402 75.1875 36.293 75.1875 35.7773C75.1875 35.2656 75.1191 34.8242 74.9824 34.4531C74.8457 34.0781 74.6348 33.7891 74.3496 33.5859C74.0645 33.3828 73.6953 33.2812 73.2422 33.2812C72.5742 33.2812 72.084 33.502 71.7715 33.9434C71.4629 34.3848 71.3086 34.9961 71.3086 35.7773ZM80.918 32.4609C81.6797 32.4609 82.2559 32.6484 82.6465 33.0234C83.0371 33.3945 83.2324 33.9922 83.2324 34.8164V39H82.2715V34.8809C82.2715 34.3457 82.1484 33.9453 81.9023 33.6797C81.6602 33.4141 81.2871 33.2812 80.7832 33.2812C80.0723 33.2812 79.5723 33.4824 79.2832 33.8848C78.9941 34.2871 78.8496 34.8711 78.8496 35.6367V39H77.877V32.5781H78.6621L78.8086 33.5039H78.8613C78.998 33.2773 79.1719 33.0879 79.3828 32.9355C79.5938 32.7793 79.8301 32.6621 80.0918 32.584C80.3535 32.502 80.6289 32.4609 80.918 32.4609ZM40.998 48.5781V55H40.0254V48.5781H40.998ZM40.5234 46.1758C40.6836 46.1758 40.8203 46.2285 40.9336 46.334C41.0508 46.4355 41.1094 46.5957 41.1094 46.8145C41.1094 47.0293 41.0508 47.1895 40.9336 47.2949C40.8203 47.4004 40.6836 47.4531 40.5234 47.4531C40.3555 47.4531 40.2148 47.4004 40.1016 47.2949C39.9922 47.1895 39.9375 47.0293 39.9375 46.8145C39.9375 46.5957 39.9922 46.4355 40.1016 46.334C40.2148 46.2285 40.3555 46.1758 40.5234 46.1758ZM46.1016 48.4609C46.8633 48.4609 47.4395 48.6484 47.8301 49.0234C48.2207 49.3945 48.416 49.9922 48.416 50.8164V55H47.4551V50.8809C47.4551 50.3457 47.332 49.9453 47.0859 49.6797C46.8438 49.4141 46.4707 49.2812 45.9668 49.2812C45.2559 49.2812 44.7559 49.4824 44.4668 49.8848C44.1777 50.2871 44.0332 50.8711 44.0332 51.6367V55H43.0605V48.5781H43.8457L43.9922 49.5039H44.0449C44.1816 49.2773 44.3555 49.0879 44.5664 48.9355C44.7773 48.7793 45.0137 48.6621 45.2754 48.584C45.5371 48.502 45.8125 48.4609 46.1016 48.4609ZM54.5156 55H53.5371V45.8828H54.5156V55ZM57.5449 48.5781V55H56.5723V48.5781H57.5449ZM57.0703 46.1758C57.2305 46.1758 57.3672 46.2285 57.4805 46.334C57.5977 46.4355 57.6562 46.5957 57.6562 46.8145C57.6562 47.0293 57.5977 47.1895 57.4805 47.2949C57.3672 47.4004 57.2305 47.4531 57.0703 47.4531C56.9023 47.4531 56.7617 47.4004 56.6484 47.2949C56.5391 47.1895 56.4844 47.0293 56.4844 46.8145C56.4844 46.5957 56.5391 46.4355 56.6484 46.334C56.7617 46.2285 56.9023 46.1758 57.0703 46.1758ZM62.6484 48.4609C63.4102 48.4609 63.9863 48.6484 64.377 49.0234C64.7676 49.3945 64.9629 49.9922 64.9629 50.8164V55H64.002V50.8809C64.002 50.3457 63.8789 49.9453 63.6328 49.6797C63.3906 49.4141 63.0176 49.2812 62.5137 49.2812C61.8027 49.2812 61.3027 49.4824 61.0137 49.8848C60.7246 50.2871 60.5801 50.8711 60.5801 51.6367V55H59.6074V48.5781H60.3926L60.5391 49.5039H60.5918C60.7285 49.2773 60.9023 49.0879 61.1133 48.9355C61.3242 48.7793 61.5605 48.6621 61.8223 48.584C62.084 48.502 62.3594 48.4609 62.6484 48.4609ZM69.4395 48.4609C69.9863 48.4609 70.4551 48.582 70.8457 48.8242C71.2363 49.0664 71.5352 49.4062 71.7422 49.8438C71.9492 50.2773 72.0527 50.7852 72.0527 51.3672V51.9707H67.6172C67.6289 52.7246 67.8164 53.2988 68.1797 53.6934C68.543 54.0879 69.0547 54.2852 69.7148 54.2852C70.1211 54.2852 70.4805 54.248 70.793 54.1738C71.1055 54.0996 71.4297 53.9902 71.7656 53.8457V54.7012C71.4414 54.8457 71.1191 54.9512 70.7988 55.0176C70.4824 55.084 70.1074 55.1172 69.6738 55.1172C69.0566 55.1172 68.5176 54.9922 68.0566 54.7422C67.5996 54.4883 67.2441 54.1172 66.9902 53.6289C66.7363 53.1406 66.6094 52.543 66.6094 51.8359C66.6094 51.1445 66.7246 50.5469 66.9551 50.043C67.1895 49.5352 67.5176 49.1445 67.9395 48.8711C68.3652 48.5977 68.8652 48.4609 69.4395 48.4609ZM69.4277 49.2578C68.9082 49.2578 68.4941 49.4277 68.1855 49.7676C67.877 50.1074 67.6934 50.582 67.6348 51.1914H71.0332C71.0293 50.8086 70.9688 50.4727 70.8516 50.1836C70.7383 49.8906 70.5645 49.6641 70.3301 49.5039C70.0957 49.3398 69.7949 49.2578 69.4277 49.2578Z" fill="white"/>
</svg>
