<svg width="40" height="28" viewBox="0 0 40 28" fill="none" xmlns="http://www.w3.org/2000/svg">
<path d="M7.99805 2.46094C8.70508 2.46094 9.23828 2.64648 9.59766 3.01758C9.95703 3.38477 10.1367 3.97656 10.1367 4.79297V9H9.17578V4.83984C9.17578 4.32031 9.0625 3.93164 8.83594 3.67383C8.61328 3.41211 8.28125 3.28125 7.83984 3.28125C7.21875 3.28125 6.76758 3.46094 6.48633 3.82031C6.20508 4.17969 6.06445 4.70898 6.06445 5.4082V9H5.09766V4.83984C5.09766 4.49219 5.04688 4.20312 4.94531 3.97266C4.84766 3.74219 4.69922 3.57031 4.5 3.45703C4.30469 3.33984 4.05664 3.28125 3.75586 3.28125C3.33008 3.28125 2.98828 3.36914 2.73047 3.54492C2.47266 3.7207 2.28516 3.98242 2.16797 4.33008C2.05469 4.67383 1.99805 5.09766 1.99805 5.60156V9H1.02539V2.57812H1.81055L1.95703 3.48633H2.00977C2.13867 3.26367 2.30078 3.07617 2.49609 2.92383C2.69141 2.77148 2.91016 2.65625 3.15234 2.57812C3.39453 2.5 3.65234 2.46094 3.92578 2.46094C4.41406 2.46094 4.82227 2.55273 5.15039 2.73633C5.48242 2.91602 5.72266 3.19141 5.87109 3.5625H5.92383C6.13477 3.19141 6.42383 2.91602 6.79102 2.73633C7.1582 2.55273 7.56055 2.46094 7.99805 2.46094ZM13.1074 2.57812V9H12.1348V2.57812H13.1074ZM12.6328 0.175781C12.793 0.175781 12.9297 0.228516 13.043 0.333984C13.1602 0.435547 13.2188 0.595703 13.2188 0.814453C13.2188 1.0293 13.1602 1.18945 13.043 1.29492C12.9297 1.40039 12.793 1.45312 12.6328 1.45312C12.4648 1.45312 12.3242 1.40039 12.2109 1.29492C12.1016 1.18945 12.0469 1.0293 12.0469 0.814453C12.0469 0.595703 12.1016 0.435547 12.2109 0.333984C12.3242 0.228516 12.4648 0.175781 12.6328 0.175781ZM18.2109 2.46094C18.9727 2.46094 19.5488 2.64844 19.9395 3.02344C20.3301 3.39453 20.5254 3.99219 20.5254 4.81641V9H19.5645V4.88086C19.5645 4.3457 19.4414 3.94531 19.1953 3.67969C18.9531 3.41406 18.5801 3.28125 18.0762 3.28125C17.3652 3.28125 16.8652 3.48242 16.5762 3.88477C16.2871 4.28711 16.1426 4.87109 16.1426 5.63672V9H15.1699V2.57812H15.9551L16.1016 3.50391H16.1543C16.291 3.27734 16.4648 3.08789 16.6758 2.93555C16.8867 2.7793 17.123 2.66211 17.3848 2.58398C17.6465 2.50195 17.9219 2.46094 18.2109 2.46094ZM27.832 2.57812V9H27.0352L26.8945 8.09766H26.8418C26.709 8.32031 26.5371 8.50781 26.3262 8.66016C26.1152 8.8125 25.877 8.92578 25.6113 9C25.3496 9.07812 25.0703 9.11719 24.7734 9.11719C24.2656 9.11719 23.8398 9.03516 23.4961 8.87109C23.1523 8.70703 22.8926 8.45312 22.7168 8.10938C22.5449 7.76562 22.459 7.32422 22.459 6.78516V2.57812H23.4434V6.71484C23.4434 7.25 23.5645 7.65039 23.8066 7.91602C24.0488 8.17773 24.418 8.30859 24.9141 8.30859C25.3906 8.30859 25.7695 8.21875 26.0508 8.03906C26.3359 7.85938 26.541 7.5957 26.666 7.24805C26.791 6.89648 26.8535 6.4668 26.8535 5.95898V2.57812H27.832ZM31.9629 8.32031C32.123 8.32031 32.2871 8.30664 32.4551 8.2793C32.623 8.25195 32.7598 8.21875 32.8652 8.17969V8.93555C32.752 8.98633 32.5938 9.0293 32.3906 9.06445C32.1914 9.09961 31.9961 9.11719 31.8047 9.11719C31.4648 9.11719 31.1562 9.05859 30.8789 8.94141C30.6016 8.82031 30.3789 8.61719 30.2109 8.33203C30.0469 8.04688 29.9648 7.65234 29.9648 7.14844V3.33984H29.0508V2.86523L29.9707 2.48438L30.3574 1.08984H30.9434V2.57812H32.8242V3.33984H30.9434V7.11914C30.9434 7.52148 31.0352 7.82227 31.2188 8.02148C31.4062 8.2207 31.6543 8.32031 31.9629 8.32031ZM36.6387 2.46094C37.1855 2.46094 37.6543 2.58203 38.0449 2.82422C38.4355 3.06641 38.7344 3.40625 38.9414 3.84375C39.1484 4.27734 39.252 4.78516 39.252 5.36719V5.9707H34.8164C34.8281 6.72461 35.0156 7.29883 35.3789 7.69336C35.7422 8.08789 36.2539 8.28516 36.9141 8.28516C37.3203 8.28516 37.6797 8.24805 37.9922 8.17383C38.3047 8.09961 38.6289 7.99023 38.9648 7.8457V8.70117C38.6406 8.8457 38.3184 8.95117 37.998 9.01758C37.6816 9.08398 37.3066 9.11719 36.873 9.11719C36.2559 9.11719 35.7168 8.99219 35.2559 8.74219C34.7988 8.48828 34.4434 8.11719 34.1895 7.62891C33.9355 7.14062 33.8086 6.54297 33.8086 5.83594C33.8086 5.14453 33.9238 4.54688 34.1543 4.04297C34.3887 3.53516 34.7168 3.14453 35.1387 2.87109C35.5645 2.59766 36.0645 2.46094 36.6387 2.46094ZM36.627 3.25781C36.1074 3.25781 35.6934 3.42773 35.3848 3.76758C35.0762 4.10742 34.8926 4.58203 34.834 5.19141H38.2324C38.2285 4.80859 38.168 4.47266 38.0508 4.18359C37.9375 3.89062 37.7637 3.66406 37.5293 3.50391C37.2949 3.33984 36.9941 3.25781 36.627 3.25781ZM6.25195 24.9883L5.10938 21.25C5.05859 21.0898 5.00977 20.9336 4.96289 20.7812C4.91992 20.625 4.87891 20.4766 4.83984 20.3359C4.80469 20.1914 4.77148 20.0586 4.74023 19.9375C4.71289 19.8125 4.68945 19.7051 4.66992 19.6152H4.62891C4.61328 19.7051 4.5918 19.8125 4.56445 19.9375C4.53711 20.0586 4.50391 20.1914 4.46484 20.3359C4.42969 20.4805 4.39062 20.6328 4.34766 20.793C4.30469 20.9492 4.25586 21.1074 4.20117 21.2676L3.00586 24.9883H1.91016L0.140625 18.5664H1.14844L2.07422 22.1113C2.13672 22.3457 2.19531 22.5781 2.25 22.8086C2.30859 23.0352 2.35742 23.25 2.39648 23.4531C2.43945 23.6523 2.4707 23.8262 2.49023 23.9746H2.53711C2.56055 23.877 2.58594 23.7598 2.61328 23.623C2.64453 23.4863 2.67773 23.3418 2.71289 23.1895C2.75195 23.0332 2.79297 22.8789 2.83594 22.7266C2.87891 22.5703 2.92188 22.4238 2.96484 22.2871L4.14844 18.5664H5.19727L6.33984 22.2812C6.39844 22.4688 6.45508 22.6641 6.50977 22.8672C6.56836 23.0703 6.62109 23.2676 6.66797 23.459C6.71484 23.6465 6.74805 23.8145 6.76758 23.9629H6.81445C6.83008 23.8301 6.85938 23.666 6.90234 23.4707C6.94531 23.2754 6.99414 23.0605 7.04883 22.8262C7.10742 22.5918 7.16797 22.3535 7.23047 22.1113L8.16797 18.5664H9.1582L7.38281 24.9883H6.25195ZM12.7324 18.4727C13.498 18.4727 14.0664 18.6445 14.4375 18.9883C14.8086 19.332 14.9941 19.8809 14.9941 20.6348V25H14.2852L14.0977 24.0508H14.0508C13.8711 24.2852 13.6836 24.4824 13.4883 24.6426C13.293 24.7988 13.0664 24.918 12.8086 25C12.5547 25.0781 12.2422 25.1172 11.8711 25.1172C11.4805 25.1172 11.1328 25.0488 10.8281 24.9121C10.5273 24.7754 10.2891 24.5684 10.1133 24.291C9.94141 24.0137 9.85547 23.6621 9.85547 23.2363C9.85547 22.5957 10.1094 22.1035 10.6172 21.7598C11.125 21.416 11.8984 21.2285 12.9375 21.1973L14.0449 21.1504V20.7578C14.0449 20.2031 13.9258 19.8145 13.6875 19.5918C13.4492 19.3691 13.1133 19.2578 12.6797 19.2578C12.3438 19.2578 12.0234 19.3066 11.7188 19.4043C11.4141 19.502 11.125 19.6172 10.8516 19.75L10.5527 19.0117C10.8418 18.8633 11.1738 18.7363 11.5488 18.6309C11.9238 18.5254 12.3184 18.4727 12.7324 18.4727ZM14.0332 21.8359L13.0547 21.877C12.2539 21.9082 11.6895 22.0391 11.3613 22.2695C11.0332 22.5 10.8691 22.8262 10.8691 23.248C10.8691 23.6152 10.9805 23.8867 11.2031 24.0625C11.4258 24.2383 11.7207 24.3262 12.0879 24.3262C12.6582 24.3262 13.125 24.168 13.4883 23.8516C13.8516 23.5352 14.0332 23.0605 14.0332 22.4277V21.8359ZM17.9707 18.5781V25H16.998V18.5781H17.9707ZM17.4961 16.1758C17.6562 16.1758 17.793 16.2285 17.9062 16.334C18.0234 16.4355 18.082 16.5957 18.082 16.8145C18.082 17.0293 18.0234 17.1895 17.9062 17.2949C17.793 17.4004 17.6562 17.4531 17.4961 17.4531C17.3281 17.4531 17.1875 17.4004 17.0742 17.2949C16.9648 17.1895 16.9102 17.0293 16.9102 16.8145C16.9102 16.5957 16.9648 16.4355 17.0742 16.334C17.1875 16.2285 17.3281 16.1758 17.4961 16.1758ZM22.1074 24.3203C22.2676 24.3203 22.4316 24.3066 22.5996 24.2793C22.7676 24.252 22.9043 24.2188 23.0098 24.1797V24.9355C22.8965 24.9863 22.7383 25.0293 22.5352 25.0645C22.3359 25.0996 22.1406 25.1172 21.9492 25.1172C21.6094 25.1172 21.3008 25.0586 21.0234 24.9414C20.7461 24.8203 20.5234 24.6172 20.3555 24.332C20.1914 24.0469 20.1094 23.6523 20.1094 23.1484V19.3398H19.1953V18.8652L20.1152 18.4844L20.502 17.0898H21.0879V18.5781H22.9688V19.3398H21.0879V23.1191C21.0879 23.5215 21.1797 23.8223 21.3633 24.0215C21.5508 24.2207 21.7988 24.3203 22.1074 24.3203ZM25.2832 18.5781V25H24.3105V18.5781H25.2832ZM24.8086 16.1758C24.9688 16.1758 25.1055 16.2285 25.2188 16.334C25.3359 16.4355 25.3945 16.5957 25.3945 16.8145C25.3945 17.0293 25.3359 17.1895 25.2188 17.2949C25.1055 17.4004 24.9688 17.4531 24.8086 17.4531C24.6406 17.4531 24.5 17.4004 24.3867 17.2949C24.2773 17.1895 24.2227 17.0293 24.2227 16.8145C24.2227 16.5957 24.2773 16.4355 24.3867 16.334C24.5 16.2285 24.6406 16.1758 24.8086 16.1758ZM30.3867 18.4609C31.1484 18.4609 31.7246 18.6484 32.1152 19.0234C32.5059 19.3945 32.7012 19.9922 32.7012 20.8164V25H31.7402V20.8809C31.7402 20.3457 31.6172 19.9453 31.3711 19.6797C31.1289 19.4141 30.7559 19.2812 30.252 19.2812C29.541 19.2812 29.041 19.4824 28.752 19.8848C28.4629 20.2871 28.3184 20.8711 28.3184 21.6367V25H27.3457V18.5781H28.1309L28.2773 19.5039H28.3301C28.4668 19.2773 28.6406 19.0879 28.8516 18.9355C29.0625 18.7793 29.2988 18.6621 29.5605 18.584C29.8223 18.502 30.0977 18.4609 30.3867 18.4609ZM36.498 27.8828C35.6543 27.8828 35.0039 27.7246 34.5469 27.4082C34.0898 27.0957 33.8613 26.6562 33.8613 26.0898C33.8613 25.6875 33.9883 25.3438 34.2422 25.0586C34.5 24.7734 34.8555 24.584 35.3086 24.4902C35.1406 24.4121 34.9961 24.2949 34.875 24.1387C34.7578 23.9824 34.6992 23.8027 34.6992 23.5996C34.6992 23.3652 34.7637 23.1602 34.8926 22.9844C35.0254 22.8047 35.2266 22.6328 35.4961 22.4688C35.1602 22.332 34.8867 22.1016 34.6758 21.7773C34.4688 21.4492 34.3652 21.0684 34.3652 20.6348C34.3652 20.1738 34.4609 19.7812 34.6523 19.457C34.8438 19.1289 35.1211 18.8789 35.4844 18.707C35.8477 18.5352 36.2871 18.4492 36.8027 18.4492C36.916 18.4492 37.0293 18.4551 37.1426 18.4668C37.2598 18.4746 37.3711 18.4883 37.4766 18.5078C37.582 18.5234 37.6738 18.543 37.752 18.5664H39.9551V19.1934L38.7715 19.3398C38.8887 19.4922 38.9863 19.6758 39.0645 19.8906C39.1426 20.1055 39.1816 20.3438 39.1816 20.6055C39.1816 21.2461 38.9648 21.7559 38.5312 22.1348C38.0977 22.5098 37.502 22.6973 36.7441 22.6973C36.5645 22.6973 36.3809 22.6816 36.1934 22.6504C36.002 22.7559 35.8555 22.873 35.7539 23.002C35.6562 23.1309 35.6074 23.2793 35.6074 23.4473C35.6074 23.5723 35.6445 23.6719 35.7188 23.7461C35.7969 23.8203 35.9082 23.875 36.0527 23.9102C36.1973 23.9414 36.3711 23.957 36.5742 23.957H37.7051C38.4043 23.957 38.9395 24.1035 39.3105 24.3965C39.6855 24.6895 39.873 25.1172 39.873 25.6797C39.873 26.3906 39.584 26.9355 39.0059 27.3145C38.4277 27.6934 37.5918 27.8828 36.498 27.8828ZM36.5273 27.1211C37.0586 27.1211 37.498 27.0664 37.8457 26.957C38.1973 26.8516 38.459 26.6973 38.6309 26.4941C38.8066 26.2949 38.8945 26.0566 38.8945 25.7793C38.8945 25.5215 38.8359 25.3262 38.7188 25.1934C38.6016 25.0645 38.4297 24.9785 38.2031 24.9355C37.9766 24.8887 37.6992 24.8652 37.3711 24.8652H36.2578C35.9688 24.8652 35.7168 24.9102 35.502 25C35.2871 25.0898 35.1211 25.2227 35.0039 25.3984C34.8906 25.5742 34.834 25.793 34.834 26.0547C34.834 26.4023 34.9805 26.666 35.2734 26.8457C35.5664 27.0293 35.9844 27.1211 36.5273 27.1211ZM36.7793 21.9883C37.2441 21.9883 37.5938 21.8711 37.8281 21.6367C38.0625 21.4023 38.1797 21.0605 38.1797 20.6113C38.1797 20.1309 38.0605 19.7715 37.8223 19.5332C37.584 19.291 37.2324 19.1699 36.7676 19.1699C36.3223 19.1699 35.9785 19.2949 35.7363 19.5449C35.498 19.791 35.3789 20.1523 35.3789 20.6289C35.3789 21.0664 35.5 21.4023 35.7422 21.6367C35.9844 21.8711 36.3301 21.9883 36.7793 21.9883Z" fill="white"/>
</svg>
