<svg width="44" height="68" viewBox="0 0 44 68" fill="none" xmlns="http://www.w3.org/2000/svg">
<rect x="0.375" y="0.375" width="43.25" height="43.25" rx="9.625" fill="white"/>
<path d="M28.92 16.01C28.72 15.42 28.16 15 27.5 15H16.5C15.84 15 15.29 15.42 15.08 16.01L13 22V29.5C13 30.33 13.67 31 14.5 31C15.33 31 16 30.33 16 29.5V29H28V29.5C28 30.32 28.67 31 29.5 31C30.32 31 31 30.33 31 29.5V22L28.92 16.01ZM17.5 26C16.67 26 16 25.33 16 24.5C16 23.67 16.67 23 17.5 23C18.33 23 19 23.67 19 24.5C19 25.33 18.33 26 17.5 26ZM26.5 26C25.67 26 25 25.33 25 24.5C25 23.67 25.67 23 26.5 23C27.33 23 28 23.67 28 24.5C28 25.33 27.33 26 26.5 26ZM15.81 20L16.85 17H27.14L28.18 20H15.81Z" fill="#FA3022"/>
<rect x="0.375" y="0.375" width="43.25" height="43.25" rx="9.625" stroke="#FA3022" stroke-width="0.75"/>
<path d="M4.69922 65L8.21484 57.3242H3.54492V56.4336H9.25781V57.1836L5.76562 65H4.69922ZM20.9824 58.4609C21.6895 58.4609 22.2227 58.6465 22.582 59.0176C22.9414 59.3848 23.1211 59.9766 23.1211 60.793V65H22.1602V60.8398C22.1602 60.3203 22.0469 59.9316 21.8203 59.6738C21.5977 59.4121 21.2656 59.2812 20.8242 59.2812C20.2031 59.2812 19.752 59.4609 19.4707 59.8203C19.1895 60.1797 19.0488 60.709 19.0488 61.4082V65H18.082V60.8398C18.082 60.4922 18.0312 60.2031 17.9297 59.9727C17.832 59.7422 17.6836 59.5703 17.4844 59.457C17.2891 59.3398 17.041 59.2812 16.7402 59.2812C16.3145 59.2812 15.9727 59.3691 15.7148 59.5449C15.457 59.7207 15.2695 59.9824 15.1523 60.3301C15.0391 60.6738 14.9824 61.0977 14.9824 61.6016V65H14.0098V58.5781H14.7949L14.9414 59.4863H14.9941C15.123 59.2637 15.2852 59.0762 15.4805 58.9238C15.6758 58.7715 15.8945 58.6562 16.1367 58.5781C16.3789 58.5 16.6367 58.4609 16.9102 58.4609C17.3984 58.4609 17.8066 58.5527 18.1348 58.7363C18.4668 58.916 18.707 59.1914 18.8555 59.5625H18.9082C19.1191 59.1914 19.4082 58.916 19.7754 58.7363C20.1426 58.5527 20.5449 58.4609 20.9824 58.4609ZM26.0918 58.5781V65H25.1191V58.5781H26.0918ZM25.6172 56.1758C25.7773 56.1758 25.9141 56.2285 26.0273 56.334C26.1445 56.4355 26.2031 56.5957 26.2031 56.8145C26.2031 57.0293 26.1445 57.1895 26.0273 57.2949C25.9141 57.4004 25.7773 57.4531 25.6172 57.4531C25.4492 57.4531 25.3086 57.4004 25.1953 57.2949C25.0859 57.1895 25.0312 57.0293 25.0312 56.8145C25.0312 56.5957 25.0859 56.4355 25.1953 56.334C25.3086 56.2285 25.4492 56.1758 25.6172 56.1758ZM31.1953 58.4609C31.957 58.4609 32.5332 58.6484 32.9238 59.0234C33.3145 59.3945 33.5098 59.9922 33.5098 60.8164V65H32.5488V60.8809C32.5488 60.3457 32.4258 59.9453 32.1797 59.6797C31.9375 59.4141 31.5645 59.2812 31.0605 59.2812C30.3496 59.2812 29.8496 59.4824 29.5605 59.8848C29.2715 60.2871 29.127 60.8711 29.127 61.6367V65H28.1543V58.5781H28.9395L29.0859 59.5039H29.1387C29.2754 59.2773 29.4492 59.0879 29.6602 58.9355C29.8711 58.7793 30.1074 58.6621 30.3691 58.584C30.6309 58.502 30.9062 58.4609 31.1953 58.4609ZM39.668 63.2422C39.668 63.6523 39.5645 63.998 39.3574 64.2793C39.1543 64.5566 38.8613 64.7656 38.4785 64.9062C38.0996 65.0469 37.6465 65.1172 37.1191 65.1172C36.6699 65.1172 36.2812 65.082 35.9531 65.0117C35.625 64.9414 35.3379 64.8418 35.0918 64.7129V63.8164C35.3535 63.9453 35.666 64.0625 36.0293 64.168C36.3926 64.2734 36.7637 64.3262 37.1426 64.3262C37.6973 64.3262 38.0996 64.2363 38.3496 64.0566C38.5996 63.877 38.7246 63.6328 38.7246 63.3242C38.7246 63.1484 38.6738 62.9941 38.5723 62.8613C38.4746 62.7246 38.3086 62.5938 38.0742 62.4688C37.8398 62.3398 37.5156 62.1992 37.1016 62.0469C36.6914 61.8906 36.3359 61.7363 36.0352 61.584C35.7383 61.4277 35.5078 61.2383 35.3438 61.0156C35.1836 60.793 35.1035 60.5039 35.1035 60.1484C35.1035 59.6055 35.3223 59.1895 35.7598 58.9004C36.2012 58.6074 36.7793 58.4609 37.4941 58.4609C37.8809 58.4609 38.2422 58.5 38.5781 58.5781C38.918 58.6523 39.2344 58.7539 39.5273 58.8828L39.1992 59.6621C38.9336 59.5488 38.6504 59.4531 38.3496 59.375C38.0488 59.2969 37.7422 59.2578 37.4297 59.2578C36.9805 59.2578 36.6348 59.332 36.3926 59.4805C36.1543 59.6289 36.0352 59.832 36.0352 60.0898C36.0352 60.2891 36.0898 60.4531 36.1992 60.582C36.3125 60.7109 36.4922 60.832 36.7383 60.9453C36.9844 61.0586 37.3086 61.1914 37.7109 61.3438C38.1133 61.4922 38.4609 61.6465 38.7539 61.8066C39.0469 61.9629 39.2715 62.1543 39.4277 62.3809C39.5879 62.6035 39.668 62.8906 39.668 63.2422Z" fill="black"/>
</svg>
