<svg width="45" height="68" viewBox="0 0 45 68" fill="none" xmlns="http://www.w3.org/2000/svg">
<path d="M17.5 33L20.3 18.9L18.5 19.6V23H16.5V18.3L21.55 16.15C21.7833 16.05 22.0293 15.9917 22.288 15.975C22.546 15.9583 22.7917 15.9917 23.025 16.075C23.2583 16.1583 23.4793 16.275 23.688 16.425C23.896 16.575 24.0667 16.7667 24.2 17L25.2 18.6C25.6333 19.3 26.2207 19.875 26.962 20.325C27.704 20.775 28.55 21 29.5 21V23C28.3333 23 27.2917 22.7583 26.375 22.275C25.4583 21.7917 24.675 21.175 24.025 20.425L23.4 23.5L25.5 25.5V33H23.5V26.5L21.4 24.9L19.6 33H17.5ZM24 15.5C23.45 15.5 22.9793 15.304 22.588 14.912C22.196 14.5207 22 14.05 22 13.5C22 12.95 22.196 12.479 22.588 12.087C22.9793 11.6957 23.45 11.5 24 11.5C24.55 11.5 25.021 11.6957 25.413 12.087C25.8043 12.479 26 12.95 26 13.5C26 14.05 25.8043 14.5207 25.413 14.912C25.021 15.304 24.55 15.5 24 15.5Z" fill="#FA3022"/>
<rect x="1" y="0.5" width="43" height="43" rx="9.5" stroke="#FA3022"/>
<path d="M5.88867 58.4316C5.88867 58.8145 5.81445 59.1465 5.66602 59.4277C5.51758 59.709 5.31055 59.9395 5.04492 60.1191C4.7793 60.2949 4.4668 60.418 4.10742 60.4883V60.5352C4.78711 60.6211 5.29688 60.8398 5.63672 61.1914C5.98047 61.543 6.15234 62.0039 6.15234 62.5742C6.15234 63.0703 6.03516 63.5098 5.80078 63.8926C5.57031 64.2754 5.21484 64.5762 4.73438 64.7949C4.25781 65.0098 3.64648 65.1172 2.90039 65.1172C2.44727 65.1172 2.02734 65.0801 1.64062 65.0059C1.25781 64.9355 0.890625 64.8164 0.539062 64.6484V63.7344C0.894531 63.9102 1.28125 64.0488 1.69922 64.1504C2.11719 64.248 2.52148 64.2969 2.91211 64.2969C3.69336 64.2969 4.25781 64.1426 4.60547 63.834C4.95312 63.5215 5.12695 63.0957 5.12695 62.5566C5.12695 62.1855 5.0293 61.8867 4.83398 61.6602C4.64258 61.4297 4.36523 61.2617 4.00195 61.1562C3.64258 61.0469 3.20898 60.9922 2.70117 60.9922H1.8457V60.1602H2.70703C3.17188 60.1602 3.56641 60.0918 3.89062 59.9551C4.21484 59.8184 4.46094 59.627 4.62891 59.3809C4.80078 59.1309 4.88672 58.8359 4.88672 58.4961C4.88672 58.0625 4.74219 57.7285 4.45312 57.4941C4.16406 57.2559 3.77148 57.1367 3.27539 57.1367C2.9707 57.1367 2.69336 57.168 2.44336 57.2305C2.19336 57.293 1.95898 57.3789 1.74023 57.4883C1.52148 57.5977 1.30273 57.7246 1.08398 57.8691L0.591797 57.2012C0.904297 56.959 1.28516 56.75 1.73438 56.5742C2.18359 56.3984 2.69336 56.3105 3.26367 56.3105C4.13867 56.3105 4.79492 56.5098 5.23242 56.9082C5.66992 57.3066 5.88867 57.8145 5.88867 58.4316ZM13.1191 60.7051C13.1191 61.4004 13.0664 62.0215 12.9609 62.5684C12.8555 63.1152 12.6895 63.5781 12.4629 63.957C12.2363 64.3359 11.9434 64.625 11.584 64.8242C11.2246 65.0195 10.793 65.1172 10.2891 65.1172C9.65234 65.1172 9.125 64.9434 8.70703 64.5957C8.29297 64.248 7.98242 63.7461 7.77539 63.0898C7.57227 62.4297 7.4707 61.6348 7.4707 60.7051C7.4707 59.791 7.5625 59.0059 7.74609 58.3496C7.93359 57.6895 8.23438 57.1836 8.64844 56.832C9.0625 56.4766 9.60938 56.2988 10.2891 56.2988C10.9336 56.2988 11.4648 56.4746 11.8828 56.8262C12.3008 57.1738 12.6113 57.6777 12.8145 58.3379C13.0176 58.9941 13.1191 59.7832 13.1191 60.7051ZM8.44922 60.7051C8.44922 61.502 8.50977 62.166 8.63086 62.6973C8.75195 63.2285 8.94727 63.627 9.2168 63.8926C9.49023 64.1543 9.84766 64.2852 10.2891 64.2852C10.7305 64.2852 11.0859 64.1543 11.3555 63.8926C11.6289 63.6309 11.8262 63.2344 11.9473 62.7031C12.0723 62.1719 12.1348 61.5059 12.1348 60.7051C12.1348 59.9199 12.0742 59.2637 11.9531 58.7363C11.832 58.2051 11.6367 57.8066 11.3672 57.541C11.0977 57.2715 10.7383 57.1367 10.2891 57.1367C9.83984 57.1367 9.48047 57.2715 9.21094 57.541C8.94141 57.8066 8.74609 58.2051 8.625 58.7363C8.50781 59.2637 8.44922 59.9199 8.44922 60.7051ZM24.8496 58.4609C25.5566 58.4609 26.0898 58.6465 26.4492 59.0176C26.8086 59.3848 26.9883 59.9766 26.9883 60.793V65H26.0273V60.8398C26.0273 60.3203 25.9141 59.9316 25.6875 59.6738C25.4648 59.4121 25.1328 59.2812 24.6914 59.2812C24.0703 59.2812 23.6191 59.4609 23.3379 59.8203C23.0566 60.1797 22.916 60.709 22.916 61.4082V65H21.9492V60.8398C21.9492 60.4922 21.8984 60.2031 21.7969 59.9727C21.6992 59.7422 21.5508 59.5703 21.3516 59.457C21.1562 59.3398 20.9082 59.2812 20.6074 59.2812C20.1816 59.2812 19.8398 59.3691 19.582 59.5449C19.3242 59.7207 19.1367 59.9824 19.0195 60.3301C18.9062 60.6738 18.8496 61.0977 18.8496 61.6016V65H17.877V58.5781H18.6621L18.8086 59.4863H18.8613C18.9902 59.2637 19.1523 59.0762 19.3477 58.9238C19.543 58.7715 19.7617 58.6562 20.0039 58.5781C20.2461 58.5 20.5039 58.4609 20.7773 58.4609C21.2656 58.4609 21.6738 58.5527 22.002 58.7363C22.334 58.916 22.5742 59.1914 22.7227 59.5625H22.7754C22.9863 59.1914 23.2754 58.916 23.6426 58.7363C24.0098 58.5527 24.4121 58.4609 24.8496 58.4609ZM29.959 58.5781V65H28.9863V58.5781H29.959ZM29.4844 56.1758C29.6445 56.1758 29.7812 56.2285 29.8945 56.334C30.0117 56.4355 30.0703 56.5957 30.0703 56.8145C30.0703 57.0293 30.0117 57.1895 29.8945 57.2949C29.7812 57.4004 29.6445 57.4531 29.4844 57.4531C29.3164 57.4531 29.1758 57.4004 29.0625 57.2949C28.9531 57.1895 28.8984 57.0293 28.8984 56.8145C28.8984 56.5957 28.9531 56.4355 29.0625 56.334C29.1758 56.2285 29.3164 56.1758 29.4844 56.1758ZM35.0625 58.4609C35.8242 58.4609 36.4004 58.6484 36.791 59.0234C37.1816 59.3945 37.377 59.9922 37.377 60.8164V65H36.416V60.8809C36.416 60.3457 36.293 59.9453 36.0469 59.6797C35.8047 59.4141 35.4316 59.2812 34.9277 59.2812C34.2168 59.2812 33.7168 59.4824 33.4277 59.8848C33.1387 60.2871 32.9941 60.8711 32.9941 61.6367V65H32.0215V58.5781H32.8066L32.9531 59.5039H33.0059C33.1426 59.2773 33.3164 59.0879 33.5273 58.9355C33.7383 58.7793 33.9746 58.6621 34.2363 58.584C34.498 58.502 34.7734 58.4609 35.0625 58.4609ZM43.5352 63.2422C43.5352 63.6523 43.4316 63.998 43.2246 64.2793C43.0215 64.5566 42.7285 64.7656 42.3457 64.9062C41.9668 65.0469 41.5137 65.1172 40.9863 65.1172C40.5371 65.1172 40.1484 65.082 39.8203 65.0117C39.4922 64.9414 39.2051 64.8418 38.959 64.7129V63.8164C39.2207 63.9453 39.5332 64.0625 39.8965 64.168C40.2598 64.2734 40.6309 64.3262 41.0098 64.3262C41.5645 64.3262 41.9668 64.2363 42.2168 64.0566C42.4668 63.877 42.5918 63.6328 42.5918 63.3242C42.5918 63.1484 42.541 62.9941 42.4395 62.8613C42.3418 62.7246 42.1758 62.5938 41.9414 62.4688C41.707 62.3398 41.3828 62.1992 40.9688 62.0469C40.5586 61.8906 40.2031 61.7363 39.9023 61.584C39.6055 61.4277 39.375 61.2383 39.2109 61.0156C39.0508 60.793 38.9707 60.5039 38.9707 60.1484C38.9707 59.6055 39.1895 59.1895 39.627 58.9004C40.0684 58.6074 40.6465 58.4609 41.3613 58.4609C41.748 58.4609 42.1094 58.5 42.4453 58.5781C42.7852 58.6523 43.1016 58.7539 43.3945 58.8828L43.0664 59.6621C42.8008 59.5488 42.5176 59.4531 42.2168 59.375C41.916 59.2969 41.6094 59.2578 41.2969 59.2578C40.8477 59.2578 40.502 59.332 40.2598 59.4805C40.0215 59.6289 39.9023 59.832 39.9023 60.0898C39.9023 60.2891 39.957 60.4531 40.0664 60.582C40.1797 60.7109 40.3594 60.832 40.6055 60.9453C40.8516 61.0586 41.1758 61.1914 41.5781 61.3438C41.9805 61.4922 42.3281 61.6465 42.6211 61.8066C42.9141 61.9629 43.1387 62.1543 43.2949 62.3809C43.4551 62.6035 43.5352 62.8906 43.5352 63.2422Z" fill="black"/>
</svg>
