<svg width="109" height="58" viewBox="0 0 109 58" fill="none" xmlns="http://www.w3.org/2000/svg">
<path d="M25.9482 25.29C25.9482 26.9339 25.6064 28.3581 24.9229 29.5625C24.2393 30.7669 23.3115 31.7516 22.1396 32.5166C20.984 33.2816 19.682 33.8431 18.2334 34.2012V34.3477C21.098 34.7057 23.2708 35.5846 24.752 36.9844C26.2493 38.3841 26.998 40.2559 26.998 42.5996C26.998 44.6829 26.4854 46.5465 25.46 48.1904C24.4508 49.8343 22.8883 51.1283 20.7725 52.0723C18.6566 53.0163 15.9303 53.4883 12.5938 53.4883C10.6243 53.4883 8.78516 53.3255 7.07617 53C5.38346 52.6908 3.78841 52.2106 2.29102 51.5596V45.1387C3.82096 45.9199 5.42415 46.514 7.10059 46.9209C8.77702 47.3115 10.3395 47.5068 11.7881 47.5068C14.4899 47.5068 16.3779 47.043 17.4521 46.1152C18.5426 45.1712 19.0879 43.8529 19.0879 42.1602C19.0879 41.1673 18.8356 40.3291 18.3311 39.6455C17.8265 38.9619 16.9476 38.4411 15.6943 38.083C14.4574 37.7249 12.724 37.5459 10.4941 37.5459H7.78418V31.7598H10.543C12.7402 31.7598 14.4085 31.5563 15.5479 31.1494C16.7035 30.7262 17.4847 30.1566 17.8916 29.4404C18.3148 28.708 18.5264 27.8779 18.5264 26.9502C18.5264 25.6807 18.1357 24.6878 17.3545 23.9717C16.5732 23.2555 15.2712 22.8975 13.4482 22.8975C12.3089 22.8975 11.2673 23.0439 10.3232 23.3369C9.39551 23.6136 8.55729 23.9554 7.80859 24.3623C7.0599 24.7529 6.40072 25.1354 5.83105 25.5098L2.33984 20.3096C3.73958 19.3005 5.37533 18.4622 7.24707 17.7949C9.13509 17.1276 11.3812 16.7939 13.9854 16.7939C17.6637 16.7939 20.5771 17.5345 22.7256 19.0156C24.874 20.4967 25.9482 22.5882 25.9482 25.29ZM43.3066 16.8428C45.3574 16.8428 47.2454 17.1602 48.9707 17.7949C50.7122 18.4297 52.1038 19.39 53.1455 20.6758C54.1872 21.9453 54.708 23.5404 54.708 25.4609C54.708 26.8932 54.4232 28.1465 53.8535 29.2207C53.3001 30.2949 52.5433 31.2389 51.583 32.0527C50.6227 32.8503 49.5322 33.5501 48.3115 34.1523C49.5811 34.8197 50.7855 35.6009 51.9248 36.4961C53.0641 37.375 53.9919 38.4085 54.708 39.5967C55.4404 40.7848 55.8066 42.1683 55.8066 43.7471C55.8066 45.7327 55.2777 47.458 54.2197 48.9229C53.1618 50.3714 51.6969 51.4945 49.8252 52.292C47.9535 53.0895 45.7806 53.4883 43.3066 53.4883C40.6374 53.4883 38.3669 53.1058 36.4951 52.3408C34.6234 51.5758 33.1992 50.4854 32.2227 49.0693C31.2461 47.637 30.7578 45.9281 30.7578 43.9424C30.7578 42.3148 31.0589 40.8988 31.6611 39.6943C32.2796 38.4899 33.1097 37.4564 34.1514 36.5938C35.193 35.7148 36.3405 34.9661 37.5938 34.3477C36.5358 33.6803 35.5674 32.9235 34.6885 32.0771C33.8258 31.2308 33.1341 30.2624 32.6133 29.1719C32.1087 28.0814 31.8564 26.8281 31.8564 25.4121C31.8564 23.5241 32.3854 21.9453 33.4434 20.6758C34.5176 19.4062 35.9255 18.4541 37.667 17.8193C39.4085 17.1683 41.2884 16.8428 43.3066 16.8428ZM37.7402 43.5029C37.7402 44.7887 38.196 45.8548 39.1074 46.7012C40.0352 47.5312 41.4023 47.9463 43.209 47.9463C45.0807 47.9463 46.4805 47.5475 47.4082 46.75C48.3359 45.9362 48.7998 44.8701 48.7998 43.5518C48.7998 42.6403 48.5312 41.8428 47.9941 41.1592C47.4733 40.4756 46.8141 39.8652 46.0166 39.3281C45.2191 38.7747 44.4134 38.262 43.5996 37.79L42.9404 37.4482C41.8988 37.9202 40.9873 38.4492 40.2061 39.0352C39.4411 39.6211 38.8389 40.2803 38.3994 41.0127C37.96 41.7451 37.7402 42.5752 37.7402 43.5029ZM43.2578 22.3604C42.0208 22.3604 40.9954 22.6777 40.1816 23.3125C39.3678 23.9473 38.9609 24.8424 38.9609 25.998C38.9609 26.8118 39.1562 27.528 39.5469 28.1465C39.9538 28.7487 40.4827 29.2777 41.1338 29.7334C41.8011 30.1891 42.5254 30.6123 43.3066 31.0029C44.0553 30.6449 44.7552 30.2461 45.4062 29.8066C46.0573 29.3672 46.5863 28.8382 46.9932 28.2197C47.4001 27.6012 47.6035 26.8607 47.6035 25.998C47.6035 24.8424 47.1885 23.9473 46.3584 23.3125C45.5446 22.6777 44.5111 22.3604 43.2578 22.3604Z" fill="white"/>
<path d="M75.998 32.4609C76.7051 32.4609 77.2383 32.6465 77.5977 33.0176C77.957 33.3848 78.1367 33.9766 78.1367 34.793V39H77.1758V34.8398C77.1758 34.3203 77.0625 33.9316 76.8359 33.6738C76.6133 33.4121 76.2812 33.2812 75.8398 33.2812C75.2188 33.2812 74.7676 33.4609 74.4863 33.8203C74.2051 34.1797 74.0645 34.709 74.0645 35.4082V39H73.0977V34.8398C73.0977 34.4922 73.0469 34.2031 72.9453 33.9727C72.8477 33.7422 72.6992 33.5703 72.5 33.457C72.3047 33.3398 72.0566 33.2812 71.7559 33.2812C71.3301 33.2812 70.9883 33.3691 70.7305 33.5449C70.4727 33.7207 70.2852 33.9824 70.168 34.3301C70.0547 34.6738 69.998 35.0977 69.998 35.6016V39H69.0254V32.5781H69.8105L69.957 33.4863H70.0098C70.1387 33.2637 70.3008 33.0762 70.4961 32.9238C70.6914 32.7715 70.9102 32.6562 71.1523 32.5781C71.3945 32.5 71.6523 32.4609 71.9258 32.4609C72.4141 32.4609 72.8223 32.5527 73.1504 32.7363C73.4824 32.916 73.7227 33.1914 73.8711 33.5625H73.9238C74.1348 33.1914 74.4238 32.916 74.791 32.7363C75.1582 32.5527 75.5605 32.4609 75.998 32.4609ZM81.1074 32.5781V39H80.1348V32.5781H81.1074ZM80.6328 30.1758C80.793 30.1758 80.9297 30.2285 81.043 30.334C81.1602 30.4355 81.2188 30.5957 81.2188 30.8145C81.2188 31.0293 81.1602 31.1895 81.043 31.2949C80.9297 31.4004 80.793 31.4531 80.6328 31.4531C80.4648 31.4531 80.3242 31.4004 80.2109 31.2949C80.1016 31.1895 80.0469 31.0293 80.0469 30.8145C80.0469 30.5957 80.1016 30.4355 80.2109 30.334C80.3242 30.2285 80.4648 30.1758 80.6328 30.1758ZM86.2109 32.4609C86.9727 32.4609 87.5488 32.6484 87.9395 33.0234C88.3301 33.3945 88.5254 33.9922 88.5254 34.8164V39H87.5645V34.8809C87.5645 34.3457 87.4414 33.9453 87.1953 33.6797C86.9531 33.4141 86.5801 33.2812 86.0762 33.2812C85.3652 33.2812 84.8652 33.4824 84.5762 33.8848C84.2871 34.2871 84.1426 34.8711 84.1426 35.6367V39H83.1699V32.5781H83.9551L84.1016 33.5039H84.1543C84.291 33.2773 84.4648 33.0879 84.6758 32.9355C84.8867 32.7793 85.123 32.6621 85.3848 32.584C85.6465 32.502 85.9219 32.4609 86.2109 32.4609ZM95.832 32.5781V39H95.0352L94.8945 38.0977H94.8418C94.709 38.3203 94.5371 38.5078 94.3262 38.6602C94.1152 38.8125 93.877 38.9258 93.6113 39C93.3496 39.0781 93.0703 39.1172 92.7734 39.1172C92.2656 39.1172 91.8398 39.0352 91.4961 38.8711C91.1523 38.707 90.8926 38.4531 90.7168 38.1094C90.5449 37.7656 90.459 37.3242 90.459 36.7852V32.5781H91.4434V36.7148C91.4434 37.25 91.5645 37.6504 91.8066 37.916C92.0488 38.1777 92.418 38.3086 92.9141 38.3086C93.3906 38.3086 93.7695 38.2188 94.0508 38.0391C94.3359 37.8594 94.541 37.5957 94.666 37.248C94.791 36.8965 94.8535 36.4668 94.8535 35.959V32.5781H95.832ZM99.9629 38.3203C100.123 38.3203 100.287 38.3066 100.455 38.2793C100.623 38.252 100.76 38.2188 100.865 38.1797V38.9355C100.752 38.9863 100.594 39.0293 100.391 39.0645C100.191 39.0996 99.9961 39.1172 99.8047 39.1172C99.4648 39.1172 99.1562 39.0586 98.8789 38.9414C98.6016 38.8203 98.3789 38.6172 98.2109 38.332C98.0469 38.0469 97.9648 37.6523 97.9648 37.1484V33.3398H97.0508V32.8652L97.9707 32.4844L98.3574 31.0898H98.9434V32.5781H100.824V33.3398H98.9434V37.1191C98.9434 37.5215 99.0352 37.8223 99.2188 38.0215C99.4062 38.2207 99.6543 38.3203 99.9629 38.3203ZM104.639 32.4609C105.186 32.4609 105.654 32.582 106.045 32.8242C106.436 33.0664 106.734 33.4062 106.941 33.8438C107.148 34.2773 107.252 34.7852 107.252 35.3672V35.9707H102.816C102.828 36.7246 103.016 37.2988 103.379 37.6934C103.742 38.0879 104.254 38.2852 104.914 38.2852C105.32 38.2852 105.68 38.248 105.992 38.1738C106.305 38.0996 106.629 37.9902 106.965 37.8457V38.7012C106.641 38.8457 106.318 38.9512 105.998 39.0176C105.682 39.084 105.307 39.1172 104.873 39.1172C104.256 39.1172 103.717 38.9922 103.256 38.7422C102.799 38.4883 102.443 38.1172 102.189 37.6289C101.936 37.1406 101.809 36.543 101.809 35.8359C101.809 35.1445 101.924 34.5469 102.154 34.043C102.389 33.5352 102.717 33.1445 103.139 32.8711C103.564 32.5977 104.064 32.4609 104.639 32.4609ZM104.627 33.2578C104.107 33.2578 103.693 33.4277 103.385 33.7676C103.076 34.1074 102.893 34.582 102.834 35.1914H106.232C106.229 34.8086 106.168 34.4727 106.051 34.1836C105.938 33.8906 105.764 33.6641 105.529 33.5039C105.295 33.3398 104.994 33.2578 104.627 33.2578ZM74.252 54.9883L73.1094 51.25C73.0586 51.0898 73.0098 50.9336 72.9629 50.7812C72.9199 50.625 72.8789 50.4766 72.8398 50.3359C72.8047 50.1914 72.7715 50.0586 72.7402 49.9375C72.7129 49.8125 72.6895 49.7051 72.6699 49.6152H72.6289C72.6133 49.7051 72.5918 49.8125 72.5645 49.9375C72.5371 50.0586 72.5039 50.1914 72.4648 50.3359C72.4297 50.4805 72.3906 50.6328 72.3477 50.793C72.3047 50.9492 72.2559 51.1074 72.2012 51.2676L71.0059 54.9883H69.9102L68.1406 48.5664H69.1484L70.0742 52.1113C70.1367 52.3457 70.1953 52.5781 70.25 52.8086C70.3086 53.0352 70.3574 53.25 70.3965 53.4531C70.4395 53.6523 70.4707 53.8262 70.4902 53.9746H70.5371C70.5605 53.877 70.5859 53.7598 70.6133 53.623C70.6445 53.4863 70.6777 53.3418 70.7129 53.1895C70.752 53.0332 70.793 52.8789 70.8359 52.7266C70.8789 52.5703 70.9219 52.4238 70.9648 52.2871L72.1484 48.5664H73.1973L74.3398 52.2812C74.3984 52.4688 74.4551 52.6641 74.5098 52.8672C74.5684 53.0703 74.6211 53.2676 74.668 53.459C74.7148 53.6465 74.748 53.8145 74.7676 53.9629H74.8145C74.8301 53.8301 74.8594 53.666 74.9023 53.4707C74.9453 53.2754 74.9941 53.0605 75.0488 52.8262C75.1074 52.5918 75.168 52.3535 75.2305 52.1113L76.168 48.5664H77.1582L75.3828 54.9883H74.252ZM80.7324 48.4727C81.498 48.4727 82.0664 48.6445 82.4375 48.9883C82.8086 49.332 82.9941 49.8809 82.9941 50.6348V55H82.2852L82.0977 54.0508H82.0508C81.8711 54.2852 81.6836 54.4824 81.4883 54.6426C81.293 54.7988 81.0664 54.918 80.8086 55C80.5547 55.0781 80.2422 55.1172 79.8711 55.1172C79.4805 55.1172 79.1328 55.0488 78.8281 54.9121C78.5273 54.7754 78.2891 54.5684 78.1133 54.291C77.9414 54.0137 77.8555 53.6621 77.8555 53.2363C77.8555 52.5957 78.1094 52.1035 78.6172 51.7598C79.125 51.416 79.8984 51.2285 80.9375 51.1973L82.0449 51.1504V50.7578C82.0449 50.2031 81.9258 49.8145 81.6875 49.5918C81.4492 49.3691 81.1133 49.2578 80.6797 49.2578C80.3438 49.2578 80.0234 49.3066 79.7188 49.4043C79.4141 49.502 79.125 49.6172 78.8516 49.75L78.5527 49.0117C78.8418 48.8633 79.1738 48.7363 79.5488 48.6309C79.9238 48.5254 80.3184 48.4727 80.7324 48.4727ZM82.0332 51.8359L81.0547 51.877C80.2539 51.9082 79.6895 52.0391 79.3613 52.2695C79.0332 52.5 78.8691 52.8262 78.8691 53.248C78.8691 53.6152 78.9805 53.8867 79.2031 54.0625C79.4258 54.2383 79.7207 54.3262 80.0879 54.3262C80.6582 54.3262 81.125 54.168 81.4883 53.8516C81.8516 53.5352 82.0332 53.0605 82.0332 52.4277V51.8359ZM85.9707 48.5781V55H84.998V48.5781H85.9707ZM85.4961 46.1758C85.6562 46.1758 85.793 46.2285 85.9062 46.334C86.0234 46.4355 86.082 46.5957 86.082 46.8145C86.082 47.0293 86.0234 47.1895 85.9062 47.2949C85.793 47.4004 85.6562 47.4531 85.4961 47.4531C85.3281 47.4531 85.1875 47.4004 85.0742 47.2949C84.9648 47.1895 84.9102 47.0293 84.9102 46.8145C84.9102 46.5957 84.9648 46.4355 85.0742 46.334C85.1875 46.2285 85.3281 46.1758 85.4961 46.1758ZM90.1074 54.3203C90.2676 54.3203 90.4316 54.3066 90.5996 54.2793C90.7676 54.252 90.9043 54.2188 91.0098 54.1797V54.9355C90.8965 54.9863 90.7383 55.0293 90.5352 55.0645C90.3359 55.0996 90.1406 55.1172 89.9492 55.1172C89.6094 55.1172 89.3008 55.0586 89.0234 54.9414C88.7461 54.8203 88.5234 54.6172 88.3555 54.332C88.1914 54.0469 88.1094 53.6523 88.1094 53.1484V49.3398H87.1953V48.8652L88.1152 48.4844L88.502 47.0898H89.0879V48.5781H90.9688V49.3398H89.0879V53.1191C89.0879 53.5215 89.1797 53.8223 89.3633 54.0215C89.5508 54.2207 89.7988 54.3203 90.1074 54.3203ZM93.2832 48.5781V55H92.3105V48.5781H93.2832ZM92.8086 46.1758C92.9688 46.1758 93.1055 46.2285 93.2188 46.334C93.3359 46.4355 93.3945 46.5957 93.3945 46.8145C93.3945 47.0293 93.3359 47.1895 93.2188 47.2949C93.1055 47.4004 92.9688 47.4531 92.8086 47.4531C92.6406 47.4531 92.5 47.4004 92.3867 47.2949C92.2773 47.1895 92.2227 47.0293 92.2227 46.8145C92.2227 46.5957 92.2773 46.4355 92.3867 46.334C92.5 46.2285 92.6406 46.1758 92.8086 46.1758ZM98.3867 48.4609C99.1484 48.4609 99.7246 48.6484 100.115 49.0234C100.506 49.3945 100.701 49.9922 100.701 50.8164V55H99.7402V50.8809C99.7402 50.3457 99.6172 49.9453 99.3711 49.6797C99.1289 49.4141 98.7559 49.2812 98.252 49.2812C97.541 49.2812 97.041 49.4824 96.752 49.8848C96.4629 50.2871 96.3184 50.8711 96.3184 51.6367V55H95.3457V48.5781H96.1309L96.2773 49.5039H96.3301C96.4668 49.2773 96.6406 49.0879 96.8516 48.9355C97.0625 48.7793 97.2988 48.6621 97.5605 48.584C97.8223 48.502 98.0977 48.4609 98.3867 48.4609ZM104.498 57.8828C103.654 57.8828 103.004 57.7246 102.547 57.4082C102.09 57.0957 101.861 56.6562 101.861 56.0898C101.861 55.6875 101.988 55.3438 102.242 55.0586C102.5 54.7734 102.855 54.584 103.309 54.4902C103.141 54.4121 102.996 54.2949 102.875 54.1387C102.758 53.9824 102.699 53.8027 102.699 53.5996C102.699 53.3652 102.764 53.1602 102.893 52.9844C103.025 52.8047 103.227 52.6328 103.496 52.4688C103.16 52.332 102.887 52.1016 102.676 51.7773C102.469 51.4492 102.365 51.0684 102.365 50.6348C102.365 50.1738 102.461 49.7812 102.652 49.457C102.844 49.1289 103.121 48.8789 103.484 48.707C103.848 48.5352 104.287 48.4492 104.803 48.4492C104.916 48.4492 105.029 48.4551 105.143 48.4668C105.26 48.4746 105.371 48.4883 105.477 48.5078C105.582 48.5234 105.674 48.543 105.752 48.5664H107.955V49.1934L106.771 49.3398C106.889 49.4922 106.986 49.6758 107.064 49.8906C107.143 50.1055 107.182 50.3438 107.182 50.6055C107.182 51.2461 106.965 51.7559 106.531 52.1348C106.098 52.5098 105.502 52.6973 104.744 52.6973C104.564 52.6973 104.381 52.6816 104.193 52.6504C104.002 52.7559 103.855 52.873 103.754 53.002C103.656 53.1309 103.607 53.2793 103.607 53.4473C103.607 53.5723 103.645 53.6719 103.719 53.7461C103.797 53.8203 103.908 53.875 104.053 53.9102C104.197 53.9414 104.371 53.957 104.574 53.957H105.705C106.404 53.957 106.939 54.1035 107.311 54.3965C107.686 54.6895 107.873 55.1172 107.873 55.6797C107.873 56.3906 107.584 56.9355 107.006 57.3145C106.428 57.6934 105.592 57.8828 104.498 57.8828ZM104.527 57.1211C105.059 57.1211 105.498 57.0664 105.846 56.957C106.197 56.8516 106.459 56.6973 106.631 56.4941C106.807 56.2949 106.895 56.0566 106.895 55.7793C106.895 55.5215 106.836 55.3262 106.719 55.1934C106.602 55.0645 106.43 54.9785 106.203 54.9355C105.977 54.8887 105.699 54.8652 105.371 54.8652H104.258C103.969 54.8652 103.717 54.9102 103.502 55C103.287 55.0898 103.121 55.2227 103.004 55.3984C102.891 55.5742 102.834 55.793 102.834 56.0547C102.834 56.4023 102.98 56.666 103.273 56.8457C103.566 57.0293 103.984 57.1211 104.527 57.1211ZM104.779 51.9883C105.244 51.9883 105.594 51.8711 105.828 51.6367C106.062 51.4023 106.18 51.0605 106.18 50.6113C106.18 50.1309 106.061 49.7715 105.822 49.5332C105.584 49.291 105.232 49.1699 104.768 49.1699C104.322 49.1699 103.979 49.2949 103.736 49.5449C103.498 49.791 103.379 50.1523 103.379 50.6289C103.379 51.0664 103.5 51.4023 103.742 51.6367C103.984 51.8711 104.33 51.9883 104.779 51.9883Z" fill="white"/>
</svg>
