<svg width="45" height="68" viewBox="0 0 45 68" fill="none" xmlns="http://www.w3.org/2000/svg">
<path d="M16.5 31C16.0833 31 15.7293 30.854 15.438 30.562C15.146 30.2707 15 29.9167 15 29.5V27.95C14.7 27.6167 14.4583 27.2457 14.275 26.837C14.0917 26.429 14 25.9833 14 25.5V16C14 14.6167 14.6417 13.604 15.925 12.962C17.2083 12.3207 19.2333 12 22 12C24.8667 12 26.9167 12.3083 28.15 12.925C29.3833 13.5417 30 14.5667 30 16V25.5C30 25.9833 29.9083 26.429 29.725 26.837C29.5417 27.2457 29.3 27.6167 29 27.95V29.5C29 29.9167 28.854 30.2707 28.562 30.562C28.2707 30.854 27.9167 31 27.5 31C27.0833 31 26.7293 30.854 26.438 30.562C26.146 30.2707 26 29.9167 26 29.5V29H18V29.5C18 29.9167 17.854 30.2707 17.562 30.562C17.2707 30.854 16.9167 31 16.5 31ZM16 20H28V17H16V20ZM18.5 26C18.9167 26 19.2707 25.854 19.562 25.562C19.854 25.2707 20 24.9167 20 24.5C20 24.0833 19.854 23.7293 19.562 23.438C19.2707 23.146 18.9167 23 18.5 23C18.0833 23 17.7293 23.146 17.438 23.438C17.146 23.7293 17 24.0833 17 24.5C17 24.9167 17.146 25.2707 17.438 25.562C17.7293 25.854 18.0833 26 18.5 26ZM25.5 26C25.9167 26 26.2707 25.854 26.562 25.562C26.854 25.2707 27 24.9167 27 24.5C27 24.0833 26.854 23.7293 26.562 23.438C26.2707 23.146 25.9167 23 25.5 23C25.0833 23 24.7293 23.146 24.438 23.438C24.146 23.7293 24 24.0833 24 24.5C24 24.9167 24.146 25.2707 24.438 25.562C24.7293 25.854 25.0833 26 25.5 26Z" fill="#FA3022"/>
<rect x="0.5" y="0.5" width="43" height="43" rx="9.5" stroke="#FA3022"/>
<path d="M4.21289 65H3.26367V58.9297C3.26367 58.6992 3.26367 58.502 3.26367 58.3379C3.26758 58.1699 3.27148 58.0176 3.27539 57.8809C3.2832 57.7402 3.29297 57.5977 3.30469 57.4531C3.18359 57.5781 3.07031 57.6855 2.96484 57.7754C2.85938 57.8613 2.72852 57.9688 2.57227 58.0977L1.59375 58.8828L1.08398 58.2207L3.4043 56.4336H4.21289V65ZM13.5 63.0137H12.2168V65H11.2676V63.0137H7.125V62.1934L11.2031 56.3867H12.2168V62.1348H13.5V63.0137ZM11.2676 62.1348V59.334C11.2676 59.1191 11.2695 58.9258 11.2734 58.7539C11.2773 58.5781 11.2832 58.416 11.291 58.2676C11.2988 58.1152 11.3047 57.9707 11.3086 57.834C11.3164 57.6973 11.3223 57.5625 11.3262 57.4297H11.2793C11.2051 57.5859 11.1191 57.752 11.0215 57.9277C10.9277 58.0996 10.832 58.2539 10.7344 58.3906L8.0918 62.1348H11.2676ZM24.8496 58.4609C25.5566 58.4609 26.0898 58.6465 26.4492 59.0176C26.8086 59.3848 26.9883 59.9766 26.9883 60.793V65H26.0273V60.8398C26.0273 60.3203 25.9141 59.9316 25.6875 59.6738C25.4648 59.4121 25.1328 59.2812 24.6914 59.2812C24.0703 59.2812 23.6191 59.4609 23.3379 59.8203C23.0566 60.1797 22.916 60.709 22.916 61.4082V65H21.9492V60.8398C21.9492 60.4922 21.8984 60.2031 21.7969 59.9727C21.6992 59.7422 21.5508 59.5703 21.3516 59.457C21.1562 59.3398 20.9082 59.2812 20.6074 59.2812C20.1816 59.2812 19.8398 59.3691 19.582 59.5449C19.3242 59.7207 19.1367 59.9824 19.0195 60.3301C18.9062 60.6738 18.8496 61.0977 18.8496 61.6016V65H17.877V58.5781H18.6621L18.8086 59.4863H18.8613C18.9902 59.2637 19.1523 59.0762 19.3477 58.9238C19.543 58.7715 19.7617 58.6562 20.0039 58.5781C20.2461 58.5 20.5039 58.4609 20.7773 58.4609C21.2656 58.4609 21.6738 58.5527 22.002 58.7363C22.334 58.916 22.5742 59.1914 22.7227 59.5625H22.7754C22.9863 59.1914 23.2754 58.916 23.6426 58.7363C24.0098 58.5527 24.4121 58.4609 24.8496 58.4609ZM29.959 58.5781V65H28.9863V58.5781H29.959ZM29.4844 56.1758C29.6445 56.1758 29.7812 56.2285 29.8945 56.334C30.0117 56.4355 30.0703 56.5957 30.0703 56.8145C30.0703 57.0293 30.0117 57.1895 29.8945 57.2949C29.7812 57.4004 29.6445 57.4531 29.4844 57.4531C29.3164 57.4531 29.1758 57.4004 29.0625 57.2949C28.9531 57.1895 28.8984 57.0293 28.8984 56.8145C28.8984 56.5957 28.9531 56.4355 29.0625 56.334C29.1758 56.2285 29.3164 56.1758 29.4844 56.1758ZM35.0625 58.4609C35.8242 58.4609 36.4004 58.6484 36.791 59.0234C37.1816 59.3945 37.377 59.9922 37.377 60.8164V65H36.416V60.8809C36.416 60.3457 36.293 59.9453 36.0469 59.6797C35.8047 59.4141 35.4316 59.2812 34.9277 59.2812C34.2168 59.2812 33.7168 59.4824 33.4277 59.8848C33.1387 60.2871 32.9941 60.8711 32.9941 61.6367V65H32.0215V58.5781H32.8066L32.9531 59.5039H33.0059C33.1426 59.2773 33.3164 59.0879 33.5273 58.9355C33.7383 58.7793 33.9746 58.6621 34.2363 58.584C34.498 58.502 34.7734 58.4609 35.0625 58.4609ZM43.5352 63.2422C43.5352 63.6523 43.4316 63.998 43.2246 64.2793C43.0215 64.5566 42.7285 64.7656 42.3457 64.9062C41.9668 65.0469 41.5137 65.1172 40.9863 65.1172C40.5371 65.1172 40.1484 65.082 39.8203 65.0117C39.4922 64.9414 39.2051 64.8418 38.959 64.7129V63.8164C39.2207 63.9453 39.5332 64.0625 39.8965 64.168C40.2598 64.2734 40.6309 64.3262 41.0098 64.3262C41.5645 64.3262 41.9668 64.2363 42.2168 64.0566C42.4668 63.877 42.5918 63.6328 42.5918 63.3242C42.5918 63.1484 42.541 62.9941 42.4395 62.8613C42.3418 62.7246 42.1758 62.5938 41.9414 62.4688C41.707 62.3398 41.3828 62.1992 40.9688 62.0469C40.5586 61.8906 40.2031 61.7363 39.9023 61.584C39.6055 61.4277 39.375 61.2383 39.2109 61.0156C39.0508 60.793 38.9707 60.5039 38.9707 60.1484C38.9707 59.6055 39.1895 59.1895 39.627 58.9004C40.0684 58.6074 40.6465 58.4609 41.3613 58.4609C41.748 58.4609 42.1094 58.5 42.4453 58.5781C42.7852 58.6523 43.1016 58.7539 43.3945 58.8828L43.0664 59.6621C42.8008 59.5488 42.5176 59.4531 42.2168 59.375C41.916 59.2969 41.6094 59.2578 41.2969 59.2578C40.8477 59.2578 40.502 59.332 40.2598 59.4805C40.0215 59.6289 39.9023 59.832 39.9023 60.0898C39.9023 60.2891 39.957 60.4531 40.0664 60.582C40.1797 60.7109 40.3594 60.832 40.6055 60.9453C40.8516 61.0586 41.1758 61.1914 41.5781 61.3438C41.9805 61.4922 42.3281 61.6465 42.6211 61.8066C42.9141 61.9629 43.1387 62.1543 43.2949 62.3809C43.4551 62.6035 43.5352 62.8906 43.5352 63.2422Z" fill="black"/>
</svg>
