<svg width="45" height="68" viewBox="0 0 45 68" fill="none" xmlns="http://www.w3.org/2000/svg">
<path d="M11 17.97V22.928C11 24.795 12.302 26.029 14 26.029C14.826 26.029 15.562 25.713 16.094 25.159V25.895H17.27V17.97H16.082V22.858C16.082 24.115 15.232 24.964 14.135 24.964C13.025 24.964 12.189 24.137 12.189 22.858V17.971H11V17.97ZM18.44 17.97V25.895H19.57V25.17C20.091 25.702 20.827 26.03 21.63 26.03C22.0274 26.0337 22.4217 25.9585 22.7899 25.8089C23.1581 25.6592 23.4929 25.438 23.7751 25.1581C24.0573 24.8782 24.2811 24.5451 24.4337 24.1781C24.5863 23.811 24.6645 23.4174 24.664 23.02C24.6659 22.6216 24.5886 22.2268 24.4367 21.8584C24.2849 21.4901 24.0614 21.1556 23.7793 20.8743C23.4971 20.593 23.162 20.3706 22.7932 20.2198C22.4244 20.069 22.0294 19.9929 21.631 19.996C21.2493 19.9955 20.8713 20.0714 20.5194 20.2193C20.1675 20.3672 19.8488 20.584 19.582 20.857V17.971H18.439L18.44 17.97ZM28.309 20.008C26.622 20.008 25.344 21.378 25.344 23.008C25.344 24.728 26.678 26.018 28.41 26.018C29.463 26.018 30.323 25.555 30.9 24.785L30.074 24.174C29.644 24.751 29.078 25.021 28.41 25.021C27.437 25.021 26.657 24.321 26.498 23.381H31.195V23.008C31.195 21.288 29.973 20.008 28.309 20.008ZM34.604 20.076C33.97 20.076 33.506 20.37 33.223 20.834V20.121H32.092V25.895H33.234V22.61C33.234 21.716 33.778 21.14 34.525 21.14H35V20.075H34.604V20.076ZM28.285 21.004C29.135 21.004 29.849 21.592 30.041 22.474H26.52C26.723 21.592 27.436 21.004 28.285 21.004ZM21.553 21.016C22.639 21.016 23.533 21.899 23.533 23.02C23.5351 23.5477 23.3279 24.0547 22.9567 24.4298C22.5855 24.8049 22.0807 25.0175 21.553 25.021C21.2905 25.0215 21.0304 24.9701 20.7878 24.8696C20.5453 24.7691 20.325 24.6216 20.1397 24.4356C19.9544 24.2496 19.8078 24.0287 19.7083 23.7857C19.6088 23.5428 19.5584 23.2825 19.56 23.02C19.5582 22.7573 19.6083 22.4969 19.7076 22.2537C19.8069 22.0105 19.9534 21.7894 20.1386 21.6031C20.3238 21.4168 20.544 21.269 20.7866 21.1682C21.0292 21.0674 21.2893 21.0157 21.552 21.016H21.553Z" fill="#FA3022"/>
<rect x="1.5" y="0.5" width="43" height="43" rx="9.5" stroke="#FA3022"/>
<path d="M4.21289 65H3.26367V58.9297C3.26367 58.6992 3.26367 58.502 3.26367 58.3379C3.26758 58.1699 3.27148 58.0176 3.27539 57.8809C3.2832 57.7402 3.29297 57.5977 3.30469 57.4531C3.18359 57.5781 3.07031 57.6855 2.96484 57.7754C2.85938 57.8613 2.72852 57.9688 2.57227 58.0977L1.59375 58.8828L1.08398 58.2207L3.4043 56.4336H4.21289V65ZM13.1191 60.7051C13.1191 61.4004 13.0664 62.0215 12.9609 62.5684C12.8555 63.1152 12.6895 63.5781 12.4629 63.957C12.2363 64.3359 11.9434 64.625 11.584 64.8242C11.2246 65.0195 10.793 65.1172 10.2891 65.1172C9.65234 65.1172 9.125 64.9434 8.70703 64.5957C8.29297 64.248 7.98242 63.7461 7.77539 63.0898C7.57227 62.4297 7.4707 61.6348 7.4707 60.7051C7.4707 59.791 7.5625 59.0059 7.74609 58.3496C7.93359 57.6895 8.23438 57.1836 8.64844 56.832C9.0625 56.4766 9.60938 56.2988 10.2891 56.2988C10.9336 56.2988 11.4648 56.4746 11.8828 56.8262C12.3008 57.1738 12.6113 57.6777 12.8145 58.3379C13.0176 58.9941 13.1191 59.7832 13.1191 60.7051ZM8.44922 60.7051C8.44922 61.502 8.50977 62.166 8.63086 62.6973C8.75195 63.2285 8.94727 63.627 9.2168 63.8926C9.49023 64.1543 9.84766 64.2852 10.2891 64.2852C10.7305 64.2852 11.0859 64.1543 11.3555 63.8926C11.6289 63.6309 11.8262 63.2344 11.9473 62.7031C12.0723 62.1719 12.1348 61.5059 12.1348 60.7051C12.1348 59.9199 12.0742 59.2637 11.9531 58.7363C11.832 58.2051 11.6367 57.8066 11.3672 57.541C11.0977 57.2715 10.7383 57.1367 10.2891 57.1367C9.83984 57.1367 9.48047 57.2715 9.21094 57.541C8.94141 57.8066 8.74609 58.2051 8.625 58.7363C8.50781 59.2637 8.44922 59.9199 8.44922 60.7051ZM24.8496 58.4609C25.5566 58.4609 26.0898 58.6465 26.4492 59.0176C26.8086 59.3848 26.9883 59.9766 26.9883 60.793V65H26.0273V60.8398C26.0273 60.3203 25.9141 59.9316 25.6875 59.6738C25.4648 59.4121 25.1328 59.2812 24.6914 59.2812C24.0703 59.2812 23.6191 59.4609 23.3379 59.8203C23.0566 60.1797 22.916 60.709 22.916 61.4082V65H21.9492V60.8398C21.9492 60.4922 21.8984 60.2031 21.7969 59.9727C21.6992 59.7422 21.5508 59.5703 21.3516 59.457C21.1562 59.3398 20.9082 59.2812 20.6074 59.2812C20.1816 59.2812 19.8398 59.3691 19.582 59.5449C19.3242 59.7207 19.1367 59.9824 19.0195 60.3301C18.9062 60.6738 18.8496 61.0977 18.8496 61.6016V65H17.877V58.5781H18.6621L18.8086 59.4863H18.8613C18.9902 59.2637 19.1523 59.0762 19.3477 58.9238C19.543 58.7715 19.7617 58.6562 20.0039 58.5781C20.2461 58.5 20.5039 58.4609 20.7773 58.4609C21.2656 58.4609 21.6738 58.5527 22.002 58.7363C22.334 58.916 22.5742 59.1914 22.7227 59.5625H22.7754C22.9863 59.1914 23.2754 58.916 23.6426 58.7363C24.0098 58.5527 24.4121 58.4609 24.8496 58.4609ZM29.959 58.5781V65H28.9863V58.5781H29.959ZM29.4844 56.1758C29.6445 56.1758 29.7812 56.2285 29.8945 56.334C30.0117 56.4355 30.0703 56.5957 30.0703 56.8145C30.0703 57.0293 30.0117 57.1895 29.8945 57.2949C29.7812 57.4004 29.6445 57.4531 29.4844 57.4531C29.3164 57.4531 29.1758 57.4004 29.0625 57.2949C28.9531 57.1895 28.8984 57.0293 28.8984 56.8145C28.8984 56.5957 28.9531 56.4355 29.0625 56.334C29.1758 56.2285 29.3164 56.1758 29.4844 56.1758ZM35.0625 58.4609C35.8242 58.4609 36.4004 58.6484 36.791 59.0234C37.1816 59.3945 37.377 59.9922 37.377 60.8164V65H36.416V60.8809C36.416 60.3457 36.293 59.9453 36.0469 59.6797C35.8047 59.4141 35.4316 59.2812 34.9277 59.2812C34.2168 59.2812 33.7168 59.4824 33.4277 59.8848C33.1387 60.2871 32.9941 60.8711 32.9941 61.6367V65H32.0215V58.5781H32.8066L32.9531 59.5039H33.0059C33.1426 59.2773 33.3164 59.0879 33.5273 58.9355C33.7383 58.7793 33.9746 58.6621 34.2363 58.584C34.498 58.502 34.7734 58.4609 35.0625 58.4609ZM43.5352 63.2422C43.5352 63.6523 43.4316 63.998 43.2246 64.2793C43.0215 64.5566 42.7285 64.7656 42.3457 64.9062C41.9668 65.0469 41.5137 65.1172 40.9863 65.1172C40.5371 65.1172 40.1484 65.082 39.8203 65.0117C39.4922 64.9414 39.2051 64.8418 38.959 64.7129V63.8164C39.2207 63.9453 39.5332 64.0625 39.8965 64.168C40.2598 64.2734 40.6309 64.3262 41.0098 64.3262C41.5645 64.3262 41.9668 64.2363 42.2168 64.0566C42.4668 63.877 42.5918 63.6328 42.5918 63.3242C42.5918 63.1484 42.541 62.9941 42.4395 62.8613C42.3418 62.7246 42.1758 62.5938 41.9414 62.4688C41.707 62.3398 41.3828 62.1992 40.9688 62.0469C40.5586 61.8906 40.2031 61.7363 39.9023 61.584C39.6055 61.4277 39.375 61.2383 39.2109 61.0156C39.0508 60.793 38.9707 60.5039 38.9707 60.1484C38.9707 59.6055 39.1895 59.1895 39.627 58.9004C40.0684 58.6074 40.6465 58.4609 41.3613 58.4609C41.748 58.4609 42.1094 58.5 42.4453 58.5781C42.7852 58.6523 43.1016 58.7539 43.3945 58.8828L43.0664 59.6621C42.8008 59.5488 42.5176 59.4531 42.2168 59.375C41.916 59.2969 41.6094 59.2578 41.2969 59.2578C40.8477 59.2578 40.502 59.332 40.2598 59.4805C40.0215 59.6289 39.9023 59.832 39.9023 60.0898C39.9023 60.2891 39.957 60.4531 40.0664 60.582C40.1797 60.7109 40.3594 60.832 40.6055 60.9453C40.8516 61.0586 41.1758 61.1914 41.5781 61.3438C41.9805 61.4922 42.3281 61.6465 42.6211 61.8066C42.9141 61.9629 43.1387 62.1543 43.2949 62.3809C43.4551 62.6035 43.5352 62.8906 43.5352 63.2422Z" fill="black"/>
</svg>
