<svg width="45" height="26" viewBox="0 0 45 26" fill="none" xmlns="http://www.w3.org/2000/svg">
<path d="M4.04297 2.46094C4.84375 2.46094 5.48242 2.73633 5.95898 3.28711C6.43555 3.83789 6.67383 4.66602 6.67383 5.77148C6.67383 6.50195 6.56445 7.11523 6.3457 7.61133C6.12695 8.10742 5.81836 8.48242 5.41992 8.73633C5.02539 8.99023 4.55859 9.11719 4.01953 9.11719C3.67969 9.11719 3.38086 9.07227 3.12305 8.98242C2.86523 8.89258 2.64453 8.77148 2.46094 8.61914C2.27734 8.4668 2.125 8.30078 2.00391 8.12109H1.93359C1.94531 8.27344 1.95898 8.45703 1.97461 8.67188C1.99414 8.88672 2.00391 9.07422 2.00391 9.23438V11.8711H1.02539V2.57812H1.82812L1.95703 3.52734H2.00391C2.12891 3.33203 2.28125 3.1543 2.46094 2.99414C2.64062 2.83008 2.85938 2.70117 3.11719 2.60742C3.37891 2.50977 3.6875 2.46094 4.04297 2.46094ZM3.87305 3.28125C3.42773 3.28125 3.06836 3.36719 2.79492 3.53906C2.52539 3.71094 2.32812 3.96875 2.20312 4.3125C2.07812 4.65234 2.01172 5.08008 2.00391 5.5957V5.7832C2.00391 6.32617 2.0625 6.78516 2.17969 7.16016C2.30078 7.53516 2.49805 7.82031 2.77148 8.01562C3.04883 8.21094 3.41992 8.30859 3.88477 8.30859C4.2832 8.30859 4.61523 8.20117 4.88086 7.98633C5.14648 7.77148 5.34375 7.47266 5.47266 7.08984C5.60547 6.70312 5.67188 6.25977 5.67188 5.75977C5.67188 5.00195 5.52344 4.40039 5.22656 3.95508C4.93359 3.50586 4.48242 3.28125 3.87305 3.28125ZM13.9102 5.77734C13.9102 6.30469 13.8418 6.77539 13.7051 7.18945C13.5684 7.60352 13.3711 7.95312 13.1133 8.23828C12.8555 8.52344 12.543 8.74219 12.1758 8.89453C11.8125 9.04297 11.4004 9.11719 10.9395 9.11719C10.5098 9.11719 10.1152 9.04297 9.75586 8.89453C9.40039 8.74219 9.0918 8.52344 8.83008 8.23828C8.57227 7.95312 8.37109 7.60352 8.22656 7.18945C8.08594 6.77539 8.01562 6.30469 8.01562 5.77734C8.01562 5.07422 8.13477 4.47656 8.37305 3.98438C8.61133 3.48828 8.95117 3.11133 9.39258 2.85352C9.83789 2.5918 10.3672 2.46094 10.9805 2.46094C11.5664 2.46094 12.0781 2.5918 12.5156 2.85352C12.957 3.11523 13.2988 3.49414 13.541 3.99023C13.7871 4.48242 13.9102 5.07812 13.9102 5.77734ZM9.02344 5.77734C9.02344 6.29297 9.0918 6.74023 9.22852 7.11914C9.36523 7.49805 9.57617 7.79102 9.86133 7.99805C10.1465 8.20508 10.5137 8.30859 10.9629 8.30859C11.4082 8.30859 11.7734 8.20508 12.0586 7.99805C12.3477 7.79102 12.5605 7.49805 12.6973 7.11914C12.834 6.74023 12.9023 6.29297 12.9023 5.77734C12.9023 5.26562 12.834 4.82422 12.6973 4.45312C12.5605 4.07812 12.3496 3.78906 12.0645 3.58594C11.7793 3.38281 11.4102 3.28125 10.957 3.28125C10.2891 3.28125 9.79883 3.50195 9.48633 3.94336C9.17773 4.38477 9.02344 4.99609 9.02344 5.77734ZM19.7461 7.24219C19.7461 7.65234 19.6426 7.99805 19.4355 8.2793C19.2324 8.55664 18.9395 8.76562 18.5566 8.90625C18.1777 9.04688 17.7246 9.11719 17.1973 9.11719C16.748 9.11719 16.3594 9.08203 16.0312 9.01172C15.7031 8.94141 15.416 8.8418 15.1699 8.71289V7.81641C15.4316 7.94531 15.7441 8.0625 16.1074 8.16797C16.4707 8.27344 16.8418 8.32617 17.2207 8.32617C17.7754 8.32617 18.1777 8.23633 18.4277 8.05664C18.6777 7.87695 18.8027 7.63281 18.8027 7.32422C18.8027 7.14844 18.752 6.99414 18.6504 6.86133C18.5527 6.72461 18.3867 6.59375 18.1523 6.46875C17.918 6.33984 17.5938 6.19922 17.1797 6.04688C16.7695 5.89062 16.4141 5.73633 16.1133 5.58398C15.8164 5.42773 15.5859 5.23828 15.4219 5.01562C15.2617 4.79297 15.1816 4.50391 15.1816 4.14844C15.1816 3.60547 15.4004 3.18945 15.8379 2.90039C16.2793 2.60742 16.8574 2.46094 17.5723 2.46094C17.959 2.46094 18.3203 2.5 18.6562 2.57812C18.9961 2.65234 19.3125 2.75391 19.6055 2.88281L19.2773 3.66211C19.0117 3.54883 18.7285 3.45312 18.4277 3.375C18.127 3.29688 17.8203 3.25781 17.5078 3.25781C17.0586 3.25781 16.7129 3.33203 16.4707 3.48047C16.2324 3.62891 16.1133 3.83203 16.1133 4.08984C16.1133 4.28906 16.168 4.45312 16.2773 4.58203C16.3906 4.71094 16.5703 4.83203 16.8164 4.94531C17.0625 5.05859 17.3867 5.19141 17.7891 5.34375C18.1914 5.49219 18.5391 5.64648 18.832 5.80664C19.125 5.96289 19.3496 6.1543 19.5059 6.38086C19.666 6.60352 19.7461 6.89062 19.7461 7.24219ZM22.2832 2.57812V9H21.3105V2.57812H22.2832ZM21.8086 0.175781C21.9688 0.175781 22.1055 0.228516 22.2188 0.333984C22.3359 0.435547 22.3945 0.595703 22.3945 0.814453C22.3945 1.0293 22.3359 1.18945 22.2188 1.29492C22.1055 1.40039 21.9688 1.45312 21.8086 1.45312C21.6406 1.45312 21.5 1.40039 21.3867 1.29492C21.2773 1.18945 21.2227 1.0293 21.2227 0.814453C21.2227 0.595703 21.2773 0.435547 21.3867 0.333984C21.5 0.228516 21.6406 0.175781 21.8086 0.175781ZM26.4199 8.32031C26.5801 8.32031 26.7441 8.30664 26.9121 8.2793C27.0801 8.25195 27.2168 8.21875 27.3223 8.17969V8.93555C27.209 8.98633 27.0508 9.0293 26.8477 9.06445C26.6484 9.09961 26.4531 9.11719 26.2617 9.11719C25.9219 9.11719 25.6133 9.05859 25.3359 8.94141C25.0586 8.82031 24.8359 8.61719 24.668 8.33203C24.5039 8.04688 24.4219 7.65234 24.4219 7.14844V3.33984H23.5078V2.86523L24.4277 2.48438L24.8145 1.08984H25.4004V2.57812H27.2812V3.33984H25.4004V7.11914C25.4004 7.52148 25.4922 7.82227 25.6758 8.02148C25.8633 8.2207 26.1113 8.32031 26.4199 8.32031ZM29.5957 2.57812V9H28.623V2.57812H29.5957ZM29.1211 0.175781C29.2812 0.175781 29.418 0.228516 29.5312 0.333984C29.6484 0.435547 29.707 0.595703 29.707 0.814453C29.707 1.0293 29.6484 1.18945 29.5312 1.29492C29.418 1.40039 29.2812 1.45312 29.1211 1.45312C28.9531 1.45312 28.8125 1.40039 28.6992 1.29492C28.5898 1.18945 28.5352 1.0293 28.5352 0.814453C28.5352 0.595703 28.5898 0.435547 28.6992 0.333984C28.8125 0.228516 28.9531 0.175781 29.1211 0.175781ZM37.1953 5.77734C37.1953 6.30469 37.127 6.77539 36.9902 7.18945C36.8535 7.60352 36.6562 7.95312 36.3984 8.23828C36.1406 8.52344 35.8281 8.74219 35.4609 8.89453C35.0977 9.04297 34.6855 9.11719 34.2246 9.11719C33.7949 9.11719 33.4004 9.04297 33.041 8.89453C32.6855 8.74219 32.377 8.52344 32.1152 8.23828C31.8574 7.95312 31.6562 7.60352 31.5117 7.18945C31.3711 6.77539 31.3008 6.30469 31.3008 5.77734C31.3008 5.07422 31.4199 4.47656 31.6582 3.98438C31.8965 3.48828 32.2363 3.11133 32.6777 2.85352C33.123 2.5918 33.6523 2.46094 34.2656 2.46094C34.8516 2.46094 35.3633 2.5918 35.8008 2.85352C36.2422 3.11523 36.584 3.49414 36.8262 3.99023C37.0723 4.48242 37.1953 5.07812 37.1953 5.77734ZM32.3086 5.77734C32.3086 6.29297 32.377 6.74023 32.5137 7.11914C32.6504 7.49805 32.8613 7.79102 33.1465 7.99805C33.4316 8.20508 33.7988 8.30859 34.248 8.30859C34.6934 8.30859 35.0586 8.20508 35.3438 7.99805C35.6328 7.79102 35.8457 7.49805 35.9824 7.11914C36.1191 6.74023 36.1875 6.29297 36.1875 5.77734C36.1875 5.26562 36.1191 4.82422 35.9824 4.45312C35.8457 4.07812 35.6348 3.78906 35.3496 3.58594C35.0645 3.38281 34.6953 3.28125 34.2422 3.28125C33.5742 3.28125 33.084 3.50195 32.7715 3.94336C32.4629 4.38477 32.3086 4.99609 32.3086 5.77734ZM41.918 2.46094C42.6797 2.46094 43.2559 2.64844 43.6465 3.02344C44.0371 3.39453 44.2324 3.99219 44.2324 4.81641V9H43.2715V4.88086C43.2715 4.3457 43.1484 3.94531 42.9023 3.67969C42.6602 3.41406 42.2871 3.28125 41.7832 3.28125C41.0723 3.28125 40.5723 3.48242 40.2832 3.88477C39.9941 4.28711 39.8496 4.87109 39.8496 5.63672V9H38.877V2.57812H39.6621L39.8086 3.50391H39.8613C39.998 3.27734 40.1719 3.08789 40.3828 2.93555C40.5938 2.7793 40.8301 2.66211 41.0918 2.58398C41.3535 2.50195 41.6289 2.46094 41.918 2.46094ZM1.99805 18.5781V25H1.02539V18.5781H1.99805ZM1.52344 16.1758C1.68359 16.1758 1.82031 16.2285 1.93359 16.334C2.05078 16.4355 2.10938 16.5957 2.10938 16.8145C2.10938 17.0293 2.05078 17.1895 1.93359 17.2949C1.82031 17.4004 1.68359 17.4531 1.52344 17.4531C1.35547 17.4531 1.21484 17.4004 1.10156 17.2949C0.992188 17.1895 0.9375 17.0293 0.9375 16.8145C0.9375 16.5957 0.992188 16.4355 1.10156 16.334C1.21484 16.2285 1.35547 16.1758 1.52344 16.1758ZM7.10156 18.4609C7.86328 18.4609 8.43945 18.6484 8.83008 19.0234C9.2207 19.3945 9.41602 19.9922 9.41602 20.8164V25H8.45508V20.8809C8.45508 20.3457 8.33203 19.9453 8.08594 19.6797C7.84375 19.4141 7.4707 19.2812 6.9668 19.2812C6.25586 19.2812 5.75586 19.4824 5.4668 19.8848C5.17773 20.2871 5.0332 20.8711 5.0332 21.6367V25H4.06055V18.5781H4.8457L4.99219 19.5039H5.04492C5.18164 19.2773 5.35547 19.0879 5.56641 18.9355C5.77734 18.7793 6.01367 18.6621 6.27539 18.584C6.53711 18.502 6.8125 18.4609 7.10156 18.4609ZM15.5156 25H14.5371V15.8828H15.5156V25ZM18.5449 18.5781V25H17.5723V18.5781H18.5449ZM18.0703 16.1758C18.2305 16.1758 18.3672 16.2285 18.4805 16.334C18.5977 16.4355 18.6562 16.5957 18.6562 16.8145C18.6562 17.0293 18.5977 17.1895 18.4805 17.2949C18.3672 17.4004 18.2305 17.4531 18.0703 17.4531C17.9023 17.4531 17.7617 17.4004 17.6484 17.2949C17.5391 17.1895 17.4844 17.0293 17.4844 16.8145C17.4844 16.5957 17.5391 16.4355 17.6484 16.334C17.7617 16.2285 17.9023 16.1758 18.0703 16.1758ZM23.6484 18.4609C24.4102 18.4609 24.9863 18.6484 25.377 19.0234C25.7676 19.3945 25.9629 19.9922 25.9629 20.8164V25H25.002V20.8809C25.002 20.3457 24.8789 19.9453 24.6328 19.6797C24.3906 19.4141 24.0176 19.2812 23.5137 19.2812C22.8027 19.2812 22.3027 19.4824 22.0137 19.8848C21.7246 20.2871 21.5801 20.8711 21.5801 21.6367V25H20.6074V18.5781H21.3926L21.5391 19.5039H21.5918C21.7285 19.2773 21.9023 19.0879 22.1133 18.9355C22.3242 18.7793 22.5605 18.6621 22.8223 18.584C23.084 18.502 23.3594 18.4609 23.6484 18.4609ZM30.4395 18.4609C30.9863 18.4609 31.4551 18.582 31.8457 18.8242C32.2363 19.0664 32.5352 19.4062 32.7422 19.8438C32.9492 20.2773 33.0527 20.7852 33.0527 21.3672V21.9707H28.6172C28.6289 22.7246 28.8164 23.2988 29.1797 23.6934C29.543 24.0879 30.0547 24.2852 30.7148 24.2852C31.1211 24.2852 31.4805 24.248 31.793 24.1738C32.1055 24.0996 32.4297 23.9902 32.7656 23.8457V24.7012C32.4414 24.8457 32.1191 24.9512 31.7988 25.0176C31.4824 25.084 31.1074 25.1172 30.6738 25.1172C30.0566 25.1172 29.5176 24.9922 29.0566 24.7422C28.5996 24.4883 28.2441 24.1172 27.9902 23.6289C27.7363 23.1406 27.6094 22.543 27.6094 21.8359C27.6094 21.1445 27.7246 20.5469 27.9551 20.043C28.1895 19.5352 28.5176 19.1445 28.9395 18.8711C29.3652 18.5977 29.8652 18.4609 30.4395 18.4609ZM30.4277 19.2578C29.9082 19.2578 29.4941 19.4277 29.1855 19.7676C28.877 20.1074 28.6934 20.582 28.6348 21.1914H32.0332C32.0293 20.8086 31.9688 20.4727 31.8516 20.1836C31.7383 19.8906 31.5645 19.6641 31.3301 19.5039C31.0957 19.3398 30.7949 19.2578 30.4277 19.2578Z" fill="white"/>
</svg>
