<svg width="179" height="19" viewBox="0 0 179 19" fill="none" xmlns="http://www.w3.org/2000/svg">
<path d="M16.625 9.2124C16.9961 9.46598 17.327 9.75358 17.6177 10.0752C17.9084 10.3968 18.1589 10.7493 18.3691 11.1328C18.5794 11.5163 18.734 11.9214 18.833 12.3481C18.932 12.7749 18.9876 13.2109 19 13.6562C19 14.3923 18.8608 15.085 18.5825 15.7344C18.3042 16.3838 17.9207 16.9497 17.4321 17.4321C16.9435 17.9146 16.3776 18.2949 15.7344 18.5732C15.0911 18.8516 14.3984 18.9938 13.6562 19C13.0934 19 12.5492 18.9165 12.0234 18.7495C11.4977 18.5825 11.0153 18.3413 10.5762 18.0259C10.137 17.7104 9.7474 17.3332 9.40723 16.894C9.06706 16.4549 8.8042 15.9694 8.61865 15.4375H1.1875V1.1875H3.5625V0H4.75V1.1875H13.0625V0H14.25V1.1875H16.625V9.2124ZM2.375 2.375V4.75H15.4375V2.375H14.25V3.5625H13.0625V2.375H4.75V3.5625H3.5625V2.375H2.375ZM8.34033 14.25C8.32178 14.0583 8.3125 13.8604 8.3125 13.6562C8.3125 13.1243 8.38672 12.6079 8.53516 12.1069C8.68359 11.606 8.90934 11.1328 9.2124 10.6875H8.3125V9.5H9.5V10.2979C9.75358 9.98242 10.035 9.7041 10.3442 9.46289C10.6535 9.22168 10.9875 9.01449 11.3462 8.84131C11.7049 8.66813 12.0791 8.53825 12.4688 8.45166C12.8584 8.36507 13.2542 8.31868 13.6562 8.3125C14.2747 8.3125 14.8685 8.41455 15.4375 8.61865V5.9375H2.375V14.25H8.34033ZM13.6562 17.8125C14.2314 17.8125 14.7695 17.7043 15.2705 17.4878C15.7715 17.2713 16.2106 16.9744 16.5879 16.5972C16.9652 16.2199 17.262 15.7808 17.4785 15.2798C17.695 14.7788 17.8063 14.2376 17.8125 13.6562C17.8125 13.0811 17.7043 12.543 17.4878 12.042C17.2713 11.541 16.9744 11.1019 16.5972 10.7246C16.2199 10.3473 15.7808 10.0505 15.2798 9.83398C14.7788 9.61751 14.2376 9.50618 13.6562 9.5C13.0811 9.5 12.543 9.60824 12.042 9.82471C11.541 10.0412 11.1019 10.3381 10.7246 10.7153C10.3473 11.0926 10.0505 11.5317 9.83398 12.0327C9.61751 12.5337 9.50618 13.0749 9.5 13.6562C9.5 14.2314 9.60824 14.7695 9.82471 15.2705C10.0412 15.7715 10.3381 16.2106 10.7153 16.5879C11.0926 16.9652 11.5317 17.262 12.0327 17.4785C12.5337 17.695 13.0749 17.8063 13.6562 17.8125ZM14.25 13.0625H16.0312V14.25H13.0625V10.6875H14.25V13.0625ZM3.5625 9.5H4.75V10.6875H3.5625V9.5ZM5.9375 9.5H7.125V10.6875H5.9375V9.5ZM5.9375 7.125H7.125V8.3125H5.9375V7.125ZM3.5625 11.875H4.75V13.0625H3.5625V11.875ZM5.9375 11.875H7.125V13.0625H5.9375V11.875ZM9.5 8.3125H8.3125V7.125H9.5V8.3125ZM11.875 8.3125H10.6875V7.125H11.875V8.3125ZM14.25 8.3125H13.0625V7.125H14.25V8.3125Z" fill="white"/>
<path d="M34.1348 12.3408C34.1348 12.9333 33.9867 13.4391 33.6904 13.8584C33.3988 14.2731 32.9886 14.5898 32.46 14.8086C31.9313 15.0273 31.3092 15.1367 30.5938 15.1367C30.2155 15.1367 29.8577 15.1185 29.5205 15.082C29.1833 15.0456 28.8734 14.9932 28.5908 14.9248C28.3083 14.8564 28.0599 14.7721 27.8457 14.6719V13.5576C28.1875 13.6989 28.6045 13.8311 29.0967 13.9541C29.5889 14.0726 30.1038 14.1318 30.6416 14.1318C31.1429 14.1318 31.5667 14.0658 31.9131 13.9336C32.2594 13.7969 32.5215 13.6032 32.6992 13.3525C32.8815 13.0973 32.9727 12.792 32.9727 12.4365C32.9727 12.0947 32.8975 11.8099 32.7471 11.582C32.5967 11.3496 32.346 11.14 31.9951 10.9531C31.6488 10.7617 31.1748 10.5589 30.5732 10.3447C30.1494 10.1943 29.7757 10.0303 29.4521 9.85254C29.1286 9.67025 28.8574 9.46517 28.6387 9.2373C28.4199 9.00944 28.2536 8.74512 28.1396 8.44434C28.0303 8.14355 27.9756 7.79948 27.9756 7.41211C27.9756 6.87891 28.11 6.42318 28.3789 6.04492C28.6523 5.66211 29.0283 5.37044 29.5068 5.16992C29.9899 4.96484 30.5436 4.8623 31.168 4.8623C31.7012 4.8623 32.1934 4.91243 32.6445 5.0127C33.1003 5.11296 33.5173 5.2474 33.8955 5.41602L33.5332 6.41406C33.1732 6.26367 32.7904 6.13835 32.3848 6.03809C31.9837 5.93783 31.569 5.8877 31.1406 5.8877C30.7122 5.8877 30.3499 5.9515 30.0537 6.0791C29.762 6.20215 29.5387 6.3776 29.3838 6.60547C29.2288 6.83333 29.1514 7.10449 29.1514 7.41895C29.1514 7.76986 29.2243 8.06152 29.3701 8.29395C29.5205 8.52637 29.7575 8.73372 30.0811 8.91602C30.4092 9.09375 30.8421 9.2806 31.3799 9.47656C31.9678 9.69076 32.4668 9.91862 32.877 10.1602C33.2871 10.3971 33.5993 10.6888 33.8135 11.0352C34.0277 11.377 34.1348 11.8122 34.1348 12.3408ZM38.8105 7.38477C39.7038 7.38477 40.3669 7.58529 40.7998 7.98633C41.2327 8.38737 41.4492 9.02767 41.4492 9.90723V15H40.6221L40.4033 13.8926H40.3486C40.139 14.166 39.9202 14.3962 39.6924 14.583C39.4645 14.7653 39.2002 14.9043 38.8994 15C38.6032 15.0911 38.2386 15.1367 37.8057 15.1367C37.3499 15.1367 36.9443 15.057 36.5889 14.8975C36.238 14.738 35.96 14.4964 35.7549 14.1729C35.5544 13.8493 35.4541 13.4391 35.4541 12.9424C35.4541 12.195 35.7503 11.6208 36.3428 11.2197C36.9352 10.8187 37.8376 10.5999 39.0498 10.5635L40.3418 10.5088V10.0508C40.3418 9.40365 40.2028 8.9502 39.9248 8.69043C39.6468 8.43066 39.2549 8.30078 38.749 8.30078C38.3571 8.30078 37.9834 8.35775 37.6279 8.47168C37.2725 8.58561 36.9352 8.72005 36.6162 8.875L36.2676 8.01367C36.6048 7.84049 36.9922 7.69238 37.4297 7.56934C37.8672 7.44629 38.3275 7.38477 38.8105 7.38477ZM40.3281 11.3086L39.1865 11.3564C38.2523 11.3929 37.5938 11.5456 37.2109 11.8145C36.8281 12.0833 36.6367 12.4639 36.6367 12.9561C36.6367 13.3844 36.7666 13.7012 37.0264 13.9062C37.2861 14.1113 37.6302 14.2139 38.0586 14.2139C38.724 14.2139 39.2686 14.0293 39.6924 13.6602C40.1162 13.291 40.3281 12.7373 40.3281 11.999V11.3086ZM46.207 14.207C46.3939 14.207 46.5853 14.1911 46.7812 14.1592C46.9772 14.1273 47.1367 14.0885 47.2598 14.043V14.9248C47.1276 14.984 46.943 15.0342 46.7061 15.0752C46.4736 15.1162 46.2458 15.1367 46.0225 15.1367C45.626 15.1367 45.266 15.0684 44.9424 14.9316C44.6188 14.7904 44.359 14.5534 44.1631 14.2207C43.9717 13.888 43.876 13.4277 43.876 12.8398V8.39648H42.8096V7.84277L43.8828 7.39844L44.334 5.77148H45.0176V7.50781H47.2119V8.39648H45.0176V12.8057C45.0176 13.2751 45.1247 13.626 45.3389 13.8584C45.5576 14.0908 45.847 14.207 46.207 14.207ZM54.9639 7.50781V15H54.0342L53.8701 13.9473H53.8086C53.6536 14.207 53.4531 14.4258 53.207 14.6035C52.9609 14.7812 52.6829 14.9134 52.373 15C52.0677 15.0911 51.7419 15.1367 51.3955 15.1367C50.8031 15.1367 50.3063 15.041 49.9053 14.8496C49.5042 14.6582 49.2012 14.362 48.9961 13.9609C48.7956 13.5599 48.6953 13.0449 48.6953 12.416V7.50781H49.8438V12.334C49.8438 12.9583 49.985 13.4255 50.2676 13.7354C50.5501 14.0407 50.9808 14.1934 51.5596 14.1934C52.1156 14.1934 52.5576 14.0885 52.8857 13.8789C53.2184 13.6693 53.4577 13.3617 53.6035 12.9561C53.7493 12.5459 53.8223 12.0446 53.8223 11.4521V7.50781H54.9639ZM60.7676 7.37109C60.918 7.37109 61.0752 7.38021 61.2393 7.39844C61.4033 7.41211 61.5492 7.43262 61.6768 7.45996L61.5332 8.5127C61.4102 8.48079 61.2734 8.45573 61.123 8.4375C60.9727 8.41927 60.8314 8.41016 60.6992 8.41016C60.3984 8.41016 60.1136 8.47168 59.8447 8.59473C59.5804 8.71322 59.348 8.88639 59.1475 9.11426C58.9469 9.33757 58.7897 9.60872 58.6758 9.92773C58.5618 10.2422 58.5049 10.5931 58.5049 10.9805V15H57.3633V7.50781H58.3066L58.4297 8.88867H58.4775C58.6325 8.61068 58.8193 8.35775 59.0381 8.12988C59.2568 7.89746 59.5098 7.71289 59.7969 7.57617C60.0885 7.43945 60.4121 7.37109 60.7676 7.37109ZM65.7578 15.1367C64.8099 15.1367 64.0579 14.8132 63.502 14.166C62.9505 13.5189 62.6748 12.5573 62.6748 11.2812C62.6748 9.99154 62.9574 9.01855 63.5225 8.3623C64.0876 7.7015 64.8395 7.37109 65.7783 7.37109C66.1748 7.37109 66.5212 7.4235 66.8174 7.52832C67.1136 7.63314 67.3688 7.77441 67.583 7.95215C67.7972 8.12533 67.9772 8.32357 68.123 8.54688H68.2051C68.1868 8.4056 68.1686 8.21191 68.1504 7.96582C68.1322 7.71973 68.123 7.51921 68.123 7.36426V4.36328H69.2578V15H68.3418L68.1709 13.9336H68.123C67.9818 14.1569 67.8018 14.3597 67.583 14.542C67.3688 14.7243 67.1113 14.8701 66.8105 14.9795C66.5143 15.0843 66.1634 15.1367 65.7578 15.1367ZM65.9355 14.1934C66.7376 14.1934 67.305 13.9655 67.6377 13.5098C67.9704 13.054 68.1367 12.3773 68.1367 11.4795V11.2744C68.1367 10.3219 67.9772 9.59049 67.6582 9.08008C67.3438 8.56966 66.7695 8.31445 65.9355 8.31445C65.2383 8.31445 64.7165 8.58333 64.3701 9.12109C64.0238 9.6543 63.8506 10.3835 63.8506 11.3086C63.8506 12.2292 64.0215 12.9401 64.3633 13.4414C64.7096 13.9427 65.2337 14.1934 65.9355 14.1934ZM74.4668 7.38477C75.36 7.38477 76.0231 7.58529 76.4561 7.98633C76.889 8.38737 77.1055 9.02767 77.1055 9.90723V15H76.2783L76.0596 13.8926H76.0049C75.7952 14.166 75.5765 14.3962 75.3486 14.583C75.1208 14.7653 74.8564 14.9043 74.5557 15C74.2594 15.0911 73.8949 15.1367 73.4619 15.1367C73.0062 15.1367 72.6006 15.057 72.2451 14.8975C71.8942 14.738 71.6162 14.4964 71.4111 14.1729C71.2106 13.8493 71.1104 13.4391 71.1104 12.9424C71.1104 12.195 71.4066 11.6208 71.999 11.2197C72.5915 10.8187 73.4938 10.5999 74.7061 10.5635L75.998 10.5088V10.0508C75.998 9.40365 75.859 8.9502 75.5811 8.69043C75.3031 8.43066 74.9111 8.30078 74.4053 8.30078C74.0133 8.30078 73.6396 8.35775 73.2842 8.47168C72.9287 8.58561 72.5915 8.72005 72.2725 8.875L71.9238 8.01367C72.2611 7.84049 72.6484 7.69238 73.0859 7.56934C73.5234 7.44629 73.9837 7.38477 74.4668 7.38477ZM75.9844 11.3086L74.8428 11.3564C73.9085 11.3929 73.25 11.5456 72.8672 11.8145C72.4844 12.0833 72.293 12.4639 72.293 12.9561C72.293 13.3844 72.4229 13.7012 72.6826 13.9062C72.9424 14.1113 73.2865 14.2139 73.7148 14.2139C74.3802 14.2139 74.9248 14.0293 75.3486 13.6602C75.7725 13.291 75.9844 12.7373 75.9844 11.999V11.3086ZM78.2607 7.50781H79.4775L81.1318 11.8555C81.2275 12.1107 81.3164 12.3568 81.3984 12.5938C81.4805 12.8262 81.5534 13.0495 81.6172 13.2637C81.681 13.4779 81.7311 13.6852 81.7676 13.8857H81.8154C81.8792 13.6579 81.9704 13.3594 82.0889 12.9902C82.2074 12.6165 82.335 12.236 82.4717 11.8486L84.0371 7.50781H85.2607L82 16.1006C81.8268 16.5609 81.624 16.9619 81.3916 17.3037C81.1637 17.6455 80.8857 17.9076 80.5576 18.0898C80.2295 18.2767 79.833 18.3701 79.3682 18.3701C79.154 18.3701 78.9648 18.3564 78.8008 18.3291C78.6367 18.3063 78.4954 18.279 78.377 18.2471V17.3379C78.4772 17.3607 78.598 17.3812 78.7393 17.3994C78.8851 17.4176 79.0355 17.4268 79.1904 17.4268C79.473 17.4268 79.7168 17.3721 79.9219 17.2627C80.1315 17.1579 80.3115 17.0029 80.4619 16.7979C80.6123 16.5928 80.7422 16.349 80.8516 16.0664L81.2617 15.0137L78.2607 7.50781ZM87.7559 13.373L87.8447 13.5303C87.7627 13.863 87.6579 14.2184 87.5303 14.5967C87.4072 14.9749 87.2705 15.3532 87.1201 15.7314C86.9743 16.1143 86.8262 16.472 86.6758 16.8047H85.8281C85.9238 16.4401 86.0173 16.055 86.1084 15.6494C86.1995 15.2484 86.2816 14.8519 86.3545 14.46C86.432 14.0635 86.4935 13.7012 86.5391 13.373H87.7559ZM98.2832 15L94.9268 6.1543H94.8721C94.8903 6.34115 94.9062 6.56901 94.9199 6.83789C94.9336 7.10677 94.945 7.40072 94.9541 7.71973C94.9632 8.03418 94.9678 8.35547 94.9678 8.68359V15H93.8877V5.00586H95.6104L98.7754 13.3184H98.8232L102.036 5.00586H103.745V15H102.597V8.60156C102.597 8.30534 102.601 8.00911 102.61 7.71289C102.619 7.41211 102.631 7.12956 102.645 6.86523C102.658 6.59635 102.672 6.36393 102.686 6.16797H102.631L99.2334 15H98.2832ZM109.111 7.38477C110.005 7.38477 110.668 7.58529 111.101 7.98633C111.534 8.38737 111.75 9.02767 111.75 9.90723V15H110.923L110.704 13.8926H110.649C110.44 14.166 110.221 14.3962 109.993 14.583C109.765 14.7653 109.501 14.9043 109.2 15C108.904 15.0911 108.539 15.1367 108.106 15.1367C107.651 15.1367 107.245 15.057 106.89 14.8975C106.539 14.738 106.261 14.4964 106.056 14.1729C105.855 13.8493 105.755 13.4391 105.755 12.9424C105.755 12.195 106.051 11.6208 106.644 11.2197C107.236 10.8187 108.138 10.5999 109.351 10.5635L110.643 10.5088V10.0508C110.643 9.40365 110.504 8.9502 110.226 8.69043C109.948 8.43066 109.556 8.30078 109.05 8.30078C108.658 8.30078 108.284 8.35775 107.929 8.47168C107.573 8.58561 107.236 8.72005 106.917 8.875L106.568 8.01367C106.906 7.84049 107.293 7.69238 107.73 7.56934C108.168 7.44629 108.628 7.38477 109.111 7.38477ZM110.629 11.3086L109.487 11.3564C108.553 11.3929 107.895 11.5456 107.512 11.8145C107.129 12.0833 106.938 12.4639 106.938 12.9561C106.938 13.3844 107.067 13.7012 107.327 13.9062C107.587 14.1113 107.931 14.2139 108.359 14.2139C109.025 14.2139 109.569 14.0293 109.993 13.6602C110.417 13.291 110.629 12.7373 110.629 11.999V11.3086ZM112.905 7.50781H114.122L115.776 11.8555C115.872 12.1107 115.961 12.3568 116.043 12.5938C116.125 12.8262 116.198 13.0495 116.262 13.2637C116.326 13.4779 116.376 13.6852 116.412 13.8857H116.46C116.524 13.6579 116.615 13.3594 116.733 12.9902C116.852 12.6165 116.979 12.236 117.116 11.8486L118.682 7.50781H119.905L116.645 16.1006C116.471 16.5609 116.269 16.9619 116.036 17.3037C115.808 17.6455 115.53 17.9076 115.202 18.0898C114.874 18.2767 114.478 18.3701 114.013 18.3701C113.799 18.3701 113.609 18.3564 113.445 18.3291C113.281 18.3063 113.14 18.279 113.021 18.2471V17.3379C113.122 17.3607 113.243 17.3812 113.384 17.3994C113.53 17.4176 113.68 17.4268 113.835 17.4268C114.118 17.4268 114.361 17.3721 114.566 17.2627C114.776 17.1579 114.956 17.0029 115.106 16.7979C115.257 16.5928 115.387 16.349 115.496 16.0664L115.906 15.0137L112.905 7.50781ZM128.457 15H127.35V7.91797C127.35 7.64909 127.35 7.41895 127.35 7.22754C127.354 7.03158 127.359 6.85384 127.363 6.69434C127.372 6.53027 127.384 6.36393 127.397 6.19531C127.256 6.34115 127.124 6.46647 127.001 6.57129C126.878 6.67155 126.725 6.79688 126.543 6.94727L125.401 7.86328L124.807 7.09082L127.514 5.00586H128.457V15ZM138.848 9.98926C138.848 10.8005 138.786 11.5251 138.663 12.1631C138.54 12.8011 138.346 13.3411 138.082 13.7832C137.818 14.2253 137.476 14.5625 137.057 14.7949C136.637 15.0228 136.134 15.1367 135.546 15.1367C134.803 15.1367 134.188 14.9339 133.7 14.5283C133.217 14.1227 132.855 13.5371 132.613 12.7715C132.376 12.0013 132.258 11.0739 132.258 9.98926C132.258 8.92285 132.365 8.00684 132.579 7.24121C132.798 6.47103 133.149 5.88086 133.632 5.4707C134.115 5.05599 134.753 4.84863 135.546 4.84863C136.298 4.84863 136.918 5.05371 137.405 5.46387C137.893 5.86947 138.255 6.45736 138.492 7.22754C138.729 7.99316 138.848 8.91374 138.848 9.98926ZM133.399 9.98926C133.399 10.9189 133.47 11.6937 133.611 12.3135C133.753 12.9333 133.98 13.3981 134.295 13.708C134.614 14.0133 135.031 14.166 135.546 14.166C136.061 14.166 136.476 14.0133 136.79 13.708C137.109 13.4027 137.339 12.9401 137.48 12.3203C137.626 11.7005 137.699 10.9235 137.699 9.98926C137.699 9.07324 137.629 8.30762 137.487 7.69238C137.346 7.07259 137.118 6.60775 136.804 6.29785C136.489 5.9834 136.07 5.82617 135.546 5.82617C135.022 5.82617 134.603 5.9834 134.288 6.29785C133.974 6.60775 133.746 7.07259 133.604 7.69238C133.468 8.30762 133.399 9.07324 133.399 9.98926ZM142.061 13.373L142.149 13.5303C142.067 13.863 141.963 14.2184 141.835 14.5967C141.712 14.9749 141.575 15.3532 141.425 15.7314C141.279 16.1143 141.131 16.472 140.98 16.8047H140.133C140.229 16.4401 140.322 16.055 140.413 15.6494C140.504 15.2484 140.586 14.8519 140.659 14.46C140.737 14.0635 140.798 13.7012 140.844 13.373H142.061ZM154.064 15H147.516V14.0498L150.188 11.3359C150.685 10.8346 151.102 10.388 151.439 9.99609C151.781 9.60417 152.041 9.21908 152.219 8.84082C152.396 8.45801 152.485 8.03874 152.485 7.58301C152.485 7.0179 152.317 6.58724 151.979 6.29102C151.647 5.99023 151.207 5.83984 150.66 5.83984C150.182 5.83984 149.758 5.92188 149.389 6.08594C149.02 6.25 148.641 6.48242 148.254 6.7832L147.646 6.01758C147.91 5.79427 148.197 5.59603 148.507 5.42285C148.821 5.24967 149.156 5.11296 149.512 5.0127C149.872 4.91243 150.255 4.8623 150.66 4.8623C151.275 4.8623 151.806 4.9694 152.253 5.18359C152.7 5.39779 153.044 5.70312 153.285 6.09961C153.531 6.49609 153.654 6.96777 153.654 7.51465C153.654 8.04329 153.549 8.53548 153.34 8.99121C153.13 9.44238 152.836 9.89128 152.458 10.3379C152.08 10.7799 151.638 11.2493 151.132 11.7461L148.958 13.9131V13.9609H154.064V15ZM162.131 9.98926C162.131 10.8005 162.069 11.5251 161.946 12.1631C161.823 12.8011 161.63 13.3411 161.365 13.7832C161.101 14.2253 160.759 14.5625 160.34 14.7949C159.921 15.0228 159.417 15.1367 158.829 15.1367C158.086 15.1367 157.471 14.9339 156.983 14.5283C156.5 14.1227 156.138 13.5371 155.896 12.7715C155.66 12.0013 155.541 11.0739 155.541 9.98926C155.541 8.92285 155.648 8.00684 155.862 7.24121C156.081 6.47103 156.432 5.88086 156.915 5.4707C157.398 5.05599 158.036 4.84863 158.829 4.84863C159.581 4.84863 160.201 5.05371 160.688 5.46387C161.176 5.86947 161.538 6.45736 161.775 7.22754C162.012 7.99316 162.131 8.91374 162.131 9.98926ZM156.683 9.98926C156.683 10.9189 156.753 11.6937 156.895 12.3135C157.036 12.9333 157.264 13.3981 157.578 13.708C157.897 14.0133 158.314 14.166 158.829 14.166C159.344 14.166 159.759 14.0133 160.073 13.708C160.392 13.4027 160.622 12.9401 160.764 12.3203C160.91 11.7005 160.982 10.9235 160.982 9.98926C160.982 9.07324 160.912 8.30762 160.771 7.69238C160.629 7.07259 160.401 6.60775 160.087 6.29785C159.772 5.9834 159.353 5.82617 158.829 5.82617C158.305 5.82617 157.886 5.9834 157.571 6.29785C157.257 6.60775 157.029 7.07259 156.888 7.69238C156.751 8.30762 156.683 9.07324 156.683 9.98926ZM170.088 15H163.539V14.0498L166.212 11.3359C166.709 10.8346 167.126 10.388 167.463 9.99609C167.805 9.60417 168.064 9.21908 168.242 8.84082C168.42 8.45801 168.509 8.03874 168.509 7.58301C168.509 7.0179 168.34 6.58724 168.003 6.29102C167.67 5.99023 167.23 5.83984 166.684 5.83984C166.205 5.83984 165.781 5.92188 165.412 6.08594C165.043 6.25 164.665 6.48242 164.277 6.7832L163.669 6.01758C163.933 5.79427 164.22 5.59603 164.53 5.42285C164.845 5.24967 165.18 5.11296 165.535 5.0127C165.895 4.91243 166.278 4.8623 166.684 4.8623C167.299 4.8623 167.83 4.9694 168.276 5.18359C168.723 5.39779 169.067 5.70312 169.309 6.09961C169.555 6.49609 169.678 6.96777 169.678 7.51465C169.678 8.04329 169.573 8.53548 169.363 8.99121C169.154 9.44238 168.86 9.89128 168.481 10.3379C168.103 10.7799 167.661 11.2493 167.155 11.7461L164.981 13.9131V13.9609H170.088V15ZM177.73 7.33691C177.73 7.78353 177.644 8.1709 177.471 8.49902C177.298 8.82715 177.056 9.09603 176.746 9.30566C176.436 9.51074 176.072 9.6543 175.652 9.73633V9.79102C176.445 9.89128 177.04 10.1465 177.437 10.5566C177.838 10.9668 178.038 11.5046 178.038 12.1699C178.038 12.7487 177.901 13.2614 177.628 13.708C177.359 14.1546 176.944 14.5055 176.384 14.7607C175.828 15.0114 175.115 15.1367 174.244 15.1367C173.715 15.1367 173.226 15.0934 172.774 15.0068C172.328 14.9248 171.899 14.7858 171.489 14.5898V13.5234C171.904 13.7285 172.355 13.8903 172.843 14.0088C173.33 14.1227 173.802 14.1797 174.258 14.1797C175.169 14.1797 175.828 13.9997 176.233 13.6396C176.639 13.2751 176.842 12.7783 176.842 12.1494C176.842 11.7165 176.728 11.3678 176.5 11.1035C176.277 10.8346 175.953 10.6387 175.529 10.5156C175.11 10.388 174.604 10.3242 174.012 10.3242H173.014V9.35352H174.019C174.561 9.35352 175.021 9.27376 175.399 9.11426C175.778 8.95475 176.065 8.73145 176.261 8.44434C176.461 8.15267 176.562 7.80859 176.562 7.41211C176.562 6.90625 176.393 6.5166 176.056 6.24316C175.718 5.96517 175.26 5.82617 174.682 5.82617C174.326 5.82617 174.003 5.86263 173.711 5.93555C173.419 6.00846 173.146 6.10872 172.891 6.23633C172.635 6.36393 172.38 6.51204 172.125 6.68066L171.551 5.90137C171.915 5.61882 172.36 5.375 172.884 5.16992C173.408 4.96484 174.003 4.8623 174.668 4.8623C175.689 4.8623 176.454 5.09473 176.965 5.55957C177.475 6.02441 177.73 6.61686 177.73 7.33691Z" fill="white"/>
</svg>
