<svg width="37" height="36" viewBox="0 0 37 36" fill="none" xmlns="http://www.w3.org/2000/svg">
<path d="M19 3L17.625 4.47995C17.625 4.47995 15.2783 7.03463 12.9133 10.3469C10.5483 13.6592 8 17.6233 8 21.4289C8 24.2325 9.15893 26.9213 11.2218 28.9038C13.2847 30.8863 16.0826 32 19 32C21.9174 32 24.7153 30.8863 26.7782 28.9038C28.8411 26.9213 30 24.2325 30 21.4289C30 17.6233 27.4517 13.6592 25.0867 10.3469C23.6279 8.31061 22.0551 6.35207 20.375 4.47995L19 3ZM19 8.51458C19.8067 9.43074 20.54 10.1883 22.08 12.3378C24.2983 15.4386 26.3333 19.3852 26.3333 21.4289C26.3333 25.3402 23.07 28.4763 19 28.4763C14.93 28.4763 11.6667 25.3402 11.6667 21.4289C11.6667 19.3852 13.7017 15.4386 15.92 12.3378C17.46 10.1883 18.1933 9.43074 19 8.51458Z" fill="#FA3022"/>
</svg>
