<svg width="22" height="22" viewBox="0 0 22 22" fill="none" xmlns="http://www.w3.org/2000/svg">
<path d="M15.1318 7.60718C12.9662 4.95171 12.0089 2.69327 11.4606 1.34577C11.287 0.921241 10.7112 0.921241 10.5393 1.34577C9.99105 2.69327 9.03371 4.95171 6.86809 7.60718C5.51199 9.27093 4.1748 11.7064 4.1748 14.1058C4.1748 18.1998 7.12934 20.9722 11 20.9722C14.8706 20.9722 17.8251 18.1981 17.8251 14.1058C17.8251 11.6119 16.4879 9.27093 15.1318 7.60718Z" fill="#E5322E"/>
<path d="M12.8872 13.7225C13.9786 11.6462 13.8239 9.61468 14.6867 9.98078C15.8589 10.4809 17.1566 13.0505 16.6702 15.3794C16.323 17.0397 15.2023 18.0452 13.7741 17.5656C12.6208 17.1789 11.9041 15.5925 12.8872 13.7225Z" fill="#FF6050"/>
</svg>
