<svg width="22" height="22" viewBox="0 0 22 22" fill="none" xmlns="http://www.w3.org/2000/svg">
<g clip-path="url(#clip0_601_1753)">
<path d="M15.1318 7.60721C12.9662 4.95174 12.0089 2.6933 11.4606 1.3458C11.287 0.921272 10.7112 0.921272 10.5393 1.3458C9.99105 2.6933 9.03371 4.95174 6.86809 7.60721C5.51199 9.27096 4.1748 11.7064 4.1748 14.1058C4.1748 18.1999 7.12934 20.9722 11 20.9722C14.8706 20.9722 17.8251 18.1981 17.8251 14.1058C17.8251 11.6119 16.4879 9.27096 15.1318 7.60721Z" fill="#E5322E"/>
<path d="M12.8872 13.7225C13.9786 11.6462 13.8239 9.61468 14.6867 9.98078C15.8589 10.4809 17.1566 13.0505 16.6702 15.3794C16.323 17.0397 15.2023 18.0452 13.7741 17.5656C12.6208 17.1789 11.9041 15.5925 12.8872 13.7225Z" fill="#FF6050"/>
<path d="M14.4286 13.5714H11.5714V16.4286C11.5714 16.5801 11.5112 16.7255 11.4041 16.8326C11.2969 16.9398 11.1516 17 11 17C10.8484 17 10.7031 16.9398 10.5959 16.8326C10.4888 16.7255 10.4286 16.5801 10.4286 16.4286V13.5714H7.57143C7.41988 13.5714 7.27453 13.5112 7.16737 13.4041C7.0602 13.2969 7 13.1516 7 13C7 12.8484 7.0602 12.7031 7.16737 12.5959C7.27453 12.4888 7.41988 12.4286 7.57143 12.4286H10.4286V9.57143C10.4286 9.41988 10.4888 9.27453 10.5959 9.16737C10.7031 9.0602 10.8484 9 11 9C11.1516 9 11.2969 9.0602 11.4041 9.16737C11.5112 9.27453 11.5714 9.41988 11.5714 9.57143V12.4286H14.4286C14.5801 12.4286 14.7255 12.4888 14.8326 12.5959C14.9398 12.7031 15 12.8484 15 13C15 13.1516 14.9398 13.2969 14.8326 13.4041C14.7255 13.5112 14.5801 13.5714 14.4286 13.5714Z" fill="white"/>
</g>
<defs>
<clipPath id="clip0_601_1753">
<rect width="22" height="22" fill="white"/>
</clipPath>
</defs>
</svg>
