<svg width="37" height="36" viewBox="0 0 37 36" fill="none" xmlns="http://www.w3.org/2000/svg">
<path d="M24.1251 3.375V1.125C24.1251 0.826631 24.2436 0.540483 24.4546 0.329505C24.6656 0.118526 24.9517 0 25.2501 0C25.5484 0 25.8346 0.118526 26.0456 0.329505C26.2565 0.540483 26.3751 0.826631 26.3751 1.125V3.375C26.3751 3.67337 26.2565 3.95952 26.0456 4.1705C25.8346 4.38147 25.5484 4.5 25.2501 4.5C24.9517 4.5 24.6656 4.38147 24.4546 4.1705C24.2436 3.95952 24.1251 3.67337 24.1251 3.375ZM29.1637 5.76562C29.2898 5.84268 29.4298 5.89412 29.5759 5.91702C29.7219 5.93993 29.871 5.93383 30.0146 5.8991C30.1583 5.86436 30.2937 5.80166 30.4131 5.71457C30.5325 5.62749 30.6336 5.51773 30.7105 5.39156L31.8355 3.54797C31.9138 3.42181 31.9664 3.2814 31.9901 3.13484C32.0139 2.98828 32.0084 2.83847 31.974 2.69404C31.9396 2.54961 31.8769 2.41342 31.7896 2.29332C31.7023 2.17322 31.5921 2.0716 31.4653 1.99429C31.3386 1.91699 31.1978 1.86555 31.051 1.84293C30.9043 1.8203 30.7545 1.82695 30.6104 1.86249C30.4662 1.89803 30.3305 1.96175 30.2111 2.04998C30.0917 2.13821 29.9909 2.2492 29.9146 2.37656L28.7896 4.21875C28.7125 4.34478 28.661 4.48478 28.638 4.63073C28.6149 4.77668 28.6209 4.92573 28.6555 5.06938C28.6901 5.21302 28.7527 5.34844 28.8396 5.4679C28.9266 5.58737 29.0362 5.68853 29.1623 5.76562H29.1637ZM35.8349 7.53609C35.7434 7.25239 35.543 7.01662 35.2777 6.88057C35.0125 6.74451 34.7041 6.7193 34.4202 6.81047L32.3109 7.4925C32.0551 7.57426 31.8371 7.74479 31.6961 7.97328C31.5551 8.20177 31.5004 8.47314 31.542 8.73839C31.5836 9.00363 31.7187 9.24525 31.9229 9.4196C32.1271 9.59395 32.3869 9.68952 32.6554 9.68906C32.7728 9.68873 32.8895 9.67023 33.0013 9.63422L35.1107 8.95219C35.2517 8.90661 35.3823 8.83362 35.4951 8.73741C35.6078 8.6412 35.7004 8.52366 35.7676 8.39155C35.8347 8.25944 35.8751 8.11536 35.8865 7.96759C35.8978 7.81982 35.8798 7.67126 35.8335 7.53047L35.8349 7.53609ZM31.6162 13.1527C32.8599 15.2923 33.3605 17.7834 33.04 20.2374C32.7194 22.6914 31.5958 24.9703 29.8443 26.7188C29.2366 28.8422 28.0174 30.7399 26.3385 32.1751C24.6596 33.6103 22.5954 34.5195 20.4032 34.7894C18.211 35.0594 15.9879 34.678 14.011 33.6929C12.0341 32.7079 10.3909 31.1627 9.28632 29.25L4.36444 20.7239C4.06393 20.2027 3.8967 19.6153 3.87758 19.0139C3.85846 18.4126 3.98804 17.8158 4.25483 17.2765C4.52162 16.7372 4.91738 16.2721 5.407 15.9224C5.89661 15.5727 6.46496 15.3493 7.06163 15.2719L6.49913 14.2959C6.20327 13.7834 6.03626 13.2067 6.01243 12.6153C5.9886 12.024 6.10867 11.4357 6.36232 10.901C6.61598 10.3663 6.99564 9.90118 7.4687 9.54556C7.94176 9.18994 8.49407 8.95447 9.07819 8.85938C8.78515 8.05299 8.78503 7.16923 9.07785 6.36277C9.37066 5.5563 9.93777 4.87849 10.6799 4.44797C11.3603 4.05527 12.1492 3.89218 12.9295 3.98285C13.7099 4.07353 14.4403 4.41315 15.0126 4.95141C15.3634 4.44495 15.8366 4.03537 16.3881 3.76069C16.9395 3.48602 17.5515 3.35516 18.1671 3.38028C18.7827 3.40539 19.382 3.58565 19.9093 3.90434C20.4366 4.22302 20.8748 4.66978 21.1832 5.20312L22.8707 8.12672C23.2361 7.6486 23.7139 7.26805 24.2616 7.01886C24.8094 6.76966 25.4101 6.65951 26.0107 6.69818C26.6112 6.73685 27.1929 6.92315 27.7041 7.24054C28.2154 7.55794 28.6404 7.99661 28.9415 8.51766L31.6162 13.1527ZM27.7237 25.9608C28.033 24.8184 28.1128 23.6261 27.9583 22.4528C27.8038 21.2794 27.4181 20.1483 26.8237 19.125L24.1518 14.497C23.972 14.1816 23.6772 13.948 23.3291 13.845C22.981 13.742 22.6065 13.7776 22.2841 13.9443C21.9616 14.1111 21.7161 14.3961 21.599 14.7398C21.4819 15.0834 21.5022 15.459 21.6557 15.788L23.2616 18.5625C23.3355 18.6905 23.3834 18.8318 23.4027 18.9783C23.422 19.1248 23.4122 19.2736 23.3739 19.4163C23.3357 19.5591 23.2697 19.6929 23.1797 19.8101C23.0898 19.9273 22.9776 20.0257 22.8496 20.0995C22.7216 20.1734 22.5804 20.2213 22.4338 20.2406C22.2873 20.2599 22.1385 20.2501 21.9958 20.2118C21.853 20.1736 21.7192 20.1076 21.602 20.0176C21.4848 19.9277 21.3864 19.8155 21.3126 19.6875L16.3907 11.1839C16.1976 10.8781 15.8941 10.6585 15.5433 10.5707C15.1925 10.4828 14.8214 10.5335 14.507 10.7121C14.1925 10.8908 13.959 11.1837 13.855 11.53C13.7509 11.8764 13.7842 12.2495 13.948 12.5719L17.4102 18.5625C17.4888 18.6906 17.5409 18.8331 17.5634 18.9816C17.586 19.1301 17.5786 19.2817 17.5417 19.4273C17.5047 19.5729 17.439 19.7096 17.3484 19.8294C17.2577 19.9492 17.144 20.0497 17.0139 20.1248C16.8838 20.2 16.74 20.2483 16.5909 20.2669C16.4419 20.2856 16.2906 20.2742 16.146 20.2335C16.0014 20.1927 15.8664 20.1234 15.749 20.0296C15.6317 19.9358 15.5343 19.8195 15.4626 19.6875L10.8824 11.7647C10.7908 11.6035 10.6681 11.462 10.5215 11.3483C10.375 11.2347 10.2074 11.1512 10.0284 11.1026C9.84941 11.054 9.66259 11.0413 9.47868 11.0652C9.29477 11.0891 9.1174 11.1492 8.9568 11.2419C8.79619 11.3346 8.65551 11.4582 8.54285 11.6055C8.4302 11.7528 8.3478 11.921 8.3004 12.1003C8.253 12.2796 8.24153 12.4665 8.26665 12.6502C8.29177 12.834 8.35299 13.0109 8.44679 13.1709L10.6968 17.0691L13.5093 21.9403C13.5832 22.0683 13.6311 22.2096 13.6504 22.3561C13.6696 22.5026 13.6599 22.6514 13.6216 22.7942C13.5833 22.9369 13.5173 23.0707 13.4274 23.1879C13.3374 23.3051 13.2252 23.4035 13.0973 23.4773C12.9693 23.5512 12.828 23.5991 12.6815 23.6184C12.535 23.6377 12.3861 23.6279 12.2434 23.5897C12.1007 23.5514 11.9669 23.4854 11.8497 23.3954C11.7324 23.3055 11.6341 23.1933 11.5602 23.0653L8.74773 18.1941C8.55992 17.8737 8.25303 17.6406 7.89402 17.5457C7.53501 17.4508 7.15303 17.5017 6.83144 17.6874C6.50984 17.8731 6.27475 18.1784 6.17745 18.5368C6.08016 18.8952 6.12856 19.2775 6.3121 19.6003L11.234 28.1264C12.124 29.6682 13.4512 30.9114 15.0478 31.6988C16.6444 32.4862 18.4386 32.7824 20.2036 32.55C21.9686 32.3176 23.625 31.567 24.9633 30.3931C26.3016 29.2192 27.2618 27.6748 27.7223 25.9552L27.7237 25.9608Z" fill="#FA3022"/>
</svg>
