<svg width="33" height="30" viewBox="0 0 33 30" fill="none" xmlns="http://www.w3.org/2000/svg">
<path d="M8.59113 16.6875H2.95769C2.51014 16.6875 2.08092 16.5097 1.76445 16.1933C1.44798 15.8768 1.27019 15.4476 1.27019 15C1.27019 14.5525 1.44798 14.1232 1.76445 13.8068C2.08092 13.4903 2.51014 13.3125 2.95769 13.3125H7.68691L9.43769 10.6884C9.59163 10.4564 9.80059 10.266 10.046 10.1343C10.2913 10.0027 10.5655 9.93375 10.8439 9.93375C11.1224 9.93375 11.3966 10.0027 11.6419 10.1343C11.8873 10.266 12.0963 10.4564 12.2502 10.6884L15.3439 15.3291L16.1877 14.0634C16.3421 13.8321 16.5512 13.6425 16.7966 13.5114C17.0419 13.3804 17.3158 13.3121 17.5939 13.3125H20.9689C21.4165 13.3125 21.8457 13.4903 22.1622 13.8068C22.4787 14.1232 22.6564 14.5525 22.6564 15C22.6564 15.4476 22.4787 15.8768 22.1622 16.1933C21.8457 16.5097 21.4165 16.6875 20.9689 16.6875H18.4939L16.7418 19.3116C16.5878 19.5436 16.3789 19.734 16.1335 19.8657C15.8881 19.9974 15.614 20.0663 15.3355 20.0663C15.057 20.0663 14.7829 19.9974 14.5375 19.8657C14.2922 19.734 14.0832 19.5436 13.9293 19.3116L10.8355 14.6709L9.99176 15.9366C9.83792 16.1671 9.62966 16.3563 9.38538 16.4872C9.14109 16.6182 8.86831 16.687 8.59113 16.6875ZM23.5185 0.93751C20.6891 0.93751 18.1747 2.05267 16.4774 3.96939C14.7758 2.05267 12.2657 0.93751 9.43488 0.93751C7.14922 0.934145 4.9427 1.7743 3.2381 3.29699C1.53351 4.81969 0.450724 6.91783 0.197226 9.18939C0.147995 9.63563 0.278052 10.0832 0.558785 10.4335C0.839518 10.7839 1.24793 11.0084 1.69418 11.0576C2.14043 11.1068 2.58795 10.9768 2.93831 10.696C3.28867 10.4153 3.51315 10.0069 3.56238 9.56064C3.72429 8.11668 4.41278 6.78308 5.49618 5.81486C6.57959 4.84664 7.98188 4.31176 9.43488 4.31251C11.9422 4.31251 14.0404 5.63439 14.9122 7.76345C15.0382 8.07512 15.2545 8.34205 15.5332 8.53001C15.812 8.71796 16.1405 8.81838 16.4767 8.81838C16.8129 8.81838 17.1414 8.71796 17.4201 8.53001C17.6989 8.34205 17.9151 8.07512 18.0411 7.76345C18.913 5.63439 21.0111 4.31251 23.5185 4.31251C25.0862 4.31213 26.59 4.93387 27.6997 6.04123C28.8094 7.14858 29.4344 8.65105 29.4374 10.2188C29.4374 14.3559 25.8008 18.3427 22.7493 20.9569C20.7875 22.6196 18.6906 24.1159 16.4802 25.4302C14.9516 24.5231 11.5063 22.3364 8.53348 19.4213C8.3754 19.2658 8.18824 19.1429 7.98269 19.0598C7.77714 18.9766 7.55722 18.9347 7.33549 18.9366C7.11376 18.9384 6.89457 18.9839 6.69041 19.0704C6.48626 19.157 6.30116 19.2829 6.14566 19.4409C5.99017 19.599 5.86733 19.7862 5.78417 19.9917C5.70101 20.1973 5.65915 20.4172 5.66097 20.6389C5.66467 21.0867 5.8461 21.5147 6.16535 21.8288C10.4389 26.0208 15.4677 28.7475 15.68 28.86C15.9264 28.992 16.2015 29.061 16.4809 29.061C16.7603 29.061 17.0354 28.992 17.2818 28.86C17.9061 28.5197 32.8124 20.3916 32.8124 10.2188C32.8079 7.7564 31.8269 5.39636 30.0846 3.65639C28.3422 1.91642 25.9808 0.938623 23.5185 0.93751Z" fill="#FA3022"/>
</svg>
