<svg width="268" height="268" viewBox="0 0 268 268" fill="none" xmlns="http://www.w3.org/2000/svg">
<g clip-path="url(#clip0_496_2141)">
<path d="M180.643 151.373C180.203 151.191 165.471 144.543 165.175 144.443C160.756 142.841 160.936 140.007 160.378 136.825C160.268 136.202 160.167 135.578 160.077 134.962C172.199 130.468 182.074 113.994 183.758 109.428C184.004 108.681 184.504 107.275 184.951 105.606C185.549 105.5 185.888 105.448 185.888 105.448C187.888 105.114 189.767 104.267 191.342 102.99C193.281 101.341 194.841 99.2937 195.916 96.9867C198.196 92.422 199.178 87.3184 198.754 82.2335C198.695 80.9339 198.364 79.6612 197.782 78.4979C197.279 77.6548 196.594 76.9352 195.776 76.3918C194.959 75.8484 194.03 75.4952 193.058 75.3581C192.068 75.2134 191.058 75.2844 190.097 75.5662C189.136 75.8479 188.248 76.3338 187.493 76.9906C187.493 76.9906 195.244 34.0064 143.25 34.0064C90.4551 34.0064 94.1291 76.9951 94.1291 76.9951C93.3734 76.3383 92.4848 75.8524 91.524 75.5707C90.5633 75.2889 89.553 75.218 88.5623 75.3626C87.5905 75.4996 86.6618 75.8528 85.8445 76.3962C85.0272 76.9396 84.3422 77.6593 83.8399 78.5024C83.2575 79.6657 82.9263 80.9385 82.8677 82.2381C82.4427 87.323 83.4244 92.4268 85.7055 96.9912C86.78 99.2982 88.3401 101.346 90.2791 102.994C91.854 104.272 93.7333 105.119 95.7334 105.453L97.5101 105.725C99.243 112.165 102.317 118.167 106.531 123.336C109.835 127.42 113.881 130.843 118.455 133.426C118.313 134.561 118.143 135.694 117.943 136.825C117.386 139.999 117.561 142.845 113.142 144.443C112.849 144.549 100.145 150.576 97.8783 151.376C97.8783 151.376 101.154 183.3 135.551 183.3C169.947 183.3 180.643 151.373 180.643 151.373Z" fill="white"/>
<path d="M220.395 203.774C219.516 195.077 219.67 180.636 210.07 170.017C201.363 160.383 185.855 151.409 180.635 150.796C173.689 156.682 153.667 162.605 138.955 162.569C123.204 162.53 106.351 156.733 97.3269 150.869C84.0548 156.257 69.7851 161.738 63.6488 173.762C60.4258 179.889 57.7842 186.305 55.7585 192.925C53.0059 201.299 49.7256 217.155 50.2969 225.73C51.1685 238.812 53.2417 245.851 60.2197 252.326C69.7742 261.193 80.5568 257.698 89.8465 250.753C89.7232 256.798 89.6216 260.903 89.5209 265.79L152.782 265.357C179.648 265.121 207.289 264.877 225.444 264.829C223.912 244.863 222.254 222.181 220.395 203.774Z" fill="#F4B467"/>
<path d="M109.766 146.511C112.615 146.085 115.378 145.209 117.952 143.916C118.557 140.541 118.882 137.122 118.924 133.694C114.157 131.08 109.947 127.557 106.534 123.325C102.719 118.669 99.8458 113.315 98.0742 107.562C97.872 107.419 97.6742 107.271 97.4811 107.117C96.8621 106.611 96.288 106.052 95.7652 105.447H95.7361C95.6454 105.433 95.5547 105.411 95.464 105.395C94.2922 107.772 93.5317 110.33 93.2148 112.961C93.0109 114.68 92.9239 116.41 92.9546 118.141C93.0235 122.254 94.0647 126.462 94.2642 130.574C94.4555 134.67 93.3881 138.705 89.4837 140.023C89.3277 140.075 89.2924 140.578 89.3023 140.708C89.3289 141.023 89.4364 141.325 89.6143 141.585C90.143 142.312 90.828 142.91 91.6186 143.337C95.815 145.74 100.586 146.955 105.42 146.854C106.875 146.844 108.328 146.73 109.766 146.511Z" fill="#B5886A"/>
<path d="M93.6746 104.103C90.9638 109.482 90.3516 115.627 91.0164 121.56C91.3701 124.721 92.0321 127.869 92.1047 131.057C92.1455 132.97 91.9532 135.198 90.6608 136.718C89.9008 137.612 88.7436 137.711 87.9455 138.482C87.4834 139.016 87.2001 139.681 87.135 140.384C87.0699 141.087 87.2265 141.793 87.5827 142.403C88.8007 144.778 91.8199 146.055 94.167 146.995C99.5725 149.056 105.445 149.57 111.127 148.48C116.85 147.444 122.837 144.671 126.206 139.757C127.794 137.44 124.023 135.26 122.448 137.559C119.274 142.185 112.614 144.248 107.285 144.606C104.022 144.845 100.742 144.5 97.5998 143.589C96.2797 143.208 95.0009 142.697 93.7825 142.063C93.2159 141.78 92.6703 141.457 92.15 141.096C92.014 140.997 91.721 140.604 91.5569 140.568C91.3093 140.515 91.5796 140.362 91.4816 140.71L90.922 141.67L91.0173 141.56L90.0568 142.119C96.7273 139.699 96.8216 132.47 96.0317 126.506C95.132 119.704 94.2178 112.678 97.4311 106.301C98.689 103.805 94.9352 101.598 93.6719 104.103H93.6746Z" fill="#211715"/>
<path d="M234.588 111.152C233.627 106.943 228.981 104.219 224.911 103.963C218.23 103.544 210.759 108.221 209.278 114.553C209.263 114.625 209.264 114.699 209.281 114.771C209.297 114.843 209.329 114.91 209.373 114.969C209.417 115.027 209.474 115.076 209.538 115.111C209.603 115.146 209.674 115.167 209.748 115.172C214.779 115.634 219.699 116.921 224.312 118.982C229.326 121.079 235.844 119.04 234.706 111.771C234.674 111.56 234.634 111.353 234.588 111.152Z" fill="#94D1E6"/>
<path d="M220.542 136.611C220.779 133.963 218.578 131.485 216.245 130.561C212.413 129.045 207.15 130.362 205.078 133.786C205.056 133.826 205.043 133.87 205.038 133.915C205.034 133.96 205.04 134.006 205.055 134.049C205.07 134.091 205.093 134.131 205.124 134.164C205.156 134.197 205.193 134.223 205.235 134.24C208.092 135.468 210.727 137.157 213.035 139.241C215.574 141.422 219.774 141.467 220.491 136.997C220.515 136.865 220.53 136.737 220.542 136.611Z" fill="#94D1E6"/>
<path d="M33.4078 111.152C34.3682 106.943 39.0153 104.219 43.0848 103.963C49.7652 103.544 57.2329 108.221 58.7185 114.553C58.7328 114.625 58.7317 114.699 58.7152 114.771C58.6987 114.843 58.6672 114.91 58.6229 114.968C58.5785 115.027 58.5222 115.075 58.4577 115.111C58.3932 115.146 58.322 115.167 58.2487 115.172C53.2174 115.634 48.2964 116.921 43.6833 118.982C38.6689 121.079 32.1517 119.04 33.289 111.771C33.3225 111.56 33.3615 111.353 33.4078 111.152Z" fill="#94D1E6"/>
<path d="M47.7164 137.344C47.2058 134.737 49.1394 132.043 51.365 130.883C55.0191 128.979 60.3899 129.744 62.8051 132.936C62.8312 132.973 62.8491 133.015 62.8577 133.059C62.8663 133.104 62.8654 133.149 62.855 133.193C62.8446 133.238 62.825 133.279 62.7975 133.315C62.77 133.351 62.7352 133.38 62.6954 133.402C59.9805 134.918 57.5338 136.871 55.4535 139.183C53.1562 141.616 48.9798 142.096 47.8044 137.723C47.7708 137.596 47.7409 137.469 47.7164 137.344Z" fill="#94D1E6"/>
<path d="M236.692 110.573C235.38 105.349 230.052 102.124 224.916 101.786C222.296 101.687 219.685 102.146 217.255 103.133C214.826 104.12 212.635 105.612 210.826 107.511C209.989 108.387 209.255 109.356 208.637 110.398C207.811 111.646 207.287 113.068 207.106 114.553C207.096 114.934 207.165 115.313 207.308 115.666C207.452 116.019 207.666 116.339 207.938 116.605C208.693 117.182 209.626 117.475 210.575 117.431C212.046 117.592 213.506 117.837 214.948 118.165C217.83 118.85 220.65 119.775 223.377 120.931C225.252 121.745 227.305 122.065 229.338 121.86C230.538 121.756 231.703 121.403 232.758 120.823C233.814 120.244 234.738 119.452 235.47 118.496C237.153 116.217 237.253 113.252 236.692 110.573C236.117 107.834 231.92 108.994 232.494 111.731C232.745 112.786 232.73 113.888 232.449 114.936C232.261 115.623 231.851 116.229 231.284 116.659C231.546 116.442 231.071 116.803 231.012 116.84C230.82 116.955 230.628 117.066 230.427 117.161C230.739 117.014 230.178 117.252 230.11 117.276C229.855 117.357 229.596 117.42 229.335 117.482C228.948 117.566 228.552 117.601 228.156 117.585C227.782 117.588 227.409 117.564 227.039 117.512C225.93 117.271 224.85 116.911 223.817 116.439C222.325 115.839 220.815 115.284 219.282 114.812C217.88 114.379 216.455 114.02 215.015 113.735C214.263 113.586 213.506 113.463 212.748 113.351C211.841 113.314 210.94 113.185 210.06 112.966L211.36 113.964L211.187 113.738L211.485 114.837C211.422 114.021 212.275 112.751 212.719 112.073C213.369 111.111 214.152 110.246 215.044 109.503C216.934 107.923 219.189 106.842 221.604 106.357C225.764 105.485 231.346 107.136 232.497 111.726C233.171 114.447 237.37 113.296 236.692 110.573Z" fill="#211715"/>
<path d="M222.719 136.611C222.97 132.679 219.726 129.303 216.151 128.23C214.515 127.762 212.801 127.637 211.115 127.865C209.429 128.092 207.809 128.666 206.356 129.551C205.037 130.38 203.315 131.791 202.938 133.381C202.839 133.797 202.851 134.232 202.972 134.642C203.092 135.052 203.318 135.424 203.626 135.721C204.076 136.085 204.584 136.37 205.129 136.564C205.97 136.96 206.789 137.4 207.584 137.882C208.986 138.759 210.316 139.745 211.563 140.832C212.642 141.782 213.951 142.433 215.36 142.72C216.157 142.89 216.98 142.9 217.782 142.749C218.583 142.598 219.346 142.288 220.026 141.839C220.828 141.215 221.484 140.425 221.949 139.522C222.414 138.619 222.676 137.625 222.719 136.611C222.715 136.034 222.485 135.483 222.077 135.075C221.67 134.668 221.118 134.438 220.542 134.434C219.969 134.446 219.422 134.68 219.017 135.085C218.611 135.491 218.378 136.037 218.365 136.611C218.42 136.105 218.325 136.792 218.312 136.849C218.266 137.051 218.199 137.243 218.146 137.442C218.032 137.867 218.308 137.23 218.073 137.612C217.989 137.73 217.916 137.855 217.854 137.986C217.774 138.2 218.113 137.742 217.844 138C217.732 138.107 217.614 138.214 217.507 138.326C217.839 137.979 217.624 138.252 217.454 138.326C217.226 138.431 217.033 138.416 217.439 138.354C217.318 138.379 217.2 138.415 217.086 138.461C216.632 138.619 217.231 138.492 217.078 138.483C216.801 138.464 216.523 138.464 216.245 138.483C216.711 138.447 216.435 138.512 216.21 138.463C216.054 138.428 215.901 138.387 215.75 138.338C215.687 138.318 215.252 138.163 215.557 138.281C215.861 138.399 215.361 138.182 215.3 138.151C215.033 138.006 214.776 137.846 214.528 137.67C215.003 137.999 214.415 137.561 214.379 137.53C214.215 137.392 214.052 137.254 213.888 137.118C213.082 136.447 212.255 135.8 211.4 135.191C210.673 134.672 209.921 134.19 209.145 133.747C208.703 133.496 208.254 133.258 207.8 133.033C207.563 132.916 207.324 132.802 207.084 132.692C207.019 132.662 206.359 132.361 206.631 132.585L207.19 133.545L207.132 133.38V134.537C207.041 134.92 207.179 134.532 207.283 134.395C207.097 134.641 207.275 134.413 207.38 134.304C207.628 134.038 207.892 133.788 208.172 133.555C207.934 133.749 208.172 133.555 208.296 133.476C208.436 133.386 208.577 133.29 208.722 133.204C208.898 133.1 209.078 133.002 209.259 132.909C209.302 132.888 209.786 132.661 209.56 132.76C210.193 132.534 210.841 132.351 211.498 132.21C212.128 132.069 211.11 132.224 211.754 132.169C211.929 132.155 212.103 132.139 212.279 132.13C212.663 132.109 213.048 132.109 213.433 132.13C213.606 132.14 213.78 132.156 213.952 132.176C214.2 132.204 213.69 132.114 214.092 132.206C214.46 132.289 214.825 132.368 215.18 132.486C215.341 132.538 215.503 132.59 215.659 132.657C215.312 132.508 215.931 132.811 215.931 132.813C216.095 132.904 216.255 133.002 216.411 133.105C216.482 133.152 216.824 133.405 216.613 133.238C217.2 133.682 217.683 134.248 218.03 134.897L218.133 135.099C218.084 134.956 218.084 134.956 218.133 135.099C218.201 135.273 218.257 135.451 218.303 135.632C218.315 135.679 218.383 136.297 218.365 135.934C218.375 136.16 218.372 136.385 218.356 136.611C218.356 137.188 218.586 137.742 218.994 138.15C219.402 138.558 219.956 138.787 220.533 138.787C221.11 138.787 221.664 138.558 222.072 138.15C222.48 137.742 222.71 137.188 222.71 136.611H222.719Z" fill="#211715"/>
<path d="M35.5065 111.734C36.6583 107.144 42.2396 105.493 46.3997 106.365C48.7627 106.839 50.9736 107.884 52.839 109.41C53.7401 110.144 54.5338 111.001 55.197 111.956C55.6695 112.662 56.5819 113.984 56.5157 114.845L56.8131 113.746L56.6399 113.972L57.9405 112.974C57.1246 113.181 56.2893 113.301 55.4482 113.332C54.6229 113.448 53.8012 113.582 52.9841 113.743C51.5456 114.028 50.1229 114.388 48.7215 114.82C47.245 115.273 45.7939 115.803 44.36 116.376C43.2704 116.877 42.1306 117.261 40.9599 117.521C40.2363 117.597 39.5065 117.595 38.7833 117.514C38.355 117.425 37.9339 117.303 37.5236 117.151C37.6297 117.199 37.1726 116.957 37.0882 116.907C37.0039 116.858 36.477 116.469 36.72 116.671C36.144 116.248 35.7319 115.639 35.5537 114.948C35.2694 113.897 35.2532 112.792 35.5065 111.734C36.0797 109.001 31.8842 107.834 31.3092 110.577C30.6585 113.048 30.9568 115.673 32.1454 117.935C33.2347 119.702 34.9517 120.992 36.9522 121.546C41.8632 122.983 46.3471 119.992 50.9244 118.707C52.2298 118.34 53.5509 118.038 54.8877 117.8C55.596 117.673 56.3062 117.564 57.0208 117.481C58.0638 117.359 59.2601 117.413 60.0618 116.61C62.0697 114.602 59.8804 110.963 58.52 109.135C56.9071 107.022 54.8635 105.275 52.5246 104.011C50.1857 102.747 47.6049 101.994 44.9532 101.802C39.2331 101.387 32.7821 104.723 31.3129 110.578C30.6263 113.292 34.8236 114.455 35.5065 111.734Z" fill="#211715"/>
<path d="M49.8161 136.766C49.8768 137.128 49.8106 136.475 49.8106 136.449C49.8106 136.396 49.8623 135.851 49.8288 136.073C49.8811 135.917 49.9244 135.758 49.9585 135.597C49.9866 135.506 50.128 135.117 50.0183 135.376C50.2876 134.688 50.7213 134.076 51.2817 133.594C51.2735 133.601 51.7832 133.15 51.5338 133.349C51.6793 133.236 51.8307 133.131 51.9873 133.035C52.1414 132.938 52.2983 132.847 52.4589 132.762C52.4924 132.745 53.072 132.475 52.6548 132.652C53.3365 132.374 54.0494 132.179 54.7779 132.072C54.4578 132.123 54.7371 132.081 54.9049 132.067C55.0727 132.052 55.2441 132.042 55.4137 132.036C55.8214 132.022 56.2295 132.031 56.6362 132.063C56.6888 132.063 57.2293 132.131 56.9536 132.092C56.6779 132.053 57.2139 132.142 57.2656 132.152C57.6605 132.23 58.0503 132.332 58.4328 132.457C58.5907 132.509 58.7466 132.567 58.9017 132.625C59.1294 132.71 58.6632 132.491 59.0169 132.679C59.3334 132.848 59.6518 133.007 59.9511 133.204C60.0853 133.295 60.2231 133.386 60.3474 133.476C59.9928 133.204 60.4254 133.561 60.4952 133.626C60.7724 133.887 61.0286 134.17 61.2616 134.471L60.7011 133.511L60.7609 133.678V132.521L60.7201 132.692L61.2797 131.731C61.521 131.488 60.9659 131.877 60.8997 131.913C60.6775 132.044 60.458 132.178 60.2395 132.315C59.8205 132.579 59.409 132.854 59.0051 133.142C58.1771 133.73 57.3726 134.359 56.6054 135.023C55.9116 135.624 55.245 136.26 54.6047 136.914C54.2936 137.23 53.9988 137.564 53.6778 137.869C53.559 137.983 53.4311 138.083 53.3096 138.194C53.695 137.846 53.3232 138.173 53.2261 138.236C52.9577 138.407 52.6774 138.558 52.3872 138.689C52.6221 138.58 52.6666 138.59 52.3981 138.666C52.2512 138.707 52.0997 138.744 51.9546 138.789C51.4885 138.934 52.0943 138.817 51.9392 138.809C51.8186 138.803 51.6925 138.829 51.5701 138.83C51.4222 138.83 51.278 138.816 51.1311 138.81C51.7252 138.834 51.3052 138.831 51.1393 138.784C50.8472 138.699 50.8355 138.657 51.113 138.805C50.9914 138.741 50.8482 138.646 50.723 138.593C50.3602 138.44 50.957 138.865 50.6786 138.561C50.5688 138.442 50.4527 138.331 50.3439 138.211C50.5942 138.483 50.3947 138.271 50.2859 138.089C50.1894 137.929 50.1028 137.763 50.0265 137.592C50.158 137.887 50.0383 137.592 49.992 137.445C49.9198 137.218 49.8592 136.987 49.8106 136.754C49.7346 136.478 49.6051 136.22 49.4294 135.995C49.2537 135.769 49.0353 135.58 48.7867 135.439C48.538 135.298 48.264 135.207 47.9802 135.172C47.6965 135.136 47.4086 135.157 47.1329 135.233C46.8572 135.309 46.5992 135.439 46.3737 135.615C46.1481 135.79 45.9593 136.009 45.8181 136.257C45.6769 136.506 45.5861 136.78 45.5508 137.064C45.5155 137.348 45.5364 137.635 45.6124 137.911C46.2808 141.029 48.8393 143.508 52.1614 143.136C53.7248 142.95 55.1978 142.304 56.3932 141.28C57.6538 140.235 58.7013 138.94 59.9574 137.879C60.5443 137.376 61.1639 136.912 61.8121 136.491C62.7173 136.02 63.5721 135.458 64.3633 134.813C66.3241 132.792 63.7284 130.446 62.0724 129.392C60.6385 128.536 59.0447 127.983 57.3888 127.766C55.733 127.549 54.0503 127.673 52.4444 128.131C48.1682 129.342 44.847 133.359 45.6188 137.926C45.7761 138.48 46.1451 138.95 46.6459 139.234C47.1468 139.519 47.7395 139.595 48.296 139.447C48.846 139.282 49.311 138.911 49.5942 138.411C49.8774 137.912 49.9569 137.322 49.8161 136.766Z" fill="#211715"/>
<path d="M157.494 130.164C157.661 132.567 157.961 134.959 158.363 137.334C158.524 138.723 158.777 140.1 159.122 141.455C159.555 142.942 160.428 144.263 161.626 145.244C162.39 145.844 163.236 146.331 164.139 146.688C164.354 146.779 164.609 146.851 164.818 146.961C164.002 146.543 164.334 146.752 164.54 146.845C168.259 148.524 171.992 150.183 175.716 151.857C177.266 152.555 178.809 153.276 180.378 153.932C180.935 154.082 181.528 154.007 182.029 153.722C182.531 153.438 182.9 152.967 183.056 152.412C183.195 151.856 183.114 151.268 182.831 150.769C182.548 150.271 182.084 149.9 181.535 149.734C182.659 150.204 181.245 149.594 180.976 149.474C180.218 149.134 179.46 148.794 178.702 148.453L172.502 145.665C170.797 144.899 169.092 144.135 167.385 143.373C165.836 142.684 164.211 142.138 163.514 140.81C163.514 140.81 163.361 140.481 163.44 140.666C163.519 140.85 163.335 140.349 163.32 140.303C163.209 139.942 163.118 139.575 163.048 139.204C162.917 138.541 162.833 137.87 162.728 137.204C162.361 134.86 162.008 132.538 161.844 130.169C161.831 129.595 161.597 129.049 161.192 128.644C160.787 128.239 160.241 128.005 159.667 127.992C159.092 127.997 158.541 128.228 158.134 128.635C157.727 129.042 157.496 129.593 157.491 130.169L157.494 130.164Z" fill="#211715"/>
<path d="M116.574 127.212C116.436 130.953 116.042 134.68 115.395 138.367C115.321 139.414 115.007 140.429 114.475 141.333C113.721 142.081 112.804 142.646 111.796 142.982C108.493 144.439 105.25 146.042 101.966 147.544C100.898 148.032 99.8297 148.517 98.7559 148.99C98.5092 149.099 98.2625 149.206 98.0158 149.314L97.7891 149.411C97.4073 149.577 98.0612 149.3 97.8299 149.395C97.5433 149.512 97.2586 149.631 96.9683 149.735C96.4198 149.901 95.956 150.271 95.6729 150.77C95.3898 151.268 95.3091 151.856 95.4474 152.412C95.6052 152.966 95.9743 153.436 96.4753 153.721C96.9762 154.005 97.5689 154.081 98.1256 153.933C102.218 152.46 106.153 150.396 110.089 148.559L112.711 147.333C113.161 147.188 113.591 146.989 113.992 146.74C113.902 146.818 112.979 147.163 113.86 146.812C114.058 146.733 114.255 146.648 114.451 146.563C114.89 146.383 115.314 146.171 115.721 145.928C116.425 145.506 117.059 144.977 117.601 144.361C118.524 143.247 119.148 141.916 119.415 140.493C120.322 136.122 120.827 131.678 120.925 127.215C120.982 124.412 116.629 124.412 116.572 127.215L116.574 127.212Z" fill="#211715"/>
<path d="M194.835 46.2799C194.659 45.2533 194.479 44.3037 194.304 43.4494C189.467 19.7267 165.573 0.896036 140.516 2.27458C115.459 0.896036 91.5649 19.7267 86.7274 43.4494C85.4168 49.8478 85.5737 60.7945 86.7654 65.9024L89.1643 75.2991C90.9769 75.1854 92.7615 75.7901 94.1316 76.9824C104.034 70.1133 120.833 58.1798 129.53 50.6976C128.815 55.1416 126.272 62.6882 129.475 61.9119C142.846 58.8192 155.661 52.575 163.411 42.8345C165.044 48.5854 167.744 56.356 169.726 59.7515C172.532 64.5583 180.663 75.3662 187.502 76.9833C188.258 76.3265 189.146 75.8407 190.107 75.5589C191.067 75.2772 192.078 75.2062 193.068 75.3508C193.361 75.3944 193.651 75.4574 193.936 75.5395C197.411 67.4759 196.237 54.456 194.835 46.2799Z" fill="#B5886A"/>
<path d="M88.8367 65.5269C88.2903 62.8096 88.0111 60.0454 88.0032 57.2738C87.8918 53.8954 88.0076 50.5134 88.3497 47.1506C89.0902 41.0326 91.1235 35.142 94.3146 29.8699C100.925 18.7989 111.357 10.5278 123.643 6.61515C126.694 5.64011 129.835 4.97499 133.019 4.62987C136.325 4.29068 139.657 4.38682 142.973 4.37775C149.449 4.39074 155.856 5.69945 161.818 8.22678C173.717 13.2285 183.366 22.4237 188.935 34.0681C191.281 39.4212 192.769 45.1107 193.345 50.9271C194.148 57.3881 194.593 64.2418 193.184 70.6492C192.871 72.0978 192.429 73.5156 191.864 74.8855C191.714 75.442 191.789 76.0351 192.074 76.5363C192.358 77.0374 192.829 77.4063 193.384 77.5628C193.94 77.7014 194.528 77.6209 195.026 77.338C195.524 77.055 195.895 76.5913 196.061 76.0428C198.722 69.6616 198.67 62.1767 198.147 55.3982C197.662 49.0987 196.786 42.6023 194.655 36.6247C189.823 23.5758 180.316 12.7876 167.978 6.35396C161.773 3.06985 154.995 1.00705 148.012 0.277495C144.538 0.00348907 141.051 -0.0806787 137.568 0.0253677C134.017 0.061956 130.478 0.462189 127.009 1.2198C113.361 4.3197 101.321 12.3106 93.1637 23.6828C89.1601 29.1921 86.3129 35.4547 84.7936 42.0935C83.4414 48.7756 83.1659 55.6308 83.9773 62.3998C84.1139 63.8387 84.335 65.2684 84.6394 66.6814C85.2588 69.4122 89.457 68.2568 88.8367 65.5242V65.5269Z" fill="#211715"/>
<path d="M161.507 44.1106C162.478 47.4327 163.556 50.7258 164.784 53.9626C165.699 56.5862 166.858 59.1181 168.247 61.5246C171.121 66.2819 174.682 70.5878 178.817 74.3024C181.164 76.3621 183.837 78.3102 186.914 79.0811C189.634 79.7631 190.792 75.5658 188.072 74.8838C183.408 73.7138 179.397 69.1066 176.364 65.409C173.36 61.8362 170.952 57.802 169.233 53.462C167.897 50.0156 166.742 46.4994 165.704 42.9533C164.92 40.2706 160.716 41.4115 161.507 44.1106Z" fill="#211715"/>
<path d="M162.004 41.1258C157.506 46.5877 151.858 50.9903 145.463 54.0197C142.21 55.6218 138.837 56.9687 135.376 58.0483C133.537 58.63 131.68 59.1475 129.804 59.601C129.623 59.6445 129.441 59.6835 129.26 59.7316C128.405 59.9556 129.039 59.7461 129.149 59.7906C129.354 59.8571 129.553 59.9421 129.743 60.0445C129.858 60.1297 130.342 60.7483 130.121 60.498C130.081 60.3964 130.058 60.2893 130.052 60.1805C130.112 60.5088 130.064 60.3356 130.075 60.108C130.224 57.2711 131.131 54.2746 131.63 51.2781C131.741 50.8183 131.701 50.3349 131.515 49.8998C131.33 49.4647 131.009 49.1012 130.6 48.8632C130.191 48.6253 129.716 48.5257 129.246 48.5792C128.776 48.6328 128.336 48.8366 127.991 49.1604C119.254 56.6562 109.762 63.3194 100.373 69.9609C97.9349 71.6865 95.4883 73.4006 93.0335 75.1032C92.546 75.4046 92.193 75.8819 92.0476 76.4363C91.9023 76.9907 91.9757 77.5798 92.2526 78.0816C92.5475 78.5761 93.0247 78.9351 93.5816 79.0811C94.1385 79.2272 94.7305 79.1487 95.2301 78.8625C105.043 72.0532 114.792 65.1251 124.221 57.7917C126.541 55.9878 128.839 54.153 131.069 52.2394L127.432 50.1217C126.904 53.296 125.82 56.4539 125.725 59.6899C125.642 60.3837 125.723 61.0873 125.962 61.7439C126.201 62.4005 126.591 62.9918 127.101 63.47C128.621 64.6753 130.561 63.9126 132.229 63.4809C140.375 61.4976 148.107 58.0911 155.068 53.4184C158.838 50.8524 162.212 47.748 165.083 44.204C165.475 43.7873 165.693 43.2369 165.693 42.6649C165.693 42.0929 165.475 41.5425 165.083 41.1258C164.673 40.7211 164.12 40.4942 163.544 40.4942C162.967 40.4942 162.414 40.7211 162.004 41.1258Z" fill="#211715"/>
<path d="M189.034 78.5215C189.981 77.7495 191.191 77.3749 192.409 77.4764C193.626 77.5779 194.757 78.1476 195.564 79.0656C196.511 80.2565 196.591 81.9742 196.652 83.4271C196.737 85.1597 196.639 86.8963 196.36 88.6084C195.318 94.723 192.116 102.172 185.307 103.349C184.753 103.506 184.283 103.875 183.999 104.376C183.715 104.877 183.639 105.47 183.787 106.026C183.952 106.576 184.322 107.04 184.821 107.324C185.32 107.607 185.909 107.687 186.465 107.546C193.618 106.309 197.855 99.5361 199.785 93.076C200.78 89.7562 201.182 86.287 200.973 82.8276C200.75 79.3559 199.703 76.0927 196.502 74.287C194.838 73.3709 192.931 72.9905 191.043 73.1976C189.155 73.4047 187.376 74.1892 185.95 75.4443C185.547 75.8549 185.321 76.4076 185.321 76.9833C185.321 77.5591 185.547 78.1118 185.95 78.5224C186.365 78.9214 186.917 79.1443 187.492 79.1443C188.067 79.1443 188.62 78.9205 189.034 78.5215Z" fill="#211715"/>
<path d="M183.642 100.265C183.526 102.284 183.148 104.279 182.52 106.201C182.298 106.94 182.054 107.672 181.809 108.403C181.742 108.601 181.671 108.798 181.604 108.995C181.411 109.571 181.711 108.781 181.571 109.086C180.669 111.028 179.642 112.909 178.495 114.717C175.217 120.158 171.025 124.991 166.101 129.004C163.441 131.184 160.334 132.753 157 133.6C154.271 134.228 155.426 138.426 158.157 137.798C165.076 136.205 170.878 131.25 175.458 126.041C179.368 121.739 182.637 116.895 185.162 111.659C186.834 108.079 187.797 104.209 187.996 100.262C188.087 97.461 183.734 97.4646 183.643 100.262L183.642 100.265Z" fill="#211715"/>
<path d="M95.6705 75.4433C94.4249 74.3393 92.9029 73.5943 91.2669 73.2878C89.631 72.9813 87.9425 73.1247 86.3817 73.7029C82.968 75.047 81.2176 77.9174 80.7778 81.4617C79.9563 88.4027 81.6939 95.4051 85.6652 101.157C87.8674 104.45 91.2771 106.744 95.1572 107.543C95.7132 107.68 96.3004 107.599 96.7983 107.316C97.2962 107.033 97.667 106.571 97.8345 106.023C97.9831 105.467 97.907 104.874 97.6226 104.373C97.3382 103.873 96.8684 103.504 96.3144 103.346C89.507 102.167 86.3037 94.7184 85.2616 88.6057C84.9933 86.958 84.8927 85.2873 84.9614 83.6193C85.0122 82.1555 85.0685 80.4206 85.969 79.1899C86.3588 78.7098 86.8395 78.3114 87.3836 78.0176C87.9277 77.7238 88.5245 77.5405 89.1397 77.478C89.7549 77.4156 90.3764 77.4753 90.9684 77.6537C91.5605 77.8322 92.1114 78.1258 92.5897 78.5178C93.0049 78.9125 93.5559 79.1327 94.1287 79.1327C94.7016 79.1327 95.2526 78.9125 95.6678 78.5178C96.0714 78.1072 96.2975 77.5545 96.2975 76.9788C96.2975 76.403 96.0714 75.8503 95.6678 75.4397L95.6705 75.4433Z" fill="#211715"/>
<path d="M93.9165 99.6195C96.4477 114.221 104.353 128.52 117.864 135.594C121.56 137.531 125.593 138.744 129.745 139.165C130.321 139.162 130.872 138.931 131.28 138.524C131.687 138.116 131.918 137.565 131.922 136.989C131.909 136.415 131.676 135.869 131.27 135.463C130.865 135.058 130.318 134.825 129.745 134.812C115.807 133.361 104.959 120.837 100.6 108.28C99.5056 105.08 98.6736 101.797 98.112 98.4622C97.9544 97.9081 97.5853 97.4381 97.0842 97.1537C96.5831 96.8693 95.9904 96.7933 95.4338 96.9422C94.8844 97.1068 94.4197 97.477 94.1365 97.9758C93.8533 98.4745 93.7735 99.0633 93.9138 99.6195H93.9165Z" fill="#211715"/>
<path d="M135.418 77.7859C135.418 79.0883 135.546 80.3889 135.549 81.6858C135.555 82.2621 135.782 82.8141 136.183 83.2276C136.592 83.6357 137.145 83.865 137.722 83.865C138.3 83.865 138.853 83.6357 139.262 83.2276C139.663 82.8137 139.89 82.262 139.896 81.6858C139.896 80.3843 139.769 79.0838 139.766 77.7859C139.76 77.2096 139.533 76.6576 139.131 76.2442C138.723 75.836 138.169 75.6067 137.592 75.6067C137.015 75.6067 136.461 75.836 136.053 76.2442C135.653 76.6585 135.426 77.2099 135.418 77.7859Z" fill="#211715"/>
<path d="M142.915 77.7859C142.915 79.0883 143.042 80.3889 143.045 81.6858C143.051 82.2621 143.278 82.8141 143.68 83.2276C144.088 83.6357 144.642 83.865 145.219 83.865C145.796 83.865 146.35 83.6357 146.758 83.2276C147.158 82.8132 147.385 82.2618 147.393 81.6858C147.393 80.3843 147.265 79.0838 147.262 77.7859C147.256 77.2096 147.029 76.6576 146.628 76.2442C146.219 75.836 145.666 75.6067 145.088 75.6067C144.511 75.6067 143.958 75.836 143.549 76.2442C143.149 76.6582 142.922 77.2098 142.915 77.7859Z" fill="#211715"/>
<path d="M91.6892 265.822C91.7908 261.003 91.9078 256.184 92.0066 251.366C92.0017 250.79 91.7708 250.239 91.3636 249.832C90.9565 249.425 90.4057 249.194 89.83 249.189C89.2561 249.2 88.7086 249.433 88.3027 249.839C87.8968 250.245 87.6641 250.792 87.6534 251.366C87.5545 256.184 87.4375 261.003 87.3359 265.822C87.3359 266.4 87.5653 266.953 87.9735 267.362C88.3817 267.77 88.9353 267.999 89.5126 267.999C90.0899 267.999 90.6435 267.77 91.0517 267.362C91.4599 266.953 91.6892 266.4 91.6892 265.822Z" fill="#211715"/>
<path d="M190.781 199.751C190.85 201.119 190.748 202.514 190.725 203.882C190.667 207.194 190.613 210.506 190.563 213.819C190.409 224.218 190.325 234.621 190.312 245.027C190.312 251.692 190.359 258.357 190.454 265.023C190.498 267.821 194.851 267.835 194.808 265.023C194.497 244.933 194.717 224.836 195.063 204.748C195.092 203.093 195.218 201.406 195.134 199.751C194.994 196.963 190.639 196.946 190.781 199.751Z" fill="#211715"/>
<path d="M180.09 152.894C182.747 153.256 184.832 154.389 187.142 155.578C190.686 157.423 194.095 159.516 197.345 161.841C204.177 166.684 210.751 172.457 214.038 180.347C216.924 187.276 217.437 194.741 218.064 202.128C218.86 211.487 219.821 220.83 220.582 230.194C221.521 241.736 222.378 253.285 223.258 264.833C223.272 265.406 223.506 265.951 223.911 266.357C224.317 266.762 224.862 266.996 225.435 267.01C226.011 267.005 226.562 266.774 226.969 266.367C227.376 265.96 227.607 265.409 227.612 264.833C226.046 244.315 224.479 223.804 222.525 203.319C221.799 195.69 221.46 187.992 218.821 180.712C217.273 176.323 214.911 172.265 211.859 168.751C208.892 165.498 205.611 162.545 202.064 159.935C198.327 157.072 194.366 154.512 190.22 152.282C187.47 150.813 184.381 149.124 181.247 148.696C180.691 148.562 180.105 148.644 179.607 148.927C179.11 149.209 178.739 149.67 178.569 150.216C178.42 150.773 178.495 151.366 178.78 151.867C179.064 152.368 179.536 152.737 180.09 152.894Z" fill="#211715"/>
<path d="M96.1167 152.678C100.989 155.724 106.218 158.159 111.685 159.928C118.118 162.126 124.776 163.602 131.535 164.327C143.675 165.626 156.145 163.559 167.653 159.637C172.732 157.905 178.011 155.817 182.174 152.338C182.578 151.927 182.804 151.375 182.804 150.799C182.804 150.223 182.578 149.67 182.174 149.26C181.76 148.863 181.208 148.641 180.635 148.641C180.061 148.641 179.51 148.863 179.096 149.26C178.941 149.388 178.787 149.517 178.628 149.641C178.969 149.377 178.401 149.8 178.389 149.808C178.017 150.067 177.642 150.323 177.258 150.567C176.329 151.155 175.366 151.688 174.385 152.186C172.229 153.266 170.007 154.207 167.733 155.006C162.377 156.91 156.864 158.343 151.258 159.287C139.184 161.236 126.819 160.279 115.188 156.496C109.243 154.751 103.564 152.201 98.3097 148.919C95.9517 147.389 93.7687 151.155 96.1131 152.677L96.1167 152.678Z" fill="#211715"/>
<path d="M93.0569 76.908C93.1757 77.0495 93.2927 77.1928 93.4097 77.3361C93.7154 77.7098 93.28 77.1547 93.5576 77.5257C93.8351 77.8966 94.1208 78.2875 94.3919 78.6757C94.957 79.4819 95.4993 80.3081 96.029 81.1334C97.2379 83.0271 98.387 84.9607 99.5052 86.907C101.374 90.1484 103.142 93.4442 104.973 96.7019C106.344 99.1452 110.106 96.9531 108.732 94.5053C106.855 91.1614 105.044 87.7831 103.125 84.4637C101.105 80.723 98.7664 77.1634 96.1351 73.8245C95.7246 73.4207 95.1718 73.1944 94.596 73.1944C94.0202 73.1944 93.4674 73.4207 93.0569 73.8245C92.6585 74.2389 92.436 74.7914 92.436 75.3663C92.436 75.9411 92.6585 76.4936 93.0569 76.908Z" fill="#211715"/>
<path d="M185.087 74.9227C181.671 80.0481 178.283 85.1917 174.924 90.3533C174.021 91.7373 173.122 93.1243 172.228 94.5143C170.713 96.8805 174.48 99.0662 175.986 96.7109C179.726 90.8666 183.561 85.0804 187.393 79.2978C187.874 78.5722 188.362 77.8467 188.844 77.1212C189.135 76.6226 189.217 76.0288 189.07 75.4702C188.924 74.9117 188.561 74.4342 188.063 74.1428C187.564 73.8514 186.971 73.7699 186.412 73.9164C185.853 74.0628 185.376 74.4251 185.085 74.9236L185.087 74.9227Z" fill="#211715"/>
<path d="M139.665 92.6651C132.355 92.6651 120.166 93.797 112.253 94.4164C110.79 94.5316 107.209 94.9533 106.263 96.0407C104.502 98.0623 105.174 102.377 104.942 104.829C104.694 108.751 104.809 112.689 105.285 116.59C105.812 121.76 106.069 127.266 109.548 131.299C115.975 138.752 130.87 142.72 140.656 142.72C147.191 142.624 153.664 141.428 159.802 139.183C165.138 137.233 170.127 133.962 172.92 129.261C175.55 124.828 175.45 120.383 176.015 115.332C176.442 111.781 176.51 108.195 176.218 104.63C175.978 102.182 176.59 98.191 174.808 96.145C173.862 95.0567 170.908 94.5524 169.448 94.4218C160.175 93.621 147.788 92.6651 139.665 92.6651Z" fill="white"/>
<path d="M139.665 90.4885C132.602 90.5021 125.533 91.1587 118.499 91.7328C115.291 91.8793 112.093 92.1951 108.918 92.6787C107.398 92.8452 105.96 93.4573 104.786 94.4382C103.662 95.7696 103.013 97.4375 102.941 99.1787C102.754 100.805 102.865 102.437 102.81 104.069C102.745 106.021 102.583 107.946 102.636 109.904C102.77 113.807 103.107 117.7 103.645 121.568C104.153 125.414 105.108 129.18 107.554 132.279C109.55 134.667 111.979 136.657 114.712 138.145C120.702 141.451 127.273 143.574 134.066 144.396C141.716 145.357 149.483 144.691 156.858 142.442C164.084 140.323 171.511 136.587 175.194 129.664C177.113 126.057 177.565 122.076 177.926 118.07C178.468 113.804 178.641 109.5 178.443 105.204C178.181 102 178.813 98.2155 176.94 95.3886C175.026 92.4982 170.846 92.3749 167.738 92.1082C160.043 91.4489 152.334 90.8385 144.611 90.5828C142.962 90.5275 141.312 90.4921 139.662 90.4921C136.861 90.4921 136.857 94.8454 139.662 94.8454C146.588 94.8554 153.516 95.3442 160.418 95.8702C163.579 96.1106 167.184 96.2266 170.113 96.6928C170.811 96.7994 171.501 96.9561 172.176 97.1617C172.574 97.2543 172.945 97.4384 173.26 97.6995C173.994 98.6382 173.929 100.261 173.953 101.382C174.025 104.912 174.326 108.42 174.121 111.955C174.009 113.872 173.774 115.777 173.601 117.689C173.483 119.422 173.274 121.148 172.975 122.859C172.358 126.187 170.722 129.242 168.294 131.6C165.911 133.848 163.109 135.604 160.048 136.769C153.24 139.504 145.931 140.771 138.6 140.488C132.619 140.159 126.737 138.815 121.207 136.513C116.057 134.37 110.596 131.117 108.851 125.489C107.86 122.282 107.672 118.873 107.356 115.551C107.013 111.821 106.945 108.071 107.15 104.331C107.223 102.874 107.122 101.414 107.22 99.9569C107.244 99.3446 107.353 98.7386 107.542 98.1557C107.608 97.9436 107.704 97.7421 107.827 97.5571C107.929 97.4111 107.71 97.5716 107.995 97.4474C110.059 96.5468 112.879 96.545 115.317 96.3454C121.996 95.8013 128.679 95.2054 135.376 94.9379C136.804 94.8817 138.232 94.8472 139.662 94.8408C142.467 94.8372 142.471 90.4839 139.665 90.4885Z" fill="#211715"/>
<path d="M155.962 87.1745C158.971 86.9659 161.957 86.4934 164.961 86.2404C165.539 86.2404 166.092 86.011 166.5 85.6028C166.909 85.1946 167.138 84.641 167.138 84.0637C167.138 83.4864 166.909 82.9328 166.5 82.5246C166.092 82.1164 165.539 81.8871 164.961 81.8871C161.957 82.1401 158.976 82.6126 155.962 82.8212C155.385 82.8212 154.831 83.0505 154.423 83.4587C154.014 83.8669 153.785 84.4206 153.785 84.9979C153.785 85.5752 154.014 86.1288 154.423 86.537C154.831 86.9452 155.385 87.1745 155.962 87.1745Z" fill="#211715"/>
<path d="M126.032 82.8212C123.024 82.6126 120.038 82.1401 117.034 81.8871C116.457 81.8892 115.905 82.1192 115.497 82.527C115.089 82.9347 114.859 83.4871 114.857 84.0637C114.871 84.6366 115.105 85.1821 115.51 85.5873C115.915 85.9925 116.461 86.2263 117.034 86.2404C120.038 86.4934 123.024 86.9659 126.032 87.1745C126.608 87.1712 127.16 86.9408 127.568 86.5333C127.975 86.1258 128.205 85.5741 128.209 84.9979C128.196 84.4247 127.962 83.8787 127.557 83.4733C127.151 83.0679 126.605 82.8344 126.032 82.8212Z" fill="#211715"/>
<path d="M158.763 151.207C158.435 148.838 159.021 144.563 156.71 143.109C156.352 142.889 155.954 142.743 155.538 142.681C155.123 142.619 154.7 142.641 154.293 142.746L153.679 141.485C153.037 140.168 154.132 137.93 154.057 136.809C153.838 133.445 148.573 130.759 145.532 130.222C140.249 129.287 135.685 128.213 130.972 130.954C126.59 133.503 124.093 137.834 122.468 142.544C120.974 146.875 120.116 151.453 117.94 155.58C116.695 157.814 115.609 160.133 114.69 162.52C113.999 164.424 112.501 168.663 111.523 170.807L111.28 171.517C116.014 173.462 124.291 176.923 129.985 179.383C130.308 178.681 130.656 177.903 130.656 177.903C131.266 177.064 132.375 172.977 132.47 171.84C135.478 172.453 138.19 170.895 140.233 169.492C142.612 167.766 144.889 165.902 147.051 163.91C149.055 162.163 152.802 161.25 154.845 159.498C156.379 158.266 159.33 155.309 158.763 151.207Z" fill="white"/>
<path d="M114.134 169.747C115.262 167.249 116.146 164.668 117.164 162.129C118.122 159.739 119.489 157.551 120.54 155.207C122.59 150.641 123.382 145.649 125.356 141.065C127.026 137.184 129.834 133.309 134.021 131.946C136.154 131.337 138.396 131.214 140.583 131.583C142.555 131.728 144.502 132.116 146.379 132.737C148.326 133.535 150.049 134.795 151.4 136.408C151.579 136.648 151.74 136.9 151.884 137.162C152.172 137.733 151.821 136.828 151.959 137.392C152.02 137.647 152.07 137.904 152.116 138.161C152.301 139.284 152.403 140.42 152.419 141.558C152.486 144.355 156.839 144.365 156.772 141.558C156.719 139.389 156.649 136.816 155.593 134.867C154.42 132.996 152.822 131.428 150.929 130.289C149.124 129.086 147.084 128.277 144.944 127.917C142.328 127.335 139.656 127.045 136.977 127.052C131.426 127.297 126.785 130.472 123.721 134.984C120.709 139.419 119.64 144.71 118.008 149.727C117.01 152.794 115.439 155.504 114.082 158.411C112.689 161.393 111.737 164.551 110.383 167.551C110.109 168.053 110.037 168.641 110.182 169.195C110.327 169.749 110.678 170.226 111.164 170.529C111.664 170.816 112.256 170.895 112.813 170.748C113.37 170.602 113.848 170.243 114.142 169.748L114.134 169.747Z" fill="#211715"/>
<path d="M139.064 139.561C139.843 140.105 140.627 140.635 141.393 141.193C141.593 141.34 141.789 141.494 141.99 141.64C141.424 141.228 142.089 141.72 142.237 141.841C142.623 142.155 143 142.481 143.362 142.823C143.717 143.157 144.054 143.509 144.372 143.879C144.442 143.976 144.518 144.068 144.6 144.155L144.406 143.901C144.454 143.964 144.496 144.028 144.546 144.091C144.683 144.28 144.813 144.473 144.934 144.672C145.056 144.872 145.164 145.069 145.264 145.275C145.304 145.355 145.438 145.682 145.296 145.324C145.148 144.948 145.303 145.353 145.332 145.431C145.408 145.644 145.472 145.86 145.523 146.08C145.548 146.19 145.561 146.304 145.59 146.413C145.619 146.586 145.607 146.487 145.553 146.116C145.562 146.191 145.569 146.268 145.575 146.344C145.575 146.921 145.804 147.475 146.212 147.883C146.62 148.291 147.174 148.52 147.751 148.52C148.329 148.52 148.882 148.291 149.29 147.883C149.699 147.475 149.928 146.921 149.928 146.344C149.501 141.325 145.03 138.421 141.261 135.802C140.762 135.513 140.169 135.433 139.611 135.579C139.054 135.726 138.576 136.086 138.283 136.583C138.006 137.084 137.933 137.673 138.078 138.227C138.223 138.782 138.576 139.259 139.064 139.56V139.561Z" fill="#211715"/>
<path d="M135.622 145.884C137.251 146.586 138.73 147.597 139.975 148.86C141.204 149.968 142.705 151.062 143.011 152.791C143.239 154.114 143.015 155.475 142.376 156.656C142.162 156.967 141.754 157.422 141.331 157.44C141.331 157.44 141.067 157.359 140.968 157.349C140.87 157.339 140.793 157.175 140.712 157.144C140.933 157.235 140.81 157.255 140.809 157.262C140.785 157.419 140.831 157.321 140.794 157.188C140.758 157.055 140.729 156.947 140.704 156.825C140.643 156.566 140.605 156.303 140.559 156.041C140.475 155.479 140.344 154.926 140.168 154.387C139.902 153.61 139.476 152.899 138.917 152.298C138.359 151.697 137.681 151.22 136.926 150.898C136.46 150.648 135.943 150.506 135.415 150.482C134.887 150.458 134.36 150.552 133.872 150.757C133.385 150.962 132.949 151.273 132.597 151.668C132.245 152.063 131.986 152.531 131.837 153.039C131.224 154.68 131.679 156.561 130.967 158.152C130.354 159.523 129.026 160.64 127.983 161.689C126.507 163.178 124.973 164.61 123.427 166.027C121.356 167.922 124.441 170.995 126.505 169.105C129.174 166.661 132.183 164.141 134.255 161.139C135.519 159.308 135.481 157.347 135.757 155.244C135.779 155.075 135.863 154.874 135.869 154.699C135.881 154.289 136.345 154.232 135.433 154.556C134.435 154.911 135.208 154.8 135.497 155.01C135.673 155.121 135.816 155.278 135.911 155.463C136.043 155.674 136.128 155.911 136.159 156.159C136.464 157.357 136.486 158.577 137.188 159.648C137.8 160.513 138.668 161.164 139.671 161.507C140.674 161.85 141.759 161.868 142.772 161.558C146.735 160.332 147.984 155.281 147.21 151.635C146.691 149.193 144.966 147.515 143.19 145.906C141.354 144.088 139.175 142.654 136.779 141.687C136.223 141.539 135.63 141.615 135.129 141.9C134.629 142.184 134.259 142.654 134.101 143.208C133.96 143.764 134.039 144.353 134.323 144.852C134.606 145.351 135.072 145.721 135.622 145.884Z" fill="#211715"/>
<path d="M153.142 147.869C153.081 147.28 153.159 146.684 153.37 146.13C153.556 145.762 153.818 145.438 154.137 145.178C154.216 145.122 154.815 144.833 154.547 144.941C154.686 144.886 154.831 144.847 154.979 144.824C154.88 144.838 154.616 144.844 155.054 144.829C155.161 144.815 155.27 144.825 155.372 144.859C155.475 144.893 155.568 144.95 155.645 145.026C155.911 145.357 156.09 145.748 156.166 146.165C156.31 146.798 156.391 147.444 156.408 148.093C156.483 149.47 156.664 150.891 156.658 152.265C156.649 154.743 154.804 157.049 152.782 158.327C151.374 159.217 149.801 159.807 148.316 160.553C146.727 161.427 145.257 162.503 143.943 163.754C142.221 165.328 140.385 166.773 138.45 168.077C136.869 169.094 135.003 170.083 133.054 169.745C132.732 169.666 132.396 169.66 132.07 169.728C131.745 169.795 131.439 169.935 131.175 170.136C130.911 170.337 130.695 170.595 130.543 170.891C130.392 171.186 130.308 171.512 130.299 171.844C130.339 171.497 130.157 172.417 130.132 172.513C130.028 172.913 129.907 173.31 129.78 173.703C129.555 174.406 129.303 175.102 129.033 175.789C128.884 176.346 128.959 176.939 129.244 177.44C129.528 177.941 129.999 178.31 130.553 178.467C131.109 178.607 131.698 178.527 132.197 178.244C132.696 177.961 133.066 177.496 133.23 176.947C133.925 175.315 134.403 173.6 134.652 171.844L131.897 173.943C137.231 174.867 141.601 171.448 145.44 168.198C147.052 166.631 148.858 165.276 150.812 164.165C152.788 163.347 154.66 162.299 156.39 161.041C157.926 159.878 159.146 158.348 159.936 156.592C160.727 154.835 161.062 152.907 160.913 150.986C160.557 147.552 161.152 142.854 157.418 141.023C156.492 140.593 155.466 140.422 154.451 140.528C153.435 140.634 152.467 141.013 151.649 141.625C150.687 142.343 149.921 143.291 149.421 144.382C148.921 145.473 148.704 146.672 148.789 147.869C148.933 150.656 153.287 150.674 153.142 147.869Z" fill="#211715"/>
<path d="M76.9878 214.32C81.1017 209.457 84.7612 204.163 88.5132 199.019C93.4971 192.191 98.432 185.328 103.318 178.431C105.104 175.907 106.897 173.385 108.625 170.821L106.167 171.819C114.411 174.918 122.269 178.378 130.258 181.859C131.769 182.518 133.318 183.14 134.775 183.914L133.994 180.937C127.283 194.369 120.688 207.885 112.812 220.688C109.005 226.989 104.642 232.936 99.7746 238.458C94.752 244.072 89.0999 249.494 82.3152 252.916C79.3693 254.491 76.0958 255.356 72.7561 255.441C69.3078 255.382 65.9728 254.199 63.2587 252.071C57.7345 247.871 54.8242 241.927 53.559 235.23C52.7814 231.258 52.3941 227.219 52.4027 223.172C52.4912 219.378 52.8671 215.597 53.5273 211.86C54.8589 203.78 56.9185 195.838 59.6808 188.129C61.0442 184.344 62.6301 180.643 64.4304 177.045C66.1652 173.28 68.5962 169.877 71.5952 167.015C77.6499 161.445 85.4994 158.054 93.0188 154.962C94.9932 154.145 96.9749 153.354 98.9529 152.549C99.4995 152.38 99.9612 152.009 100.244 151.512C100.526 151.014 100.608 150.428 100.473 149.872C100.316 149.317 99.9473 148.847 99.4462 148.562C98.9451 148.278 98.3521 148.202 97.7956 148.352C89.5162 151.721 80.9403 154.876 73.5306 159.977C69.9223 162.391 66.744 165.392 64.1275 168.856C61.4911 172.434 59.6527 176.703 57.9105 180.771C54.6218 188.516 52.1135 196.569 50.4228 204.812C49.4965 209.171 48.8053 213.577 48.3523 218.011C47.9901 221.96 48.0235 225.935 48.4521 229.878C49.2329 237.657 50.9697 245.205 56.1692 251.282C58.7897 254.46 62.1477 256.949 65.9504 258.532C69.5255 259.868 73.4089 260.149 77.1393 259.343C84.9389 257.802 91.7527 252.541 97.3902 247.19C102.926 241.886 107.887 236.012 112.19 229.666C121.44 216.145 128.738 201.319 135.998 186.669C136.581 185.493 137.165 184.318 137.75 183.143C138.031 182.642 138.107 182.052 137.961 181.496C137.816 180.94 137.46 180.463 136.969 180.165C133.562 178.351 129.865 176.983 126.318 175.477C121.478 173.422 116.626 171.393 111.763 169.391C110.289 168.786 108.813 168.191 107.319 167.63C106.857 167.507 106.367 167.538 105.924 167.718C105.48 167.898 105.108 168.217 104.862 168.627C96.545 180.962 87.6869 192.995 78.789 204.917C77.789 206.259 76.7805 207.594 75.7635 208.922C75.6964 209.013 75.3653 209.437 75.729 208.968C75.6111 209.119 75.4932 209.271 75.3753 209.421C75.1885 209.663 75.0004 209.902 74.8112 210.138C74.5137 210.512 74.2135 210.883 73.9043 211.248C73.5098 211.663 73.2898 212.214 73.2898 212.787C73.2898 213.36 73.5098 213.91 73.9043 214.326C74.3147 214.73 74.8674 214.956 75.4433 214.956C76.0192 214.956 76.572 214.73 76.9824 214.326L76.9878 214.32Z" fill="#211715"/>
</g>
<defs>
<clipPath id="clip0_496_2141">
<rect width="268" height="268" fill="white"/>
</clipPath>
</defs>
</svg>
