<svg width="345" height="33" viewBox="0 0 345 33" fill="none" xmlns="http://www.w3.org/2000/svg">
<rect y="23.5204" width="345" height="8.80102" rx="4.40051" fill="#C7D3EB"/>
<rect y="23.5204" width="174.26" height="8.80102" rx="4.40051" fill="#47B2FF"/>
<path d="M162.544 14.1392C161.841 14.1392 161.215 14.0099 160.665 13.7514C160.118 13.4929 159.684 13.1366 159.362 12.6825C159.041 12.2285 158.873 11.7081 158.86 11.1214H160.948C160.971 11.5159 161.137 11.8357 161.445 12.081C161.754 12.3262 162.12 12.4489 162.544 12.4489C162.882 12.4489 163.18 12.3743 163.439 12.2251C163.701 12.0727 163.905 11.8622 164.05 11.5938C164.2 11.322 164.274 11.0104 164.274 10.6591C164.274 10.3011 164.198 9.98627 164.045 9.71449C163.896 9.44271 163.689 9.23059 163.424 9.07812C163.159 8.92566 162.856 8.84777 162.514 8.84446C162.216 8.84446 161.926 8.90578 161.644 9.02841C161.366 9.15104 161.149 9.31842 160.993 9.53054L159.079 9.1875L159.561 3.81818H165.786V5.57812H161.336L161.072 8.12855H161.132C161.311 7.87666 161.581 7.66785 161.942 7.50213C162.304 7.33641 162.708 7.25355 163.156 7.25355C163.769 7.25355 164.316 7.39773 164.796 7.68608C165.277 7.97443 165.656 8.3705 165.935 8.87429C166.213 9.37476 166.351 9.95147 166.347 10.6044C166.351 11.2905 166.192 11.9003 165.87 12.4339C165.552 12.9643 165.106 13.3819 164.533 13.6868C163.963 13.9884 163.3 14.1392 162.544 14.1392ZM171.841 14.2237C170.986 14.2204 170.25 14.0099 169.634 13.5923C169.02 13.1747 168.548 12.5698 168.217 11.7777C167.888 10.9856 167.726 10.0327 167.729 8.91903C167.729 7.80871 167.893 6.86245 168.222 6.08026C168.553 5.29806 169.025 4.70312 169.638 4.29545C170.255 3.88447 170.989 3.67898 171.841 3.67898C172.693 3.67898 173.425 3.88447 174.038 4.29545C174.655 4.70644 175.129 5.30303 175.46 6.08523C175.792 6.86411 175.956 7.80871 175.952 8.91903C175.952 10.036 175.787 10.9905 175.455 11.7827C175.127 12.5748 174.656 13.1797 174.043 13.5973C173.43 14.0149 172.696 14.2237 171.841 14.2237ZM171.841 12.4389C172.424 12.4389 172.89 12.1456 173.238 11.5589C173.586 10.9723 173.758 10.0923 173.755 8.91903C173.755 8.14678 173.675 7.50379 173.516 6.99006C173.361 6.47633 173.138 6.0902 172.85 5.83168C172.565 5.57315 172.229 5.44389 171.841 5.44389C171.261 5.44389 170.797 5.7339 170.449 6.31392C170.101 6.89394 169.925 7.76231 169.922 8.91903C169.922 9.70123 170 10.3542 170.156 10.8778C170.315 11.3982 170.538 11.7893 170.827 12.0511C171.115 12.3097 171.453 12.4389 171.841 12.4389ZM183.061 12.0909V11.554C183.061 11.1463 183.147 10.7718 183.319 10.4304C183.495 10.0857 183.748 9.81061 184.08 9.60511C184.414 9.39631 184.822 9.2919 185.303 9.2919C185.79 9.2919 186.199 9.39465 186.531 9.60014C186.865 9.80563 187.117 10.0807 187.286 10.4254C187.459 10.7668 187.545 11.143 187.545 11.554V12.0909C187.545 12.4986 187.459 12.8748 187.286 13.2195C187.114 13.5608 186.86 13.8343 186.526 14.0398C186.191 14.2486 185.783 14.353 185.303 14.353C184.816 14.353 184.406 14.2486 184.075 14.0398C183.743 13.8343 183.491 13.5608 183.319 13.2195C183.147 12.8748 183.061 12.4986 183.061 12.0909ZM184.507 11.554V12.0909C184.507 12.3262 184.564 12.5483 184.676 12.7571C184.792 12.9659 185.001 13.0703 185.303 13.0703C185.604 13.0703 185.81 12.9676 185.919 12.7621C186.032 12.5566 186.088 12.3329 186.088 12.0909V11.554C186.088 11.312 186.035 11.0866 185.929 10.8778C185.823 10.669 185.614 10.5646 185.303 10.5646C185.004 10.5646 184.797 10.669 184.681 10.8778C184.565 11.0866 184.507 11.312 184.507 11.554ZM177.835 6.2642V5.72727C177.835 5.31629 177.923 4.9401 178.099 4.59872C178.275 4.25402 178.528 3.97893 178.86 3.77344C179.194 3.56794 179.599 3.4652 180.073 3.4652C180.563 3.4652 180.974 3.56794 181.306 3.77344C181.637 3.97893 181.889 4.25402 182.061 4.59872C182.234 4.9401 182.32 5.31629 182.32 5.72727V6.2642C182.32 6.67519 182.232 7.05137 182.056 7.39276C181.884 7.73414 181.63 8.00758 181.296 8.21307C180.964 8.41525 180.557 8.51634 180.073 8.51634C179.589 8.51634 179.179 8.41359 178.845 8.2081C178.513 7.99929 178.261 7.72585 178.089 7.38778C177.92 7.0464 177.835 6.67187 177.835 6.2642ZM179.292 5.72727V6.2642C179.292 6.50615 179.348 6.72988 179.461 6.93537C179.577 7.14086 179.781 7.24361 180.073 7.24361C180.378 7.24361 180.585 7.14086 180.694 6.93537C180.807 6.72988 180.863 6.50615 180.863 6.2642V5.72727C180.863 5.48532 180.81 5.25994 180.704 5.05114C180.598 4.84233 180.387 4.73793 180.073 4.73793C179.778 4.73793 179.574 4.84399 179.461 5.05611C179.348 5.26823 179.292 5.49195 179.292 5.72727ZM178.492 14L185.492 3.81818H186.794L179.794 14H178.492Z" fill="#3174A5"/>
</svg>
