<svg width="268" height="268" viewBox="0 0 268 268" fill="none" xmlns="http://www.w3.org/2000/svg">
<g clip-path="url(#clip0_496_1722)">
<path d="M183.777 9.0365C170.132 -1.22801 145.572 1.38809 134.162 8.64228C121.959 16.4045 115.961 27.5398 111.305 39.4516C105.567 54.1321 101.19 73.0861 101.349 88.9104C101.421 96.1091 106.095 102.658 111.621 107.269C115.593 110.581 118.867 111.927 125.673 113.117L185.417 119.554L192.559 116.487C198.414 114.419 206.162 109.885 209.107 107.216C212.972 103.893 215.667 99.4159 216.795 94.4452C218.657 86.0389 215.086 78.7338 214.476 70.4626C213.863 62.1664 213.858 53.8758 212.633 45.6619C211.528 38.2439 209.425 30.9286 205.31 24.6554C202.491 20.3588 198.433 15.9946 193.138 13.4756L183.777 9.0365Z" fill="#AAAAAA"/>
<path d="M184.898 7.11909C175.994 0.499717 163.769 -0.826379 153.034 0.420133C147.73 0.976777 142.535 2.30194 137.612 4.354C132.369 6.72385 127.646 10.1065 123.714 14.3076C115.097 23.2395 110.151 35.0698 106.363 46.7086C102.092 59.8289 99.1991 73.7765 99.126 87.6112C99.0694 90.9188 99.7138 94.201 101.017 97.2418C102.389 100.292 104.264 103.09 106.563 105.519C110.24 109.712 115.052 112.749 120.418 114.264C121.956 114.672 123.519 114.978 125.085 115.256C125.653 115.396 126.252 115.313 126.76 115.024C127.269 114.735 127.647 114.263 127.817 113.704C127.969 113.136 127.891 112.531 127.601 112.02C127.311 111.509 126.831 111.133 126.266 110.972C123.597 110.579 120.977 109.904 118.45 108.958C116.324 108.032 114.361 106.77 112.636 105.22C108.287 101.446 104.242 96.2877 103.647 90.3615C103.442 87.2283 103.506 84.0833 103.84 80.9613C104.069 77.8649 104.425 74.7802 104.908 71.7073C105.958 65.0528 107.447 58.4749 109.364 52.0166C112.595 41.0646 116.767 29.5572 124.062 20.5947C127.603 16.1238 131.98 12.3837 136.949 9.5825C140.972 7.51518 145.294 6.09069 149.757 5.36083C160.663 3.35827 173.481 4.13283 182.658 10.9549C183.167 11.2481 183.772 11.3289 184.341 11.1798C184.909 11.0307 185.396 10.6636 185.696 10.1581C185.98 9.6464 186.056 9.04486 185.907 8.47876C185.759 7.91266 185.398 7.42563 184.899 7.11909H184.898Z" fill="#211715"/>
<path d="M192.016 15.3931C207.018 22.6824 210.493 40.9979 211.45 56.0023C211.737 60.5192 211.887 65.0435 212.198 69.5594C212.598 73.6863 213.267 77.7828 214.199 81.8228C214.964 85.6289 215.523 89.5832 214.749 93.4375C214.085 96.8357 212.587 100.016 210.389 102.691C208.153 105.308 205.471 107.508 202.467 109.19C199.149 111.252 195.635 112.979 191.976 114.346C191.416 114.515 190.943 114.893 190.654 115.402C190.365 115.91 190.283 116.51 190.425 117.078C190.586 117.643 190.962 118.122 191.473 118.413C191.984 118.703 192.589 118.781 193.157 118.63C196.748 117.31 200.215 115.67 203.514 113.731C206.409 112.16 209.098 110.236 211.518 108.002C214.446 105.184 216.677 101.723 218.035 97.8932C219.393 94.0633 219.84 89.9699 219.342 85.9371C218.844 81.6173 217.676 77.4234 217.007 73.1361C216.292 68.5433 216.319 63.7969 216.073 59.1626C215.597 50.1547 214.831 40.9637 211.652 32.4454C208.447 23.8595 202.692 15.6549 194.263 11.5591C193.751 11.2772 193.15 11.2027 192.585 11.3509C192.019 11.4992 191.532 11.859 191.224 12.3559C190.932 12.8658 190.852 13.4699 191.001 14.0383C191.15 14.6066 191.517 15.0937 192.021 15.3949L192.016 15.3931Z" fill="#211715"/>
<path d="M188.809 98.6373C188.809 98.6373 189.044 98.2236 189.411 97.5795C191.855 97.9381 194.35 97.6017 196.612 96.6088C199.766 94.8796 202.333 92.2492 203.985 89.0539C205.896 85.79 207.039 80.1571 205.767 76.7377C205.34 75.5939 204.222 73.5701 200.846 72.8159C199.128 72.4117 197.32 72.6806 195.793 73.5673C195.793 73.5673 187.509 71.5573 183.699 70.631C183.338 69.3513 182.89 68.0976 182.359 66.8785C178.952 58.4232 171.703 47.3795 160.129 42.0344C157.145 45.28 153.962 48.3361 150.597 51.1847C145.828 55.1672 140.2 57.9901 134.156 59.4319C134.156 59.4319 118.186 60.8755 117.551 61.6056C115.544 63.8287 113.838 66.3067 112.477 68.9755C111.706 70.5818 111.038 72.2358 110.478 73.9273C110.616 77.6807 110.719 81.3573 110.861 84.8674C111.302 95.8046 113.933 105.851 121.109 112.602C128.009 119.093 135.546 122.368 144.665 122.717L144.66 122.733C143.67 124.611 141.328 125.805 139.367 126.508C136.376 127.888 131.223 129.676 127.281 131.167C130.415 136.576 135.415 139.993 140.934 142.173C146.209 144.159 151.821 145.097 157.455 144.933C173.261 144.773 189.581 139.399 200.617 127.073C195.499 125.14 187.724 123.911 185.804 119.495C185.126 117.935 183.905 116.383 183.57 114.715L182.354 108.651L182.148 107.296C183.464 105.884 184.692 104.437 185.866 102.933C185.873 102.936 187.917 100.212 188.809 98.6373Z" fill="white"/>
<path d="M153.082 78.7079C152.637 76.4499 153.6 71.4648 157.788 71.4685C163.261 72.0719 162.918 78.185 160.777 80.853C159.024 83.0378 154.484 83.5487 153.082 78.7079Z" fill="#211715"/>
<path d="M120.462 76.3454C120.067 74.0846 120.981 69.0792 124.818 69.0569C129.829 69.627 129.477 75.7596 127.502 78.4479C125.882 80.6448 121.717 81.1871 120.462 76.3454Z" fill="#211715"/>
<path d="M136.931 82.7408C136.137 83.8874 135.371 85.0543 134.68 86.2703C134.292 86.9003 134.054 87.6111 133.984 88.3478C133.969 88.7958 134.053 89.2417 134.229 89.6537C134.406 90.0657 134.671 90.4337 135.006 90.7316C135.515 91.2226 136.131 91.5885 136.806 91.8004C137.068 91.8828 137.343 91.9022 137.61 91.9605C138.188 92.1057 138.8 92.0257 139.321 91.7366C139.699 91.5162 140.002 91.1894 140.195 90.7971C140.387 90.4048 140.46 89.9645 140.403 89.5312C140.347 89.098 140.163 88.691 139.877 88.3613C139.59 88.0317 139.212 87.7939 138.791 87.6778C138.452 87.6299 138.118 87.5519 137.793 87.4446L138.323 87.6685C138.179 87.6018 138.041 87.5209 137.913 87.427L138.362 87.774C138.204 87.6484 138.059 87.5083 137.927 87.3558L138.274 87.8046C138.237 87.7623 138.206 87.7153 138.181 87.6648L138.405 88.196C138.374 88.1219 138.353 88.0441 138.341 87.9647L138.42 88.5551C138.416 88.4717 138.419 88.3881 138.429 88.3052L138.35 88.8956C138.379 88.7488 138.423 88.6052 138.481 88.4672L138.257 88.9974C138.622 88.2615 139.039 87.5529 139.506 86.8773C139.915 86.2388 140.335 85.6074 140.765 84.983C140.988 84.6017 141.093 84.1625 141.065 83.7215C141.037 83.2805 140.879 82.8578 140.609 82.5075C140.34 82.1572 139.972 81.8951 139.553 81.7548C139.134 81.6146 138.683 81.6025 138.257 81.7201C137.71 81.896 137.241 82.2557 136.929 82.738L136.931 82.7408Z" fill="#211715"/>
<path d="M196.915 75.4847C197.794 75.0437 198.775 74.848 199.756 74.9184C200.736 74.9887 201.68 75.3225 202.486 75.8845C202.512 75.9039 202.753 76.1112 202.844 76.201C202.954 76.3043 203.057 76.414 203.155 76.5295C203.272 76.6915 203.37 76.8627 203.472 77.0348C203.515 77.1088 203.75 77.5993 203.625 77.3124C203.5 77.0255 203.732 77.6344 203.762 77.7335C203.867 78.0636 203.947 78.4011 204.001 78.7431C204.164 80.0053 204.131 81.2852 203.902 82.5372C203.069 87.4872 199.979 92.5546 195.34 94.7663C195.733 94.5813 195.139 94.8367 195.002 94.8829C194.724 94.9755 194.438 95.0597 194.152 95.1337C193.577 95.2876 192.991 95.3962 192.4 95.4585C190.968 95.6781 189.503 95.4618 188.195 94.8376C185.689 93.4588 183.445 97.2936 185.954 98.6724C189.041 100.371 193.022 100.274 196.294 99.1287C199.617 97.8058 202.454 95.4946 204.422 92.5074C206.39 89.802 207.698 86.6739 208.241 83.3728C208.727 80.257 208.765 76.6785 206.798 74.0263C205.384 72.2611 203.391 71.0537 201.172 70.6182C198.953 70.1826 196.651 70.5472 194.675 71.6471C192.191 73.062 194.427 76.9006 196.916 75.482L196.915 75.4847Z" fill="#211715"/>
<path d="M166.464 120.789C176.413 116.447 185.237 109.222 190.728 99.7589C192.166 97.2816 188.328 95.0393 186.893 97.5166C185.752 99.4265 184.461 101.243 183.033 102.948C181.244 105.173 179.266 107.24 177.121 109.125C176.924 109.293 176.723 109.457 176.521 109.621C176.397 109.721 176.272 109.819 176.151 109.918C176.105 109.961 176.055 110 176.003 110.034C175.042 110.765 174.059 111.464 173.053 112.132C170.257 113.994 167.303 115.608 164.225 116.954C163.719 117.254 163.352 117.741 163.203 118.31C163.054 118.878 163.135 119.483 163.428 119.993C163.736 120.49 164.223 120.85 164.788 120.999C165.354 121.147 165.955 121.072 166.466 120.789H166.464Z" fill="#211715"/>
<path d="M108.272 73.9393C108.686 86.0343 108.326 99.2027 115.611 109.579C122.327 119.14 133.749 124.7 145.305 124.971C152.371 124.992 159.374 123.65 165.931 121.018C166.49 120.848 166.963 120.47 167.251 119.961C167.54 119.453 167.623 118.854 167.482 118.286C167.322 117.721 166.946 117.241 166.434 116.951C165.923 116.661 165.318 116.583 164.751 116.735C154.533 120.588 142.799 122.473 132.511 117.753C127.697 115.594 123.455 112.34 120.122 108.251C117.087 104.143 115.047 99.3851 114.165 94.3536C112.796 87.6621 112.947 80.7345 112.714 73.9384C112.615 71.0882 108.174 71.0752 108.272 73.9393Z" fill="#211715"/>
<path d="M139.177 103.482C139.34 103.271 139.672 102.771 139.945 102.681C139.722 102.849 139.677 102.885 139.81 102.79C139.874 102.744 139.939 102.698 140.006 102.658C140.162 102.559 140.323 102.473 140.489 102.381C141.002 102.12 140.191 102.457 140.618 102.314C140.771 102.262 140.922 102.205 141.08 102.157C141.451 102.045 141.821 101.971 142.196 101.896C142.658 101.803 141.748 101.932 142.257 101.886C142.42 101.872 142.582 101.855 142.745 101.845C143.162 101.817 143.579 101.812 143.996 101.83C144.187 101.838 144.379 101.85 144.567 101.874C144.049 101.808 144.611 101.902 144.726 101.931C144.84 101.959 144.97 101.997 145.09 102.038C145.32 102.124 145.291 102.109 145.004 101.994C145.113 101.987 145.341 102.168 145.426 102.219C145.549 102.294 145.967 102.457 145.498 102.24C145.654 102.343 145.793 102.471 145.909 102.618C145.966 102.676 146.02 102.734 146.072 102.795C146.228 102.98 146.211 102.956 146.021 102.722C146.021 102.722 146.266 103.107 146.277 103.126C146.329 103.219 146.378 103.311 146.424 103.41L146.326 103.174C146.448 103.299 146.466 103.646 146.515 103.809C146.648 104.247 146.522 103.407 146.53 103.902C146.53 104.075 146.53 104.245 146.53 104.419C146.53 104.871 146.632 104.022 146.504 104.597C146.488 104.799 146.431 104.997 146.338 105.177C146.445 104.94 146.464 104.899 146.395 105.044C146.36 105.122 146.321 105.199 146.279 105.275C146.216 105.437 146.123 105.585 146.006 105.714C146.185 105.492 146.196 105.473 146.038 105.657C145.963 105.74 145.884 105.818 145.803 105.894C145.512 106.21 146.13 105.73 145.726 105.952C145.656 105.996 145.584 106.037 145.51 106.074C145.364 106.148 145.416 106.128 145.667 106.015C145.564 106.053 145.459 106.084 145.353 106.108C145.676 106.077 145.71 106.07 145.457 106.087C144.868 106.087 144.303 106.321 143.886 106.737C143.47 107.154 143.236 107.719 143.236 108.308C143.236 108.897 143.47 109.462 143.886 109.878C144.303 110.295 144.868 110.529 145.457 110.529C146.47 110.467 147.448 110.134 148.288 109.564C149.128 108.994 149.799 108.209 150.231 107.29C150.686 106.363 150.931 105.347 150.947 104.314C150.963 103.281 150.75 102.258 150.323 101.317C149.929 100.493 149.374 99.7558 148.691 99.1493C148.007 98.5429 147.209 98.0793 146.344 97.7859C144.555 97.2685 142.664 97.22 140.851 97.6452C138.978 97.944 137.272 98.8995 136.039 100.341C135.64 100.77 135.41 101.329 135.391 101.914C135.394 102.503 135.627 103.067 136.039 103.487C136.836 104.217 138.418 104.466 139.185 103.487L139.177 103.482Z" fill="#211715"/>
<path d="M135.312 38.0107C132.166 44.309 126.758 49.1155 121.808 53.9739C119.231 56.418 116.807 59.0193 114.551 61.7629C112.23 64.6685 110.373 67.9148 109.043 71.3871C107.282 76.1977 106.152 81.2158 105.68 86.3165C105.683 86.9045 105.918 87.4673 106.334 87.883C106.75 88.2987 107.313 88.5339 107.901 88.5375C108.486 88.5245 109.043 88.2864 109.457 87.8727C109.87 87.4589 110.109 86.9015 110.122 86.3165C110.954 78.7653 112.914 70.967 117.691 64.901C122.041 59.3773 127.549 54.89 132.29 49.7244C135.003 46.9007 137.311 43.7134 139.147 40.2539C140.421 37.7035 136.591 35.4502 135.312 38.0107Z" fill="#211715"/>
<path d="M160.503 38.4235C156.594 42.5304 152.73 46.7863 148.222 50.2612C143.879 53.5944 138.89 55.9879 133.572 57.2896C130.801 57.9845 131.975 62.2701 134.753 61.5732C140.523 60.1492 145.939 57.5526 150.662 53.9452C155.424 50.2926 159.517 45.8998 163.644 41.5643C165.614 39.4942 162.478 36.3478 160.503 38.4235Z" fill="#211715"/>
<path d="M159.716 44.2877C169.184 48.9813 176.325 57.879 180.22 67.4689C180.392 68.027 180.77 68.4983 181.278 68.7866C181.786 69.0748 182.384 69.1583 182.951 69.0199C183.517 68.8602 183.998 68.4839 184.288 67.9726C184.579 67.4612 184.656 66.8561 184.503 66.2881C180.141 55.547 172.498 45.6767 161.958 40.4519C161.446 40.1693 160.845 40.0944 160.279 40.2427C159.713 40.3911 159.226 40.7512 158.919 41.2487C158.627 41.7587 158.547 42.3627 158.696 42.931C158.845 43.4993 159.211 43.9864 159.716 44.2877Z" fill="#211715"/>
<path d="M180.443 67.9992L180.502 68.1399L180.278 67.6096C180.81 68.8504 181.257 70.1261 181.615 71.4278C181.775 71.9825 182.138 72.4563 182.633 72.7548C182.885 72.9021 183.163 72.9984 183.452 73.0381C183.741 73.0777 184.035 73.0601 184.317 72.9861C184.599 72.9121 184.864 72.7832 185.097 72.6068C185.329 72.4304 185.525 72.21 185.672 71.9581C185.963 71.4375 186.043 70.825 185.896 70.247C185.461 68.7146 184.92 67.2146 184.276 65.7579C183.984 65.258 183.507 64.8926 182.948 64.74C182.371 64.5863 181.756 64.6668 181.237 64.9639C180.739 65.2583 180.375 65.7338 180.219 66.2909L180.14 66.8813C180.14 67.2752 180.244 67.662 180.443 68.002V67.9992Z" fill="#211715"/>
<path d="M229.879 137.052C221.94 131.721 212.179 129.186 201.061 126.586C190.024 139.26 173.48 144.775 157.462 144.938C151.828 145.101 146.216 144.164 140.941 142.177C135.321 139.956 130.24 136.456 127.124 130.873C119.955 133.42 112.4 137.127 108.54 141.48C102.204 148.627 99.721 158.612 97.5528 164.756C95.1356 171.604 90.9889 190.723 89.1492 205.088C87.3429 219.196 87.3299 227.289 89.3177 236.668C90.3106 241.352 94.189 248.258 100.422 251.078C105.699 253.601 111.736 254.029 117.316 252.277C117.963 252.966 118.334 253.359 118.334 253.359L127.315 262.891C128.181 263.809 129.224 264.541 130.383 265.042C131.541 265.542 132.79 265.8 134.051 265.8H253.555C258.604 261.867 262.265 256.423 264.004 250.264C264.912 247.36 265.462 240.177 265.369 236.97C265.253 232.965 263.459 222.14 262.495 216.813C260.737 206.561 258.238 197.589 255.849 188.734C253.527 180.141 248.337 159.009 240.13 147.162C237.385 143.172 233.907 139.741 229.879 137.052Z" fill="#7ABEE6"/>
<path d="M127.887 133.305C131.245 132.039 134.643 130.866 137.961 129.51C138.748 129.19 139.519 128.829 140.305 128.512C140.07 128.604 140.331 128.512 140.423 128.479C140.67 128.386 140.912 128.28 141.156 128.177C141.604 127.992 142.048 127.794 142.48 127.571C144.18 126.755 145.606 125.463 146.585 123.853C147.987 121.354 144.151 119.116 142.749 121.611C142.021 122.684 140.98 123.506 139.769 123.967C138.597 124.518 137.304 125.022 136.067 125.514C132.971 126.744 129.823 127.845 126.706 129.021C126.147 129.191 125.674 129.569 125.386 130.078C125.097 130.586 125.014 131.185 125.155 131.753C125.315 132.318 125.691 132.798 126.203 133.088C126.714 133.378 127.319 133.456 127.886 133.304L127.887 133.305Z" fill="#211715"/>
<path d="M180.22 109.244C180.807 112.174 181.102 115.331 182.505 118.005C183.616 120.125 184.568 122.241 186.5 123.742C190.163 126.588 194.983 127.454 199.275 128.943C199.843 129.1 200.45 129.024 200.963 128.733C201.475 128.442 201.851 127.96 202.008 127.392C202.164 126.824 202.089 126.217 201.798 125.704C201.507 125.192 201.024 124.816 200.456 124.659C196.607 123.325 192.424 122.648 189.226 120.276C189.103 120.185 189.111 120.191 189.25 120.294C189.167 120.228 189.088 120.159 189.009 120.088C188.832 119.921 188.654 119.761 188.488 119.584C188.423 119.514 188.064 119.056 188.32 119.411C188.204 119.25 188.096 119.082 187.997 118.91C187.435 117.932 186.945 116.892 186.411 115.896C185.895 114.804 185.548 113.64 185.381 112.443L184.503 108.064C184.426 107.783 184.293 107.52 184.114 107.29C183.935 107.059 183.712 106.867 183.458 106.723C183.205 106.579 182.925 106.486 182.636 106.45C182.346 106.414 182.052 106.435 181.771 106.513C181.49 106.59 181.226 106.723 180.996 106.902C180.766 107.081 180.573 107.304 180.429 107.558C180.285 107.811 180.193 108.091 180.157 108.381C180.121 108.67 180.142 108.963 180.22 109.244Z" fill="#211715"/>
<path d="M52.561 74.6269C55.5446 74.96 58.4926 75.5586 61.3698 76.4157C68.3381 78.9022 72.3016 83.9938 72.209 91.3914C72.1739 94.1408 71.5927 98.0052 69.22 100.623C68.2511 101.693 67.148 102.782 65.9098 104.015C65.3893 104.544 65.0833 105.247 65.0508 105.989C65.0183 106.73 65.2617 107.457 65.734 108.03C68.8766 111.781 70.4769 116.585 70.2111 121.471C70.0843 123.756 68.7129 125.85 67.7218 127.329C67.2812 128 66.7603 128.615 66.1708 129.16C65.8456 129.455 65.5895 129.819 65.4205 130.225C65.2515 130.631 65.1739 131.069 65.1931 131.508C65.2122 131.947 65.3277 132.376 65.5314 132.766C65.7351 133.155 66.0219 133.495 66.3716 133.762C69.7678 136.307 73.5444 140.221 73.7387 143.182C73.9238 145.937 72.9503 148.223 71.0004 149.012C69.8267 149.4 68.5558 149.377 67.3969 148.947C61.6946 146.962 55.6212 144.305 41.6894 143.929C41.6246 143.929 41.558 143.923 41.4932 143.917C34.0419 143.211 25.8965 142.181 22.5771 133.367C21.4067 130.129 21.123 126.637 21.7554 123.253C21.9034 122.401 22.0774 121.521 22.2653 120.64C23.4433 115.13 21.6675 110.392 15.4867 108.8C14.5104 108.548 12.7105 108.076 12.332 107.975C4.06915 105.765 0.0594034 98.79 0.420309 90.0764C0.501816 87.2081 1.4276 84.4275 3.08175 82.0828C4.70374 79.8244 6.86383 78.0065 9.36614 76.7942C20.3793 72.5392 37.6176 73.199 52.561 74.6269Z" fill="#C6C6C6"/>
<path d="M128.13 128.176C122.035 130.229 115.794 132.762 110.624 136.66C105.701 140.372 102.44 145.625 100.038 151.232C96.2685 160.394 93.3766 169.892 91.4018 179.6C88.6977 192.031 86.4129 204.737 85.7281 217.457C85.4079 222.874 85.6688 228.31 86.5064 233.672C86.8079 236.002 87.3758 238.29 88.1989 240.491C89.2546 243.096 90.7108 245.521 92.515 247.677C99.9302 256.537 114.733 258.287 123.894 251.194C125.057 250.296 126.119 249.276 127.064 248.152C127.466 247.728 127.691 247.166 127.691 246.582C127.691 245.997 127.466 245.435 127.064 245.011C126.645 244.599 126.081 244.368 125.493 244.368C124.906 244.368 124.342 244.599 123.923 245.011C122.318 246.942 120.305 248.493 118.028 249.552C115.752 250.612 113.269 251.154 110.758 251.138C105.732 251.161 100.454 249.488 96.869 245.875C93.507 242.486 91.8154 238.301 90.9909 233.682C90.1839 228.954 89.8802 224.153 90.0849 219.361C90.5004 207.46 92.6066 195.57 95.0173 183.931C96.8575 174.887 99.3282 165.983 102.411 157.284C104.435 151.624 107.08 145.608 111.645 141.52C116.537 137.138 123.17 134.533 129.311 132.463C132.005 131.556 130.849 127.265 128.13 128.181V128.176Z" fill="#211715"/>
<path d="M122.304 168.644C124.572 174.196 126.864 180.383 124.832 186.025C124.149 187.922 123.009 189.622 122.254 191.492C121.117 194.311 121.32 196.321 121.112 199.358C120.956 201.619 121.079 203.486 120.475 205.422C120.195 206.531 119.67 207.563 118.939 208.443C118.207 209.322 117.287 210.026 116.248 210.503C114.445 211.044 112.594 211.409 110.721 211.592C105.484 212.257 101.214 211.798 97.5703 208.527C96.7082 207.753 96.0953 206.739 95.809 205.616C95.5227 204.493 95.5759 203.31 95.962 202.217C96.1313 201.746 96.2738 201.292 96.395 200.853C97.1603 198.092 97.3121 195.135 95.0069 193.428C92.5344 191.643 90.5249 189.292 89.1464 186.572C88.2145 184.501 87.6878 182.271 87.5945 180.002C87.5075 174.869 87.837 171.327 87.663 165.868L90.2106 157.479L91.136 154.438C91.8546 151.972 93.2016 149.735 95.0449 147.946C95.9707 147.061 97.07 146.378 98.2734 145.939C99.4768 145.5 100.758 145.316 102.036 145.398C102.576 145.545 103.068 145.833 103.461 146.231C103.835 146.644 104.117 147.132 104.289 147.662C104.46 148.192 104.517 148.753 104.456 149.307L107.764 157.789C107.778 157.635 107.795 157.475 107.814 157.309C108.023 155.315 108.857 153.438 110.196 151.947C111.538 150.518 114.121 150.592 115.646 151.618C117.404 152.8 117.482 154.422 118.073 156.596C119.215 160.735 120.629 164.793 122.307 168.745" fill="white"/>
<path d="M85.4826 167.339C85.5946 174.94 84.0094 183.176 88.5309 189.856C89.5142 191.332 90.6843 192.675 92.0122 193.852C93.1227 194.822 94.4821 195.463 94.6588 197.055C94.8439 198.764 94.1675 200.355 93.7103 201.96C93.1702 203.93 93.3816 206.031 94.3035 207.854C95.8767 211.027 99.7633 213.069 103.116 213.707C106.831 214.255 110.616 214.114 114.28 213.29C116.113 213.102 117.852 212.386 119.284 211.227C120.717 210.069 121.782 208.519 122.349 206.765C123.761 203.13 123.121 198.982 123.572 195.177C123.949 193.12 124.691 191.148 125.763 189.353C126.904 187.205 127.597 184.848 127.799 182.424C128.155 177.448 126.287 172.577 124.446 168.055C124.273 167.497 123.895 167.026 123.387 166.738C122.879 166.449 122.28 166.366 121.713 166.504C121.147 166.664 120.667 167.04 120.377 167.552C120.086 168.063 120.009 168.668 120.162 169.236C121.631 172.845 123.209 176.65 123.379 180.589C123.489 182.409 123.189 184.231 122.5 185.919C121.753 187.677 120.731 189.302 120.039 191.093C118.752 194.424 118.94 198.245 118.779 201.758C118.657 204.414 117.798 207.724 115.101 208.546C111.991 209.457 108.744 209.807 105.512 209.578C103.013 209.393 99.5773 208.282 98.2938 205.916C97.5091 204.462 98.0023 203.232 98.4354 201.772C98.9501 200.202 99.1697 198.55 99.0832 196.9C98.9862 195.173 98.2753 193.537 97.0788 192.289C95.9229 191.137 94.5478 190.274 93.453 189.034C91.27 186.603 89.9866 183.498 89.8172 180.235C89.6182 175.946 89.98 171.629 89.9171 167.341C89.8745 164.485 85.4326 164.477 85.4752 167.341L85.4826 167.339Z" fill="#211715"/>
<path d="M90.9416 172.303C95.4908 171.328 100.142 170.915 104.792 171.072C106.66 171.084 108.232 171.265 109.317 172.571C109.919 173.294 110.637 174.329 110.22 175.216C109.964 175.627 109.602 175.962 109.173 176.187C108.511 176.634 107.86 177.079 107.237 177.582C106.824 178.001 106.593 178.565 106.593 179.153C106.593 179.74 106.824 180.304 107.237 180.723C107.66 181.127 108.223 181.353 108.808 181.353C109.393 181.353 109.956 181.127 110.379 180.723C111.431 180.055 112.422 179.295 113.34 178.452C113.898 177.807 114.308 177.048 114.54 176.227C114.772 175.406 114.821 174.545 114.684 173.703C114.429 172.432 113.896 171.234 113.122 170.193C112.349 169.153 111.355 168.298 110.211 167.688C108.33 166.875 106.285 166.513 104.24 166.632C102.08 166.644 99.9189 166.749 97.7618 166.909C95.0661 167.057 92.3874 167.428 89.7534 168.02C86.9772 168.708 88.1553 172.993 90.9352 172.304L90.9416 172.303Z" fill="#211715"/>
<path d="M96.5911 181.622C98.6788 181.067 100.746 180.388 102.884 180.034C103.024 180.011 103.161 179.988 103.305 179.97C103.261 179.975 102.977 179.999 103.239 179.983C103.483 179.968 103.727 179.935 103.971 179.921C104.492 179.889 105.015 179.891 105.536 179.928C105.675 179.938 105.814 179.954 105.952 179.967C106.216 179.992 105.923 179.967 105.883 179.959C106.076 179.999 106.275 180.052 106.47 180.08C106.915 180.144 106.1 179.895 106.41 180.048C106.471 180.09 106.535 180.129 106.601 180.164C106.548 180.179 106.207 179.794 106.416 180.023C106.504 180.123 106.596 180.218 106.694 180.308C106.846 180.437 106.518 180.111 106.525 180.087C106.565 180.155 106.608 180.221 106.655 180.285C106.721 180.407 106.78 180.545 106.856 180.66C106.973 180.836 106.756 180.424 106.756 180.415C106.78 180.518 106.815 180.619 106.861 180.715C106.907 180.858 106.947 181.004 106.981 181.152C107.007 181.262 107.068 181.755 107.036 181.379C107.005 181.003 107.044 181.514 107.05 181.619C107.06 181.804 107.064 181.981 107.059 182.162C107.059 182.32 107.042 182.477 107.032 182.636C107.004 183.139 107.119 182.266 107.032 182.644C106.958 182.958 106.841 183.273 106.774 183.587C106.73 183.798 106.873 183.355 106.88 183.348C106.838 183.419 106.802 183.493 106.772 183.57C106.708 183.696 106.63 183.813 106.56 183.935C106.332 184.328 106.849 183.674 106.586 183.899C106.386 184.069 106.216 184.291 106.031 184.477C105.692 184.817 105.337 185.141 104.968 185.449C104.881 185.521 104.79 185.59 104.704 185.664C104.83 185.556 104.961 185.471 104.754 185.625C104.569 185.758 104.392 185.89 104.209 186.019C103.322 186.641 102.401 187.215 101.499 187.813C101.247 187.96 101.026 188.156 100.85 188.388C100.674 188.621 100.545 188.885 100.471 189.167C100.397 189.45 100.379 189.744 100.418 190.033C100.458 190.322 100.554 190.6 100.701 190.852C100.848 191.104 101.044 191.324 101.276 191.501C101.508 191.677 101.773 191.806 102.055 191.88C102.338 191.954 102.632 191.972 102.921 191.932C103.21 191.892 103.488 191.796 103.74 191.649C105.596 190.533 107.347 189.251 108.97 187.817C109.684 187.189 110.275 186.434 110.714 185.59C111.15 184.637 111.41 183.613 111.483 182.568C111.662 180.681 111.113 178.797 109.947 177.302C108.522 175.566 106.072 175.358 103.973 175.479C101.065 175.808 98.1969 176.431 95.414 177.339C95.1328 177.416 94.8695 177.548 94.6393 177.728C94.4091 177.907 94.2165 178.13 94.0724 178.384C93.9284 178.637 93.8357 178.917 93.7997 179.206C93.7637 179.496 93.7851 179.79 93.8626 180.071C93.9401 180.352 94.0723 180.615 94.2516 180.846C94.4308 181.076 94.6537 181.268 94.9074 181.413C95.1611 181.557 95.4407 181.649 95.7303 181.685C96.0198 181.721 96.3136 181.7 96.5948 181.622H96.5911Z" fill="#211715"/>
<path d="M106.677 149.304C106.658 147.02 105.868 144.844 103.756 143.701C101.6 142.535 98.7365 143.28 96.6358 144.235C92.7075 146.021 90.2089 149.941 88.967 153.938C88.6616 154.919 88.3701 155.905 88.0712 156.887C87.9204 157.455 87.9985 158.06 88.2887 158.571C88.579 159.081 89.0581 159.458 89.6231 159.619C90.1906 159.764 90.7921 159.683 91.3013 159.394C91.8106 159.105 92.1882 158.63 92.3549 158.068C92.6446 157.114 92.9296 156.158 93.2239 155.206C93.4253 154.51 93.6828 153.831 93.9938 153.177C94.2284 152.687 94.4885 152.21 94.773 151.748C94.8964 151.55 95.0228 151.356 95.1524 151.166C95.2394 151.038 95.3288 150.912 95.4207 150.788C95.3072 150.931 95.3341 150.9 95.5013 150.696C95.8464 150.281 96.2173 149.888 96.6117 149.52C96.6784 149.459 97.2725 148.976 97.0633 149.13C97.2484 148.992 97.4455 148.861 97.6426 148.737C97.9054 148.571 98.1766 148.417 98.4533 148.275C98.5921 148.204 98.7321 148.137 98.8734 148.073C98.7352 148.13 98.7377 148.13 98.8808 148.073C99.4212 147.865 99.9811 147.713 100.552 147.617C100.172 147.679 100.867 147.595 100.878 147.594C100.954 147.594 101.803 147.608 101.803 147.598C101.795 147.626 100.965 147.348 101.593 147.584C101.675 147.631 101.754 147.677 101.831 147.734C101.629 147.565 101.615 147.555 101.789 147.703C101.874 147.78 101.954 147.862 102.029 147.949C101.888 147.755 101.888 147.761 102.029 147.967C102.311 148.369 101.978 147.634 102.105 148.104C102.135 148.215 102.246 148.963 102.204 148.45C102.228 148.735 102.236 149.018 102.238 149.304C102.238 149.893 102.472 150.458 102.889 150.874C103.305 151.291 103.87 151.525 104.459 151.525C105.048 151.525 105.613 151.291 106.03 150.874C106.446 150.458 106.68 149.893 106.68 149.304H106.677Z" fill="#211715"/>
<path d="M80.6709 164.987L85.1128 172.584L109.956 157.854L105.514 150.257L80.6709 164.987Z" fill="white"/>
<path d="M117.79 144.246C117.488 144.047 117.136 143.937 116.775 143.928C116.413 143.918 116.056 144.01 115.744 144.192L105.472 150.19C106.838 152.53 108.52 155.408 109.909 157.787L120.181 151.788C120.626 151.529 120.949 151.103 121.08 150.604C121.211 150.106 121.139 149.577 120.879 149.132L118.401 144.89C118.25 144.63 118.041 144.41 117.79 144.246Z" fill="#FEBE69"/>
<path d="M75.7356 169.903C75.7774 170.329 75.9109 170.741 76.127 171.111L77.5744 173.587C77.7704 173.924 78.0309 174.218 78.341 174.454C78.651 174.689 79.0045 174.862 79.3812 174.96C79.7578 175.059 80.1503 175.083 80.5361 175.03C80.9219 174.977 81.2934 174.848 81.6294 174.651L85.1219 172.615L80.68 165.019L77.1885 167.055C76.6991 167.341 76.3021 167.761 76.0445 168.266C75.787 168.771 75.6798 169.339 75.7356 169.903Z" fill="#C6C6C6"/>
<path d="M111.831 156.67L107.389 149.073C107.091 148.565 106.604 148.195 106.035 148.045C105.465 147.896 104.859 147.979 104.35 148.276C103.841 148.573 103.472 149.06 103.322 149.63C103.173 150.2 103.256 150.806 103.553 151.315L107.995 158.911C108.294 159.415 108.781 159.781 109.349 159.927C109.916 160.074 110.519 159.99 111.025 159.694C111.531 159.399 111.9 158.915 112.051 158.348C112.201 157.781 112.123 157.178 111.831 156.67Z" fill="#211715"/>
<path d="M82.7498 176.566L100.537 166.016C107.358 161.972 114.242 158.019 121.006 153.88C121.523 153.607 121.98 153.233 122.348 152.779C122.716 152.325 122.988 151.8 123.148 151.238C123.307 150.676 123.351 150.087 123.277 149.507C123.202 148.927 123.01 148.368 122.713 147.865C122.17 146.87 121.568 145.904 120.996 144.926C120.494 143.791 119.667 142.832 118.619 142.168C115.873 140.738 112.789 143.361 110.511 144.71L85.5399 159.516L76.8754 164.653C75.4571 165.328 74.3482 166.516 73.7735 167.977C73.5373 168.79 73.4845 169.645 73.619 170.481C73.7534 171.317 74.0717 172.112 74.5508 172.81C75.0862 173.927 75.7782 174.962 76.6061 175.884C77.431 176.625 78.4671 177.088 79.569 177.21C80.6709 177.332 81.7833 177.105 82.7498 176.562C85.2928 175.256 83.0488 171.421 80.5085 172.727C79.7266 173.129 79.3768 172.265 79.0473 171.698C78.7429 171.177 77.91 170.218 77.9257 169.594C77.9415 168.996 78.8419 168.652 79.2805 168.391L87.4361 163.556L111.099 149.525L115.018 147.201C115.372 146.992 116.62 146.525 116.807 146.141C116.853 146.048 117.162 146.162 116.622 146.141C116.689 146.141 116.505 145.973 116.487 146.022C116.47 146.071 116.684 146.355 116.709 146.402C117.221 147.378 117.827 148.316 118.383 149.27C118.49 149.456 118.724 150.075 118.914 150.178C119.191 150.326 118.728 149.761 119.052 149.876C118.992 149.854 118.688 150.092 118.633 150.124L99.5828 161.42C93.3392 165.122 87.027 168.731 80.8426 172.531C80.7316 172.6 80.6177 172.665 80.5058 172.731C78.0516 174.186 80.2827 178.027 82.7498 176.566Z" fill="#211715"/>
<path d="M78.7663 166.131L83.2036 173.728C83.3508 173.98 83.5462 174.2 83.7786 174.376C84.011 174.553 84.2759 174.682 84.5581 174.756C84.8403 174.83 85.1343 174.847 85.4233 174.808C85.7123 174.768 85.9907 174.672 86.2426 174.525C86.4944 174.377 86.7148 174.182 86.8912 173.95C87.0675 173.717 87.1964 173.452 87.2704 173.17C87.3444 172.888 87.362 172.594 87.3224 172.305C87.2828 172.016 87.1866 171.737 87.0393 171.486L82.5974 163.889C82.3001 163.38 81.8129 163.011 81.2429 162.861C80.673 162.712 80.0671 162.795 79.5584 163.092C79.0498 163.39 78.6801 163.877 78.5306 164.447C78.3812 165.017 78.4643 165.623 78.7617 166.131H78.7663Z" fill="#211715"/>
<path d="M109.209 164.677C107.931 162.446 107.439 159.85 107.814 157.307C108.023 155.313 108.857 153.436 110.197 151.944C111.538 150.515 114.121 150.589 115.646 151.615C117.404 152.797 117.482 154.419 118.074 156.593C119.175 160.712 120.59 164.74 122.304 168.644L109.209 164.677Z" fill="white"/>
<path d="M110.716 162.694C110.491 162.172 110.295 161.637 110.131 161.092C110.058 160.841 110.007 160.587 109.951 160.332C109.909 160.075 109.908 160.075 109.946 160.332C109.932 160.193 109.921 160.054 109.913 159.913C109.82 158.579 109.977 157.239 110.376 155.962C110.581 155.328 110.875 154.726 111.249 154.175C111.41 153.936 111.586 153.748 111.771 153.517C111.969 153.341 111.989 153.311 111.832 153.429C111.955 153.345 112.084 153.27 112.217 153.203C111.926 153.343 112.655 153.091 112.76 153.076C112.402 153.131 113.229 153.087 113.32 153.09C113.646 153.122 113.963 153.216 114.254 153.367C114.404 153.421 114.538 153.512 114.644 153.632C114.752 153.732 114.854 153.838 114.95 153.95C114.822 153.779 114.832 153.799 114.976 154.011C115.048 154.129 115.115 154.25 115.176 154.374C115.096 154.159 115.103 154.176 115.197 154.423C115.29 154.701 115.378 154.978 115.454 155.263C115.852 156.744 116.212 158.225 116.657 159.693C117.666 162.963 118.837 166.181 120.168 169.333C120.341 169.89 120.72 170.361 121.227 170.649C121.735 170.937 122.333 171.021 122.9 170.884C123.466 170.725 123.947 170.348 124.237 169.837C124.528 169.326 124.605 168.72 124.452 168.152C123.235 165.246 122.127 162.294 121.181 159.287C120.736 157.871 120.316 156.445 119.964 155.002C119.747 153.8 119.317 152.646 118.696 151.594C117.893 150.448 116.762 149.571 115.451 149.079C114.141 148.586 112.712 148.502 111.353 148.836C108.379 149.536 106.574 152.699 105.893 155.466C105.165 158.255 105.354 161.204 106.432 163.877C106.605 164.434 106.983 164.905 107.491 165.193C107.998 165.481 108.596 165.565 109.164 165.428C109.73 165.268 110.21 164.892 110.5 164.38C110.791 163.869 110.868 163.263 110.714 162.695L110.716 162.694Z" fill="#211715"/>
<path d="M125.637 132.738C131.955 142.889 144.346 146.942 155.77 147.148C166.646 147.411 177.42 145.007 187.153 140.148C192.657 137.338 197.624 133.583 201.826 129.053C203.764 126.955 200.631 123.806 198.686 125.912C191.814 133.172 182.994 138.294 173.283 140.665C163.216 143.266 151.791 143.915 141.936 140.187C136.832 138.408 132.454 135.004 129.472 130.496C127.965 128.074 124.121 130.302 125.637 132.738Z" fill="#211715"/>
<path d="M213.184 199.238L220.813 227.165C221.565 229.919 225.852 228.749 225.097 225.983L217.468 198.057C216.715 195.303 212.429 196.473 213.184 199.238Z" fill="#211715"/>
<path d="M255.126 267.369C258.597 264.633 261.461 261.205 263.537 257.304C265.613 253.402 266.855 249.112 267.185 244.705C267.488 242.173 267.624 239.624 267.592 237.074C267.463 232.034 266.448 226.942 265.629 221.98C264.584 215.637 263.402 209.324 261.896 203.072C260.457 197.102 258.799 191.187 257.219 185.254C255.915 180.356 254.563 175.471 253.014 170.644C249.522 159.756 245.272 148.073 236.919 139.911C228.543 131.727 217.138 128.207 206.037 125.486C204.499 125.108 202.959 124.746 201.417 124.384C198.641 123.736 197.45 128.015 200.236 128.667C210.811 131.141 222.243 133.633 230.943 140.547C239.642 147.46 244.052 158.075 247.567 168.309C250.954 178.18 253.522 188.358 256.154 198.453C259.235 210.021 261.482 221.795 262.88 233.684C263.936 243.139 262.393 253.454 255.776 260.688C254.6 261.959 253.332 263.14 251.982 264.223C251.569 264.642 251.338 265.206 251.338 265.794C251.338 266.382 251.569 266.946 251.982 267.364C252.405 267.769 252.967 267.994 253.552 267.994C254.138 267.994 254.7 267.769 255.123 267.364L255.126 267.369Z" fill="#211715"/>
</g>
<defs>
<clipPath id="clip0_496_1722">
<rect width="268" height="268" fill="white"/>
</clipPath>
</defs>
</svg>
