<svg width="345" height="33" viewBox="0 0 345 33" fill="none" xmlns="http://www.w3.org/2000/svg">
<rect y="23.5204" width="345" height="8.80102" rx="4.40051" fill="#C7D3EB"/>
<rect y="23.5204" width="261.39" height="8.80102" rx="4.40051" fill="#47B2FF"/>
<path d="M247.228 14L251.449 5.64773V5.57812H246.532V3.81818H253.676V5.60298L249.45 14H247.228ZM258.733 14.1392C258.031 14.1392 257.404 14.0099 256.854 13.7514C256.307 13.4929 255.873 13.1366 255.552 12.6825C255.23 12.2285 255.063 11.7081 255.05 11.1214H257.138C257.161 11.5159 257.327 11.8357 257.635 12.081C257.943 12.3262 258.309 12.4489 258.733 12.4489C259.072 12.4489 259.37 12.3743 259.628 12.2251C259.89 12.0727 260.094 11.8622 260.24 11.5938C260.389 11.322 260.464 11.0104 260.464 10.6591C260.464 10.3011 260.387 9.98627 260.235 9.71449C260.086 9.44271 259.879 9.23059 259.613 9.07812C259.348 8.92566 259.045 8.84777 258.704 8.84446C258.405 8.84446 258.115 8.90578 257.834 9.02841C257.555 9.15104 257.338 9.31842 257.182 9.53054L255.268 9.1875L255.751 3.81818H261.975V5.57812H257.525L257.262 8.12855H257.322C257.501 7.87666 257.771 7.66785 258.132 7.50213C258.493 7.33641 258.898 7.25355 259.345 7.25355C259.958 7.25355 260.505 7.39773 260.986 7.68608C261.466 7.97443 261.846 8.3705 262.124 8.87429C262.403 9.37476 262.54 9.95147 262.537 10.6044C262.54 11.2905 262.381 11.9003 262.059 12.4339C261.741 12.9643 261.296 13.3819 260.722 13.6868C260.152 13.9884 259.489 14.1392 258.733 14.1392ZM269.611 12.0909V11.554C269.611 11.1463 269.698 10.7718 269.87 10.4304C270.046 10.0857 270.299 9.81061 270.631 9.60511C270.965 9.39631 271.373 9.2919 271.854 9.2919C272.341 9.2919 272.75 9.39465 273.081 9.60014C273.416 9.80563 273.668 10.0807 273.837 10.4254C274.01 10.7668 274.096 11.143 274.096 11.554V12.0909C274.096 12.4986 274.01 12.8748 273.837 13.2195C273.665 13.5608 273.411 13.8343 273.077 14.0398C272.742 14.2486 272.334 14.353 271.854 14.353C271.366 14.353 270.957 14.2486 270.626 14.0398C270.294 13.8343 270.042 13.5608 269.87 13.2195C269.698 12.8748 269.611 12.4986 269.611 12.0909ZM271.058 11.554V12.0909C271.058 12.3262 271.114 12.5483 271.227 12.7571C271.343 12.9659 271.552 13.0703 271.854 13.0703C272.155 13.0703 272.361 12.9676 272.47 12.7621C272.583 12.5566 272.639 12.3329 272.639 12.0909V11.554C272.639 11.312 272.586 11.0866 272.48 10.8778C272.374 10.669 272.165 10.5646 271.854 10.5646C271.555 10.5646 271.348 10.669 271.232 10.8778C271.116 11.0866 271.058 11.312 271.058 11.554ZM264.386 6.2642V5.72727C264.386 5.31629 264.474 4.9401 264.65 4.59872C264.825 4.25402 265.079 3.97893 265.41 3.77344C265.745 3.56794 266.149 3.4652 266.623 3.4652C267.114 3.4652 267.525 3.56794 267.856 3.77344C268.188 3.97893 268.44 4.25402 268.612 4.59872C268.784 4.9401 268.871 5.31629 268.871 5.72727V6.2642C268.871 6.67519 268.783 7.05137 268.607 7.39276C268.435 7.73414 268.181 8.00758 267.846 8.21307C267.515 8.41525 267.107 8.51634 266.623 8.51634C266.14 8.51634 265.73 8.41359 265.395 8.2081C265.064 7.99929 264.812 7.72585 264.64 7.38778C264.471 7.0464 264.386 6.67187 264.386 6.2642ZM265.843 5.72727V6.2642C265.843 6.50615 265.899 6.72988 266.012 6.93537C266.128 7.14086 266.332 7.24361 266.623 7.24361C266.928 7.24361 267.135 7.14086 267.245 6.93537C267.358 6.72988 267.414 6.50615 267.414 6.2642V5.72727C267.414 5.48532 267.361 5.25994 267.255 5.05114C267.149 4.84233 266.938 4.73793 266.623 4.73793C266.328 4.73793 266.125 4.84399 266.012 5.05611C265.899 5.26823 265.843 5.49195 265.843 5.72727ZM265.042 14L272.042 3.81818H273.345L266.345 14H265.042Z" fill="#3174A5"/>
</svg>
