<svg width="345" height="33" viewBox="0 0 345 33" fill="none" xmlns="http://www.w3.org/2000/svg">
<rect y="23.5204" width="345" height="8.80102" rx="4.40051" fill="#C7D3EB"/>
<rect y="23.5204" width="87.13" height="8.80102" rx="4.40051" fill="#47B2FF"/>
<path d="M71.8253 14V12.4489L75.4496 9.09304C75.7578 8.79474 76.0163 8.52628 76.2251 8.28764C76.4373 8.04901 76.598 7.81534 76.7074 7.58665C76.8168 7.35464 76.8714 7.1044 76.8714 6.83594C76.8714 6.53764 76.8035 6.28078 76.6676 6.06534C76.5317 5.84659 76.3461 5.67921 76.1108 5.56321C75.8755 5.44389 75.6087 5.38423 75.3104 5.38423C74.9988 5.38423 74.727 5.44721 74.495 5.57315C74.263 5.6991 74.084 5.87973 73.9581 6.11506C73.8321 6.35038 73.7692 6.63044 73.7692 6.95526H71.7259C71.7259 6.28906 71.8767 5.7107 72.1783 5.22017C72.4799 4.72964 72.9025 4.35014 73.446 4.08168C73.9896 3.81321 74.616 3.67898 75.3253 3.67898C76.0545 3.67898 76.6892 3.80824 77.2294 4.06676C77.773 4.32197 78.1955 4.67661 78.4972 5.13068C78.7988 5.58475 78.9496 6.10511 78.9496 6.69176C78.9496 7.07623 78.8733 7.45573 78.7209 7.83026C78.5717 8.20478 78.3049 8.62074 77.9205 9.07812C77.536 9.5322 76.9941 10.0774 76.2947 10.7138L74.8082 12.1705V12.2401H79.0838V14H71.8253ZM84.3624 14.1392C83.6597 14.1392 83.0333 14.0099 82.4831 13.7514C81.9363 13.4929 81.5021 13.1366 81.1806 12.6825C80.8591 12.2285 80.6917 11.7081 80.6784 11.1214H82.7665C82.7897 11.5159 82.9554 11.8357 83.2637 12.081C83.5719 12.3262 83.9382 12.4489 84.3624 12.4489C84.7005 12.4489 84.9988 12.3743 85.2573 12.2251C85.5191 12.0727 85.723 11.8622 85.8688 11.5938C86.0179 11.322 86.0925 11.0104 86.0925 10.6591C86.0925 10.3011 86.0163 9.98627 85.8638 9.71449C85.7147 9.44271 85.5075 9.23059 85.2424 9.07812C84.9772 8.92566 84.6739 8.84777 84.3326 8.84446C84.0343 8.84446 83.7443 8.90578 83.4625 9.02841C83.1841 9.15104 82.967 9.31842 82.8113 9.53054L80.8972 9.1875L81.3794 3.81818H87.6039V5.57812H83.1543L82.8908 8.12855H82.9505C83.1294 7.87666 83.3996 7.66785 83.7608 7.50213C84.1221 7.33641 84.5265 7.25355 84.9739 7.25355C85.5871 7.25355 86.1339 7.39773 86.6145 7.68608C87.0951 7.97443 87.4746 8.3705 87.753 8.87429C88.0314 9.37476 88.169 9.95147 88.1657 10.6044C88.169 11.2905 88.0099 11.9003 87.6884 12.4339C87.3702 12.9643 86.9244 13.3819 86.351 13.6868C85.781 13.9884 85.1181 14.1392 84.3624 14.1392ZM95.2402 12.0909V11.554C95.2402 11.1463 95.3264 10.7718 95.4988 10.4304C95.6744 10.0857 95.928 9.81061 96.2594 9.60511C96.5942 9.39631 97.0018 9.2919 97.4824 9.2919C97.9696 9.2919 98.379 9.39465 98.7104 9.60014C99.0452 9.80563 99.2971 10.0807 99.4661 10.4254C99.6384 10.7668 99.7246 11.143 99.7246 11.554V12.0909C99.7246 12.4986 99.6384 12.8748 99.4661 13.2195C99.2937 13.5608 99.0402 13.8343 98.7054 14.0398C98.3707 14.2486 97.963 14.353 97.4824 14.353C96.9952 14.353 96.5859 14.2486 96.2544 14.0398C95.923 13.8343 95.6711 13.5608 95.4988 13.2195C95.3264 12.8748 95.2402 12.4986 95.2402 12.0909ZM96.687 11.554V12.0909C96.687 12.3262 96.7433 12.5483 96.856 12.7571C96.972 12.9659 97.1808 13.0703 97.4824 13.0703C97.784 13.0703 97.9895 12.9676 98.0989 12.7621C98.2116 12.5566 98.2679 12.3329 98.2679 12.0909V11.554C98.2679 11.312 98.2149 11.0866 98.1088 10.8778C98.0028 10.669 97.794 10.5646 97.4824 10.5646C97.1841 10.5646 96.977 10.669 96.861 10.8778C96.745 11.0866 96.687 11.312 96.687 11.554ZM90.0151 6.2642V5.72727C90.0151 5.31629 90.1029 4.9401 90.2786 4.59872C90.4542 4.25402 90.7078 3.97893 91.0392 3.77344C91.374 3.56794 91.7783 3.4652 92.2523 3.4652C92.7428 3.4652 93.1538 3.56794 93.4853 3.77344C93.8167 3.97893 94.0686 4.25402 94.2409 4.59872C94.4133 4.9401 94.4995 5.31629 94.4995 5.72727V6.2642C94.4995 6.67519 94.4116 7.05137 94.236 7.39276C94.0636 7.73414 93.8101 8.00758 93.4753 8.21307C93.1439 8.41525 92.7362 8.51634 92.2523 8.51634C91.7684 8.51634 91.3591 8.41359 91.0243 8.2081C90.6929 7.99929 90.441 7.72585 90.2686 7.38778C90.0996 7.0464 90.0151 6.67187 90.0151 6.2642ZM91.4718 5.72727V6.2642C91.4718 6.50615 91.5281 6.72988 91.6408 6.93537C91.7568 7.14086 91.9606 7.24361 92.2523 7.24361C92.5572 7.24361 92.7644 7.14086 92.8738 6.93537C92.9864 6.72988 93.0428 6.50615 93.0428 6.2642V5.72727C93.0428 5.48532 92.9898 5.25994 92.8837 5.05114C92.7776 4.84233 92.5672 4.73793 92.2523 4.73793C91.9573 4.73793 91.7535 4.84399 91.6408 5.05611C91.5281 5.26823 91.4718 5.49195 91.4718 5.72727ZM90.6713 14L97.6713 3.81818H98.9739L91.9739 14H90.6713Z" fill="#3174A5"/>
</svg>
