<svg width="364" height="33" viewBox="0 0 364 33" fill="none" xmlns="http://www.w3.org/2000/svg">
<rect y="23.5204" width="345" height="8.80102" rx="4.40051" fill="#C7D3EB"/>
<rect y="24" width="345" height="8" rx="4" fill="#47B2FF"/>
<path d="M330.255 3.81818V14H328.102V5.86151H328.043L325.711 7.32315V5.41406L328.232 3.81818H330.255ZM336.667 14.2237C335.812 14.2204 335.076 14.0099 334.46 13.5923C333.847 13.1747 333.374 12.5698 333.043 11.7777C332.715 10.9856 332.552 10.0327 332.556 8.91903C332.556 7.80871 332.72 6.86245 333.048 6.08026C333.379 5.29806 333.852 4.70312 334.465 4.29545C335.081 3.88447 335.815 3.67898 336.667 3.67898C337.519 3.67898 338.251 3.88447 338.865 4.29545C339.481 4.70644 339.955 5.30303 340.286 6.08523C340.618 6.86411 340.782 7.80871 340.779 8.91903C340.779 10.036 340.613 10.9905 340.281 11.7827C339.953 12.5748 339.483 13.1797 338.869 13.5973C338.256 14.0149 337.522 14.2237 336.667 14.2237ZM336.667 12.4389C337.25 12.4389 337.716 12.1456 338.064 11.5589C338.412 10.9723 338.584 10.0923 338.581 8.91903C338.581 8.14678 338.502 7.50379 338.343 6.99006C338.187 6.47633 337.965 6.0902 337.676 5.83168C337.391 5.57315 337.055 5.44389 336.667 5.44389C336.087 5.44389 335.623 5.7339 335.275 6.31392C334.927 6.89394 334.751 7.76231 334.748 8.91903C334.748 9.70123 334.826 10.3542 334.982 10.8778C335.141 11.3982 335.365 11.7893 335.653 12.0511C335.941 12.3097 336.279 12.4389 336.667 12.4389ZM346.306 14.2237C345.451 14.2204 344.715 14.0099 344.098 13.5923C343.485 13.1747 343.013 12.5698 342.681 11.7777C342.353 10.9856 342.191 10.0327 342.194 8.91903C342.194 7.80871 342.358 6.86245 342.686 6.08026C343.018 5.29806 343.49 4.70312 344.103 4.29545C344.72 3.88447 345.454 3.67898 346.306 3.67898C347.158 3.67898 347.89 3.88447 348.503 4.29545C349.12 4.70644 349.594 5.30303 349.925 6.08523C350.257 6.86411 350.421 7.80871 350.417 8.91903C350.417 10.036 350.252 10.9905 349.92 11.7827C349.592 12.5748 349.121 13.1797 348.508 13.5973C347.895 14.0149 347.161 14.2237 346.306 14.2237ZM346.306 12.4389C346.889 12.4389 347.355 12.1456 347.703 11.5589C348.051 10.9723 348.223 10.0923 348.22 8.91903C348.22 8.14678 348.14 7.50379 347.981 6.99006C347.825 6.47633 347.603 6.0902 347.315 5.83168C347.03 5.57315 346.694 5.44389 346.306 5.44389C345.726 5.44389 345.262 5.7339 344.914 6.31392C344.566 6.89394 344.39 7.76231 344.387 8.91903C344.387 9.70123 344.465 10.3542 344.62 10.8778C344.779 11.3982 345.003 11.7893 345.292 12.0511C345.58 12.3097 345.918 12.4389 346.306 12.4389ZM357.525 12.0909V11.554C357.525 11.1463 357.612 10.7718 357.784 10.4304C357.96 10.0857 358.213 9.81061 358.545 9.60511C358.879 9.39631 359.287 9.2919 359.768 9.2919C360.255 9.2919 360.664 9.39465 360.996 9.60014C361.33 9.80563 361.582 10.0807 361.751 10.4254C361.924 10.7668 362.01 11.143 362.01 11.554V12.0909C362.01 12.4986 361.924 12.8748 361.751 13.2195C361.579 13.5608 361.325 13.8343 360.991 14.0398C360.656 14.2486 360.248 14.353 359.768 14.353C359.28 14.353 358.871 14.2486 358.54 14.0398C358.208 13.8343 357.956 13.5608 357.784 13.2195C357.612 12.8748 357.525 12.4986 357.525 12.0909ZM358.972 11.554V12.0909C358.972 12.3262 359.028 12.5483 359.141 12.7571C359.257 12.9659 359.466 13.0703 359.768 13.0703C360.069 13.0703 360.275 12.9676 360.384 12.7621C360.497 12.5566 360.553 12.3329 360.553 12.0909V11.554C360.553 11.312 360.5 11.0866 360.394 10.8778C360.288 10.669 360.079 10.5646 359.768 10.5646C359.469 10.5646 359.262 10.669 359.146 10.8778C359.03 11.0866 358.972 11.312 358.972 11.554ZM352.3 6.2642V5.72727C352.3 5.31629 352.388 4.9401 352.564 4.59872C352.739 4.25402 352.993 3.97893 353.324 3.77344C353.659 3.56794 354.064 3.4652 354.537 3.4652C355.028 3.4652 355.439 3.56794 355.77 3.77344C356.102 3.97893 356.354 4.25402 356.526 4.59872C356.698 4.9401 356.785 5.31629 356.785 5.72727V6.2642C356.785 6.67519 356.697 7.05137 356.521 7.39276C356.349 7.73414 356.095 8.00758 355.76 8.21307C355.429 8.41525 355.021 8.51634 354.537 8.51634C354.054 8.51634 353.644 8.41359 353.309 8.2081C352.978 7.99929 352.726 7.72585 352.554 7.38778C352.385 7.0464 352.3 6.67187 352.3 6.2642ZM353.757 5.72727V6.2642C353.757 6.50615 353.813 6.72988 353.926 6.93537C354.042 7.14086 354.246 7.24361 354.537 7.24361C354.842 7.24361 355.05 7.14086 355.159 6.93537C355.272 6.72988 355.328 6.50615 355.328 6.2642V5.72727C355.328 5.48532 355.275 5.25994 355.169 5.05114C355.063 4.84233 354.852 4.73793 354.537 4.73793C354.242 4.73793 354.039 4.84399 353.926 5.05611C353.813 5.26823 353.757 5.49195 353.757 5.72727ZM352.956 14L359.956 3.81818H361.259L354.259 14H352.956Z" fill="#3174A5"/>
</svg>
