<svg width="22" height="22" viewBox="0 0 22 22" fill="none" xmlns="http://www.w3.org/2000/svg">
<path d="M10.0835 8.68268C10.084 8.1409 9.97754 7.60435 9.77021 7.10381C9.56289 6.60327 9.25878 6.14859 8.87533 5.76584C8.21448 5.1031 7.34712 4.68591 6.41683 4.58334M10.0835 8.68268C10.0835 9.7767 9.6489 10.8259 8.87531 11.5995C8.10173 12.3731 7.05252 12.8077 5.9585 12.8077C4.86448 12.8077 3.81527 12.3731 3.04168 11.5995C2.26809 10.8259 1.8335 9.7767 1.8335 8.68268M10.0835 8.68268H1.8335M1.8335 8.68268C1.83299 8.1409 1.93946 7.60435 2.14678 7.10381C2.35411 6.60327 2.65822 6.14859 3.04166 5.76584M15.9327 19.1629L19.1631 15.9326C19.7938 15.2876 20.1447 14.4199 20.1397 13.5178C20.1347 12.6157 19.7741 11.7519 19.1361 11.114C18.4982 10.4761 17.6345 10.1155 16.7324 10.1105C15.8303 10.1054 14.9626 10.4564 14.3176 11.0871L11.0872 14.3174C10.6489 14.7557 10.3376 15.3046 10.1866 15.9058C10.0355 16.507 10.0504 17.1379 10.2296 17.7313C10.4088 18.3247 10.7456 18.8583 11.2042 19.2754C11.6627 19.6925 12.2258 19.9774 12.8335 20.0998M13.5274 6.52759C13.781 6.79031 14.0844 6.99988 14.4199 7.14408C14.7554 7.28829 15.1162 7.36423 15.4814 7.36749C15.8465 7.37075 16.2086 7.30126 16.5466 7.16306C16.8846 7.02487 17.1917 6.82075 17.45 6.5626C17.7083 6.30446 17.9125 5.99746 18.0509 5.65953C18.1892 5.3216 18.2589 4.9595 18.2558 4.59436C18.2527 4.22921 18.1769 3.86834 18.0329 3.53279C17.8889 3.19725 17.6794 2.89375 17.4168 2.64001C16.8997 2.13116 16.2025 1.84725 15.4771 1.85012C14.7516 1.85299 14.0567 2.1424 13.5436 2.65532C13.0306 3.16825 12.741 3.86312 12.738 4.58858C12.7349 5.31404 13.0187 6.01131 13.5274 6.52851V6.52759Z" stroke="#FA3022" stroke-width="1.5" stroke-linecap="round"/>
<path d="M12.8335 12.8334C12.8335 12.8334 13.0911 14.1717 14.5852 15.6659C16.0794 17.1582 17.4168 17.4167 17.4168 17.4167" stroke="#FA3022" stroke-width="1.5"/>
</svg>
